<mxfile host="65bd71144e">
    <diagram name="第 1 页" id="Ik-g8sNIh_6q8OoHqGbS">
        <mxGraphModel dx="1526" dy="1159" grid="1" gridSize="10" guides="1" tooltips="1" connect="1" arrows="1" fold="1" page="1" pageScale="1" pageWidth="827" pageHeight="1169" background="none" math="0" shadow="0">
            <root>
                <mxCell id="0"/>
                <mxCell id="1" parent="0"/>
                <mxCell id="hj5V9L2vQso6mufphsfm-320" value="JTAG&lt;div&gt;&lt;br&gt;&lt;/div&gt;&lt;div&gt;&lt;br&gt;&lt;/div&gt;" style="rounded=0;whiteSpace=wrap;html=1;points=[[0,0,0,0,0],[0,0.25,0,0,0],[0,0.5,0,0,0],[0,0.75,0,0,0],[0,1,0,0,0],[0.25,0,0,0,0],[0.25,1,0,0,0],[0.5,0,0,0,0],[0.5,1,0,0,0],[0.75,0,0,0,0],[0.75,1,0,0,0],[1,0,0,0,0],[1,0.14,0,0,-1],[1,0.38,0,0,-1],[1,0.64,0,0,-1],[1,0.88,0,0,0],[1,1,0,0,0]];fillColor=#60a917;fontColor=#ffffff;strokeColor=#2D7600;dashed=1;dashPattern=8 8;opacity=20;rotation=-90;" parent="1" vertex="1">
                    <mxGeometry x="-660.38" y="1078.63" width="100" height="60.75" as="geometry"/>
                </mxCell>
                <mxCell id="BuRNvV0W3GMk6oM7O5ki-2" value="" style="rounded=0;whiteSpace=wrap;html=1;fillColor=default;" parent="1" vertex="1">
                    <mxGeometry x="-580" width="1140" height="1160" as="geometry"/>
                </mxCell>
                <mxCell id="hj5V9L2vQso6mufphsfm-456" value="" style="rounded=0;whiteSpace=wrap;html=1;fillColor=#999900;dashed=1;opacity=30;" parent="1" vertex="1">
                    <mxGeometry x="-330" y="59" width="220.01" height="90" as="geometry"/>
                </mxCell>
                <mxCell id="hj5V9L2vQso6mufphsfm-422" value="" style="rounded=0;whiteSpace=wrap;html=1;fillColor=#999900;dashed=1;opacity=30;" parent="1" vertex="1">
                    <mxGeometry x="-330" y="169" width="220.01" height="90" as="geometry"/>
                </mxCell>
                <mxCell id="hj5V9L2vQso6mufphsfm-173" value="" style="rounded=0;whiteSpace=wrap;html=1;fillColor=#f8cecc;dashed=1;strokeColor=#b85450;gradientColor=none;opacity=30;" parent="1" vertex="1">
                    <mxGeometry x="-360" y="859" width="460" height="150" as="geometry"/>
                </mxCell>
                <mxCell id="hj5V9L2vQso6mufphsfm-175" value="" style="rounded=0;whiteSpace=wrap;html=1;fillColor=#66B2FF;dashed=1;gradientColor=none;strokeColor=#996185;opacity=30;" parent="1" vertex="1">
                    <mxGeometry x="-220" y="609" width="360" height="140" as="geometry"/>
                </mxCell>
                <mxCell id="hj5V9L2vQso6mufphsfm-26" value="" style="rounded=0;whiteSpace=wrap;html=1;fillColor=#66B2FF;dashed=1;opacity=30;" parent="1" vertex="1">
                    <mxGeometry x="-120" y="299" width="250" height="120" as="geometry"/>
                </mxCell>
                <mxCell id="hj5V9L2vQso6mufphsfm-1" value="" style="group;" parent="1" vertex="1" connectable="0">
                    <mxGeometry x="70" y="473" width="150" height="110" as="geometry"/>
                </mxCell>
                <mxCell id="hj5V9L2vQso6mufphsfm-174" value="" style="rounded=0;whiteSpace=wrap;html=1;fillColor=#66B2FF;dashed=1;fontColor=#ffffff;strokeColor=#005700;opacity=30;" parent="hj5V9L2vQso6mufphsfm-1" vertex="1">
                    <mxGeometry x="-220" y="-24" width="310" height="134" as="geometry"/>
                </mxCell>
                <mxCell id="hj5V9L2vQso6mufphsfm-2" value="" style="whiteSpace=wrap;html=1;container=0;" parent="hj5V9L2vQso6mufphsfm-1" vertex="1">
                    <mxGeometry x="6" width="60" height="80" as="geometry"/>
                </mxCell>
                <mxCell id="hj5V9L2vQso6mufphsfm-3" value="" style="whiteSpace=wrap;html=1;container=0;" parent="hj5V9L2vQso6mufphsfm-1" vertex="1">
                    <mxGeometry x="4" y="2" width="60" height="80" as="geometry"/>
                </mxCell>
                <mxCell id="hj5V9L2vQso6mufphsfm-4" value="" style="whiteSpace=wrap;html=1;container=0;" parent="hj5V9L2vQso6mufphsfm-1" vertex="1">
                    <mxGeometry x="2" y="4" width="60" height="80" as="geometry"/>
                </mxCell>
                <mxCell id="hj5V9L2vQso6mufphsfm-5" value="" style="whiteSpace=wrap;html=1;container=0;" parent="hj5V9L2vQso6mufphsfm-1" vertex="1">
                    <mxGeometry y="6" width="60" height="80" as="geometry"/>
                </mxCell>
                <mxCell id="hj5V9L2vQso6mufphsfm-6" value="" style="whiteSpace=wrap;html=1;container=0;" parent="hj5V9L2vQso6mufphsfm-1" vertex="1">
                    <mxGeometry y="6" width="60" height="80" as="geometry"/>
                </mxCell>
                <mxCell id="hj5V9L2vQso6mufphsfm-7" value="" style="edgeStyle=none;orthogonalLoop=1;jettySize=auto;html=1;rounded=0;exitX=-0.001;exitY=0.645;exitDx=0;exitDy=0;exitPerimeter=0;entryX=0.296;entryY=0.752;entryDx=0;entryDy=0;entryPerimeter=0;endArrow=none;endFill=0;" parent="hj5V9L2vQso6mufphsfm-1" edge="1">
                    <mxGeometry width="80" relative="1" as="geometry">
                        <mxPoint y="61" as="sourcePoint"/>
                        <mxPoint x="9.600000000000023" y="65.56000000000006" as="targetPoint"/>
                        <Array as="points"/>
                    </mxGeometry>
                </mxCell>
                <mxCell id="hj5V9L2vQso6mufphsfm-8" value="" style="edgeStyle=none;orthogonalLoop=1;jettySize=auto;html=1;rounded=0;exitX=-0.001;exitY=0.645;exitDx=0;exitDy=0;exitPerimeter=0;entryX=0.025;entryY=0.801;entryDx=0;entryDy=0;entryPerimeter=0;endArrow=none;endFill=0;" parent="hj5V9L2vQso6mufphsfm-1" edge="1">
                    <mxGeometry width="80" relative="1" as="geometry">
                        <mxPoint y="70.39999999999998" as="sourcePoint"/>
                        <mxPoint x="9.5" y="65.48000000000002" as="targetPoint"/>
                        <Array as="points"/>
                    </mxGeometry>
                </mxCell>
                <mxCell id="hj5V9L2vQso6mufphsfm-9" value="D" style="text;align=center;html=1;verticalAlign=middle;whiteSpace=wrap;rounded=0;container=0;" parent="hj5V9L2vQso6mufphsfm-1" vertex="1">
                    <mxGeometry y="20" width="14" height="12" as="geometry"/>
                </mxCell>
                <mxCell id="hj5V9L2vQso6mufphsfm-10" value="Q" style="text;align=center;html=1;verticalAlign=middle;whiteSpace=wrap;rounded=0;container=0;" parent="hj5V9L2vQso6mufphsfm-1" vertex="1">
                    <mxGeometry x="46" y="20" width="14" height="12" as="geometry"/>
                </mxCell>
                <mxCell id="hj5V9L2vQso6mufphsfm-11" value="Q" style="text;align=center;html=1;verticalAlign=middle;whiteSpace=wrap;rounded=0;container=0;" parent="hj5V9L2vQso6mufphsfm-1" vertex="1">
                    <mxGeometry x="46" y="60" width="14" height="12" as="geometry"/>
                </mxCell>
                <mxCell id="hj5V9L2vQso6mufphsfm-12" value="" style="edgeStyle=none;orthogonalLoop=1;jettySize=auto;html=1;rounded=0;entryX=0.75;entryY=0;entryDx=0;entryDy=0;endArrow=none;endFill=0;exitX=0.25;exitY=0;exitDx=0;exitDy=0;" parent="hj5V9L2vQso6mufphsfm-1" source="hj5V9L2vQso6mufphsfm-11" target="hj5V9L2vQso6mufphsfm-11" edge="1">
                    <mxGeometry width="80" relative="1" as="geometry">
                        <mxPoint x="-78" y="2" as="sourcePoint"/>
                        <mxPoint x="-48" y="-28" as="targetPoint"/>
                        <Array as="points"/>
                    </mxGeometry>
                </mxCell>
                <mxCell id="hj5V9L2vQso6mufphsfm-73" style="edgeStyle=orthogonalEdgeStyle;rounded=0;orthogonalLoop=1;jettySize=auto;html=1;exitX=1;exitY=0.5;exitDx=0;exitDy=0;shape=flexArrow;endArrow=block;endFill=0;width=4;fillColor=default;endWidth=8.524590163934427;endSize=2.695081967213115;" parent="hj5V9L2vQso6mufphsfm-1" source="hj5V9L2vQso6mufphsfm-10" edge="1">
                    <mxGeometry relative="1" as="geometry">
                        <mxPoint x="110" y="26" as="targetPoint"/>
                    </mxGeometry>
                </mxCell>
                <mxCell id="hj5V9L2vQso6mufphsfm-52" value="" style="group;connectable=1;" parent="hj5V9L2vQso6mufphsfm-1" vertex="1" connectable="0">
                    <mxGeometry x="-120" y="-14" width="60" height="80" as="geometry"/>
                </mxCell>
                <mxCell id="hj5V9L2vQso6mufphsfm-53" value="" style="edgeStyle=none;orthogonalLoop=1;jettySize=auto;html=1;rounded=0;endArrow=none;endFill=0;" parent="hj5V9L2vQso6mufphsfm-52" edge="1">
                    <mxGeometry width="80" relative="1" as="geometry">
                        <mxPoint x="20" y="80" as="sourcePoint"/>
                        <mxPoint x="20" as="targetPoint"/>
                        <Array as="points"/>
                    </mxGeometry>
                </mxCell>
                <mxCell id="hj5V9L2vQso6mufphsfm-54" value="" style="edgeStyle=none;orthogonalLoop=1;jettySize=auto;html=1;rounded=0;endArrow=none;endFill=0;" parent="hj5V9L2vQso6mufphsfm-52" edge="1">
                    <mxGeometry width="80" relative="1" as="geometry">
                        <mxPoint x="40" y="60" as="sourcePoint"/>
                        <mxPoint x="40" y="20" as="targetPoint"/>
                        <Array as="points"/>
                    </mxGeometry>
                </mxCell>
                <mxCell id="hj5V9L2vQso6mufphsfm-55" value="" style="edgeStyle=none;orthogonalLoop=1;jettySize=auto;html=1;rounded=0;endArrow=none;endFill=0;shape=link;" parent="hj5V9L2vQso6mufphsfm-52" edge="1">
                    <mxGeometry width="80" relative="1" as="geometry">
                        <mxPoint x="60" y="40" as="sourcePoint"/>
                        <mxPoint x="40" y="40" as="targetPoint"/>
                        <Array as="points"/>
                    </mxGeometry>
                </mxCell>
                <mxCell id="hj5V9L2vQso6mufphsfm-56" value="" style="edgeStyle=none;orthogonalLoop=1;jettySize=auto;html=1;rounded=0;endArrow=none;endFill=0;shape=link;" parent="hj5V9L2vQso6mufphsfm-52" edge="1">
                    <mxGeometry width="80" relative="1" as="geometry">
                        <mxPoint x="20" y="20" as="sourcePoint"/>
                        <mxPoint y="20" as="targetPoint"/>
                        <Array as="points"/>
                    </mxGeometry>
                </mxCell>
                <mxCell id="hj5V9L2vQso6mufphsfm-57" value="" style="edgeStyle=none;orthogonalLoop=1;jettySize=auto;html=1;rounded=0;endArrow=none;endFill=0;shape=link;entryX=0.5;entryY=1;entryDx=0;entryDy=0;" parent="hj5V9L2vQso6mufphsfm-52" target="hj5V9L2vQso6mufphsfm-63" edge="1">
                    <mxGeometry width="80" relative="1" as="geometry">
                        <mxPoint x="20" y="60" as="sourcePoint"/>
                        <mxPoint y="60" as="targetPoint"/>
                        <Array as="points"/>
                    </mxGeometry>
                </mxCell>
                <mxCell id="hj5V9L2vQso6mufphsfm-58" value="" style="edgeStyle=none;orthogonalLoop=1;jettySize=auto;html=1;rounded=0;endArrow=none;endFill=0;" parent="hj5V9L2vQso6mufphsfm-52" edge="1">
                    <mxGeometry width="80" relative="1" as="geometry">
                        <mxPoint x="40" y="20" as="sourcePoint"/>
                        <mxPoint x="20" as="targetPoint"/>
                        <Array as="points"/>
                    </mxGeometry>
                </mxCell>
                <mxCell id="hj5V9L2vQso6mufphsfm-59" value="" style="edgeStyle=none;orthogonalLoop=1;jettySize=auto;html=1;rounded=0;endArrow=none;endFill=0;" parent="hj5V9L2vQso6mufphsfm-52" edge="1">
                    <mxGeometry width="80" relative="1" as="geometry">
                        <mxPoint x="40" y="60" as="sourcePoint"/>
                        <mxPoint x="20" y="80" as="targetPoint"/>
                        <Array as="points"/>
                    </mxGeometry>
                </mxCell>
                <mxCell id="hj5V9L2vQso6mufphsfm-60" value="" style="edgeStyle=none;orthogonalLoop=1;jettySize=auto;html=1;rounded=0;endArrow=none;endFill=0;" parent="hj5V9L2vQso6mufphsfm-52" edge="1">
                    <mxGeometry width="80" relative="1" as="geometry">
                        <mxPoint x="30" y="79.99999999999989" as="sourcePoint"/>
                        <mxPoint x="30" y="70" as="targetPoint"/>
                        <Array as="points"/>
                    </mxGeometry>
                </mxCell>
                <mxCell id="hj5V9L2vQso6mufphsfm-61" value="0" style="text;strokeColor=none;align=center;fillColor=none;html=1;verticalAlign=middle;whiteSpace=wrap;rounded=0;" parent="hj5V9L2vQso6mufphsfm-52" vertex="1">
                    <mxGeometry x="24" y="10" width="10" height="20" as="geometry"/>
                </mxCell>
                <mxCell id="hj5V9L2vQso6mufphsfm-62" value="1" style="text;strokeColor=none;align=center;fillColor=none;html=1;verticalAlign=middle;whiteSpace=wrap;rounded=0;" parent="hj5V9L2vQso6mufphsfm-52" vertex="1">
                    <mxGeometry x="24" y="50" width="10" height="20" as="geometry"/>
                </mxCell>
                <mxCell id="hj5V9L2vQso6mufphsfm-582" value="TCK" style="text;strokeColor=none;align=center;fillColor=none;html=1;verticalAlign=middle;whiteSpace=wrap;rounded=0;" parent="hj5V9L2vQso6mufphsfm-1" vertex="1">
                    <mxGeometry x="-60" y="56" width="30" height="20" as="geometry"/>
                </mxCell>
                <mxCell id="hj5V9L2vQso6mufphsfm-583" style="edgeStyle=orthogonalEdgeStyle;rounded=0;orthogonalLoop=1;jettySize=auto;html=1;exitX=1;exitY=0.5;exitDx=0;exitDy=0;entryX=0;entryY=0.75;entryDx=0;entryDy=0;fillColor=#008a00;strokeColor=#00FF00;" parent="hj5V9L2vQso6mufphsfm-1" source="hj5V9L2vQso6mufphsfm-582" target="hj5V9L2vQso6mufphsfm-6" edge="1">
                    <mxGeometry relative="1" as="geometry"/>
                </mxCell>
                <mxCell id="hj5V9L2vQso6mufphsfm-604" value="ShiftDR" style="text;strokeColor=none;align=center;fillColor=none;html=1;verticalAlign=middle;whiteSpace=wrap;rounded=0;" parent="hj5V9L2vQso6mufphsfm-1" vertex="1">
                    <mxGeometry x="-110" y="64" width="40" height="20" as="geometry"/>
                </mxCell>
                <mxCell id="hj5V9L2vQso6mufphsfm-13" value="" style="verticalLabelPosition=bottom;shadow=0;dashed=0;align=center;html=1;verticalAlign=top;shape=mxgraph.electrical.logic_gates.d_type_flip-flop;" parent="1" vertex="1">
                    <mxGeometry x="10" y="329" width="100" height="80" as="geometry"/>
                </mxCell>
                <mxCell id="hj5V9L2vQso6mufphsfm-14" value="" style="group;connectable=1;" parent="1" vertex="1" connectable="0">
                    <mxGeometry x="-80" y="309" width="60" height="80" as="geometry"/>
                </mxCell>
                <mxCell id="hj5V9L2vQso6mufphsfm-15" value="" style="edgeStyle=none;orthogonalLoop=1;jettySize=auto;html=1;rounded=0;endArrow=none;endFill=0;" parent="hj5V9L2vQso6mufphsfm-14" edge="1">
                    <mxGeometry width="80" relative="1" as="geometry">
                        <mxPoint x="20" y="80" as="sourcePoint"/>
                        <mxPoint x="20" as="targetPoint"/>
                        <Array as="points"/>
                    </mxGeometry>
                </mxCell>
                <mxCell id="hj5V9L2vQso6mufphsfm-16" value="" style="edgeStyle=none;orthogonalLoop=1;jettySize=auto;html=1;rounded=0;endArrow=none;endFill=0;" parent="hj5V9L2vQso6mufphsfm-14" edge="1">
                    <mxGeometry width="80" relative="1" as="geometry">
                        <mxPoint x="40" y="60" as="sourcePoint"/>
                        <mxPoint x="40" y="20" as="targetPoint"/>
                        <Array as="points"/>
                    </mxGeometry>
                </mxCell>
                <mxCell id="hj5V9L2vQso6mufphsfm-17" value="" style="edgeStyle=none;orthogonalLoop=1;jettySize=auto;html=1;rounded=0;endArrow=none;endFill=0;" parent="hj5V9L2vQso6mufphsfm-14" edge="1">
                    <mxGeometry width="80" relative="1" as="geometry">
                        <mxPoint x="60" y="40" as="sourcePoint"/>
                        <mxPoint x="40" y="40" as="targetPoint"/>
                        <Array as="points"/>
                    </mxGeometry>
                </mxCell>
                <mxCell id="hj5V9L2vQso6mufphsfm-18" value="" style="edgeStyle=none;orthogonalLoop=1;jettySize=auto;html=1;rounded=0;endArrow=none;endFill=0;" parent="hj5V9L2vQso6mufphsfm-14" edge="1">
                    <mxGeometry width="80" relative="1" as="geometry">
                        <mxPoint x="20" y="20" as="sourcePoint"/>
                        <mxPoint y="20" as="targetPoint"/>
                        <Array as="points"/>
                    </mxGeometry>
                </mxCell>
                <mxCell id="hj5V9L2vQso6mufphsfm-19" value="" style="edgeStyle=none;orthogonalLoop=1;jettySize=auto;html=1;rounded=0;endArrow=none;endFill=0;" parent="hj5V9L2vQso6mufphsfm-14" edge="1">
                    <mxGeometry width="80" relative="1" as="geometry">
                        <mxPoint x="20" y="60" as="sourcePoint"/>
                        <mxPoint y="60" as="targetPoint"/>
                        <Array as="points"/>
                    </mxGeometry>
                </mxCell>
                <mxCell id="hj5V9L2vQso6mufphsfm-20" value="" style="edgeStyle=none;orthogonalLoop=1;jettySize=auto;html=1;rounded=0;endArrow=none;endFill=0;" parent="hj5V9L2vQso6mufphsfm-14" edge="1">
                    <mxGeometry width="80" relative="1" as="geometry">
                        <mxPoint x="40" y="20" as="sourcePoint"/>
                        <mxPoint x="20" as="targetPoint"/>
                        <Array as="points"/>
                    </mxGeometry>
                </mxCell>
                <mxCell id="hj5V9L2vQso6mufphsfm-21" value="" style="edgeStyle=none;orthogonalLoop=1;jettySize=auto;html=1;rounded=0;endArrow=none;endFill=0;" parent="hj5V9L2vQso6mufphsfm-14" edge="1">
                    <mxGeometry width="80" relative="1" as="geometry">
                        <mxPoint x="40" y="60" as="sourcePoint"/>
                        <mxPoint x="20" y="80" as="targetPoint"/>
                        <Array as="points"/>
                    </mxGeometry>
                </mxCell>
                <mxCell id="hj5V9L2vQso6mufphsfm-22" value="" style="edgeStyle=none;orthogonalLoop=1;jettySize=auto;html=1;rounded=0;endArrow=none;endFill=0;" parent="hj5V9L2vQso6mufphsfm-14" edge="1">
                    <mxGeometry width="80" relative="1" as="geometry">
                        <mxPoint x="30" y="79.99999999999989" as="sourcePoint"/>
                        <mxPoint x="30" y="70" as="targetPoint"/>
                        <Array as="points"/>
                    </mxGeometry>
                </mxCell>
                <mxCell id="hj5V9L2vQso6mufphsfm-23" value="0" style="text;strokeColor=none;align=center;fillColor=none;html=1;verticalAlign=middle;whiteSpace=wrap;rounded=0;" parent="hj5V9L2vQso6mufphsfm-14" vertex="1">
                    <mxGeometry x="24" y="10" width="10" height="20" as="geometry"/>
                </mxCell>
                <mxCell id="hj5V9L2vQso6mufphsfm-24" value="1" style="text;strokeColor=none;align=center;fillColor=none;html=1;verticalAlign=middle;whiteSpace=wrap;rounded=0;" parent="hj5V9L2vQso6mufphsfm-14" vertex="1">
                    <mxGeometry x="24" y="50" width="10" height="20" as="geometry"/>
                </mxCell>
                <mxCell id="hj5V9L2vQso6mufphsfm-27" style="edgeStyle=orthogonalEdgeStyle;rounded=0;orthogonalLoop=1;jettySize=auto;html=1;exitX=0;exitY=0.25;exitDx=0;exitDy=0;endArrow=none;endFill=0;entryX=0.5;entryY=0;entryDx=0;entryDy=0;entryPerimeter=0;" parent="1" source="hj5V9L2vQso6mufphsfm-14" target="hj5V9L2vQso6mufphsfm-28" edge="1">
                    <mxGeometry relative="1" as="geometry">
                        <mxPoint x="-106" y="339" as="targetPoint"/>
                    </mxGeometry>
                </mxCell>
                <mxCell id="hj5V9L2vQso6mufphsfm-28" value="" style="pointerEvents=1;verticalLabelPosition=bottom;shadow=0;dashed=0;align=center;html=1;verticalAlign=top;shape=mxgraph.electrical.signal_sources.signal_ground;" parent="1" vertex="1">
                    <mxGeometry x="-100.62" y="341.5" width="20" height="15" as="geometry"/>
                </mxCell>
                <mxCell id="hj5V9L2vQso6mufphsfm-40" style="edgeStyle=orthogonalEdgeStyle;rounded=0;orthogonalLoop=1;jettySize=auto;html=1;entryX=0;entryY=0.5;entryDx=0;entryDy=0;endArrow=none;endFill=0;shape=link;" parent="1" target="hj5V9L2vQso6mufphsfm-9" edge="1">
                    <mxGeometry relative="1" as="geometry">
                        <mxPoint y="499" as="sourcePoint"/>
                        <Array as="points">
                            <mxPoint x="10" y="499"/>
                            <mxPoint x="10" y="499"/>
                        </Array>
                    </mxGeometry>
                </mxCell>
                <mxCell id="hj5V9L2vQso6mufphsfm-63" value="" style="whiteSpace=wrap;html=1;rotation=-90;" parent="1" vertex="1">
                    <mxGeometry x="-100.62" y="514.13" width="31.25" height="10" as="geometry"/>
                </mxCell>
                <mxCell id="hj5V9L2vQso6mufphsfm-66" style="edgeStyle=orthogonalEdgeStyle;rounded=0;orthogonalLoop=1;jettySize=auto;html=1;exitX=0.75;exitY=0;exitDx=0;exitDy=0;entryX=0.75;entryY=1;entryDx=0;entryDy=0;endArrow=none;endFill=0;" parent="1" source="hj5V9L2vQso6mufphsfm-63" target="hj5V9L2vQso6mufphsfm-63" edge="1">
                    <mxGeometry relative="1" as="geometry"/>
                </mxCell>
                <mxCell id="hj5V9L2vQso6mufphsfm-67" style="edgeStyle=orthogonalEdgeStyle;rounded=0;orthogonalLoop=1;jettySize=auto;html=1;exitX=0.5;exitY=0;exitDx=0;exitDy=0;entryX=0.5;entryY=1;entryDx=0;entryDy=0;endArrow=none;endFill=0;" parent="1" source="hj5V9L2vQso6mufphsfm-63" target="hj5V9L2vQso6mufphsfm-63" edge="1">
                    <mxGeometry relative="1" as="geometry"/>
                </mxCell>
                <mxCell id="hj5V9L2vQso6mufphsfm-68" style="edgeStyle=orthogonalEdgeStyle;rounded=0;orthogonalLoop=1;jettySize=auto;html=1;exitX=0.25;exitY=0;exitDx=0;exitDy=0;entryX=0.25;entryY=1;entryDx=0;entryDy=0;endArrow=none;endFill=0;" parent="1" source="hj5V9L2vQso6mufphsfm-63" target="hj5V9L2vQso6mufphsfm-63" edge="1">
                    <mxGeometry relative="1" as="geometry"/>
                </mxCell>
                <mxCell id="hj5V9L2vQso6mufphsfm-72" value="" style="edgeStyle=orthogonalEdgeStyle;rounded=0;orthogonalLoop=1;jettySize=auto;html=1;entryX=0.25;entryY=0;entryDx=0;entryDy=0;shape=flexArrow;exitX=1;exitY=0.5;exitDx=0;exitDy=0;endArrow=block;endFill=0;width=4;fillColor=default;endWidth=7.244897959183673;endSize=2.630612244897959;" parent="1" source="hj5V9L2vQso6mufphsfm-10" target="hj5V9L2vQso6mufphsfm-63" edge="1">
                    <mxGeometry relative="1" as="geometry">
                        <mxPoint x="70" y="499" as="sourcePoint"/>
                        <mxPoint x="-90" y="527" as="targetPoint"/>
                        <Array as="points">
                            <mxPoint x="150" y="499"/>
                            <mxPoint x="150" y="569"/>
                            <mxPoint x="-120" y="569"/>
                            <mxPoint x="-120" y="527"/>
                        </Array>
                    </mxGeometry>
                </mxCell>
                <mxCell id="hj5V9L2vQso6mufphsfm-74" value="" style="group;" parent="1" vertex="1" connectable="0">
                    <mxGeometry x="-206" y="883" width="66" height="86" as="geometry"/>
                </mxCell>
                <mxCell id="hj5V9L2vQso6mufphsfm-75" value="" style="whiteSpace=wrap;html=1;container=0;" parent="hj5V9L2vQso6mufphsfm-74" vertex="1">
                    <mxGeometry x="6" width="60" height="80" as="geometry"/>
                </mxCell>
                <mxCell id="hj5V9L2vQso6mufphsfm-76" value="" style="whiteSpace=wrap;html=1;container=0;" parent="hj5V9L2vQso6mufphsfm-74" vertex="1">
                    <mxGeometry x="4" y="2" width="60" height="80" as="geometry"/>
                </mxCell>
                <mxCell id="hj5V9L2vQso6mufphsfm-77" value="" style="whiteSpace=wrap;html=1;container=0;" parent="hj5V9L2vQso6mufphsfm-74" vertex="1">
                    <mxGeometry x="2" y="4" width="60" height="80" as="geometry"/>
                </mxCell>
                <mxCell id="hj5V9L2vQso6mufphsfm-78" value="" style="whiteSpace=wrap;html=1;container=0;" parent="hj5V9L2vQso6mufphsfm-74" vertex="1">
                    <mxGeometry y="6" width="60" height="80" as="geometry"/>
                </mxCell>
                <mxCell id="hj5V9L2vQso6mufphsfm-79" value="" style="whiteSpace=wrap;html=1;container=0;" parent="hj5V9L2vQso6mufphsfm-74" vertex="1">
                    <mxGeometry y="6" width="60" height="80" as="geometry"/>
                </mxCell>
                <mxCell id="hj5V9L2vQso6mufphsfm-80" value="" style="edgeStyle=none;orthogonalLoop=1;jettySize=auto;html=1;rounded=0;exitX=-0.001;exitY=0.645;exitDx=0;exitDy=0;exitPerimeter=0;entryX=0.296;entryY=0.752;entryDx=0;entryDy=0;entryPerimeter=0;endArrow=none;endFill=0;" parent="hj5V9L2vQso6mufphsfm-74" edge="1">
                    <mxGeometry width="80" relative="1" as="geometry">
                        <mxPoint y="61" as="sourcePoint"/>
                        <mxPoint x="9.600000000000023" y="65.56000000000006" as="targetPoint"/>
                        <Array as="points"/>
                    </mxGeometry>
                </mxCell>
                <mxCell id="hj5V9L2vQso6mufphsfm-81" value="" style="edgeStyle=none;orthogonalLoop=1;jettySize=auto;html=1;rounded=0;exitX=-0.001;exitY=0.645;exitDx=0;exitDy=0;exitPerimeter=0;entryX=0.025;entryY=0.801;entryDx=0;entryDy=0;entryPerimeter=0;endArrow=none;endFill=0;" parent="hj5V9L2vQso6mufphsfm-74" edge="1">
                    <mxGeometry width="80" relative="1" as="geometry">
                        <mxPoint y="70.39999999999998" as="sourcePoint"/>
                        <mxPoint x="9.5" y="65.48000000000002" as="targetPoint"/>
                        <Array as="points"/>
                    </mxGeometry>
                </mxCell>
                <mxCell id="hj5V9L2vQso6mufphsfm-82" value="D" style="text;strokeColor=none;align=center;fillColor=none;html=1;verticalAlign=middle;whiteSpace=wrap;rounded=0;container=0;" parent="hj5V9L2vQso6mufphsfm-74" vertex="1">
                    <mxGeometry y="20" width="14" height="12" as="geometry"/>
                </mxCell>
                <mxCell id="hj5V9L2vQso6mufphsfm-84" value="Q" style="text;strokeColor=none;align=center;fillColor=none;html=1;verticalAlign=middle;whiteSpace=wrap;rounded=0;container=0;" parent="hj5V9L2vQso6mufphsfm-74" vertex="1">
                    <mxGeometry x="46" y="20" width="14" height="12" as="geometry"/>
                </mxCell>
                <mxCell id="hj5V9L2vQso6mufphsfm-85" value="Q" style="text;strokeColor=none;align=center;fillColor=none;html=1;verticalAlign=middle;whiteSpace=wrap;rounded=0;container=0;" parent="hj5V9L2vQso6mufphsfm-74" vertex="1">
                    <mxGeometry x="46" y="60" width="14" height="12" as="geometry"/>
                </mxCell>
                <mxCell id="hj5V9L2vQso6mufphsfm-86" value="" style="edgeStyle=none;orthogonalLoop=1;jettySize=auto;html=1;rounded=0;entryX=0.75;entryY=0;entryDx=0;entryDy=0;endArrow=none;endFill=0;exitX=0.25;exitY=0;exitDx=0;exitDy=0;" parent="hj5V9L2vQso6mufphsfm-74" source="hj5V9L2vQso6mufphsfm-85" target="hj5V9L2vQso6mufphsfm-85" edge="1">
                    <mxGeometry width="80" relative="1" as="geometry">
                        <mxPoint x="-78" y="2" as="sourcePoint"/>
                        <mxPoint x="-48" y="-28" as="targetPoint"/>
                        <Array as="points"/>
                    </mxGeometry>
                </mxCell>
                <mxCell id="hj5V9L2vQso6mufphsfm-87" style="edgeStyle=orthogonalEdgeStyle;rounded=0;orthogonalLoop=1;jettySize=auto;html=1;exitX=1;exitY=0.5;exitDx=0;exitDy=0;entryX=0;entryY=0.5;entryDx=0;entryDy=0;endArrow=none;endFill=0;shape=link;" parent="1" target="hj5V9L2vQso6mufphsfm-82" edge="1">
                    <mxGeometry relative="1" as="geometry">
                        <mxPoint x="-226" y="909" as="sourcePoint"/>
                    </mxGeometry>
                </mxCell>
                <mxCell id="hj5V9L2vQso6mufphsfm-88" value="" style="group;connectable=1;" parent="1" vertex="1" connectable="0">
                    <mxGeometry x="-286" y="869" width="60" height="80" as="geometry"/>
                </mxCell>
                <mxCell id="hj5V9L2vQso6mufphsfm-89" value="" style="edgeStyle=none;orthogonalLoop=1;jettySize=auto;html=1;rounded=0;endArrow=none;endFill=0;" parent="hj5V9L2vQso6mufphsfm-88" edge="1">
                    <mxGeometry width="80" relative="1" as="geometry">
                        <mxPoint x="20" y="80" as="sourcePoint"/>
                        <mxPoint x="20" as="targetPoint"/>
                        <Array as="points"/>
                    </mxGeometry>
                </mxCell>
                <mxCell id="hj5V9L2vQso6mufphsfm-90" value="" style="edgeStyle=none;orthogonalLoop=1;jettySize=auto;html=1;rounded=0;endArrow=none;endFill=0;" parent="hj5V9L2vQso6mufphsfm-88" edge="1">
                    <mxGeometry width="80" relative="1" as="geometry">
                        <mxPoint x="40" y="60" as="sourcePoint"/>
                        <mxPoint x="40" y="20" as="targetPoint"/>
                        <Array as="points"/>
                    </mxGeometry>
                </mxCell>
                <mxCell id="hj5V9L2vQso6mufphsfm-91" value="" style="edgeStyle=none;orthogonalLoop=1;jettySize=auto;html=1;rounded=0;endArrow=none;endFill=0;shape=link;" parent="hj5V9L2vQso6mufphsfm-88" edge="1">
                    <mxGeometry width="80" relative="1" as="geometry">
                        <mxPoint x="60" y="40" as="sourcePoint"/>
                        <mxPoint x="40" y="40" as="targetPoint"/>
                        <Array as="points"/>
                    </mxGeometry>
                </mxCell>
                <mxCell id="hj5V9L2vQso6mufphsfm-92" value="" style="edgeStyle=none;orthogonalLoop=1;jettySize=auto;html=1;rounded=0;endArrow=none;endFill=0;shape=link;" parent="hj5V9L2vQso6mufphsfm-88" edge="1">
                    <mxGeometry width="80" relative="1" as="geometry">
                        <mxPoint x="20" y="20" as="sourcePoint"/>
                        <mxPoint y="20" as="targetPoint"/>
                        <Array as="points"/>
                    </mxGeometry>
                </mxCell>
                <mxCell id="hj5V9L2vQso6mufphsfm-93" value="" style="edgeStyle=none;orthogonalLoop=1;jettySize=auto;html=1;rounded=0;endArrow=none;endFill=0;shape=link;" parent="hj5V9L2vQso6mufphsfm-88" edge="1">
                    <mxGeometry width="80" relative="1" as="geometry">
                        <mxPoint x="20" y="60" as="sourcePoint"/>
                        <mxPoint y="60" as="targetPoint"/>
                        <Array as="points"/>
                    </mxGeometry>
                </mxCell>
                <mxCell id="hj5V9L2vQso6mufphsfm-94" value="" style="edgeStyle=none;orthogonalLoop=1;jettySize=auto;html=1;rounded=0;endArrow=none;endFill=0;" parent="hj5V9L2vQso6mufphsfm-88" edge="1">
                    <mxGeometry width="80" relative="1" as="geometry">
                        <mxPoint x="40" y="20" as="sourcePoint"/>
                        <mxPoint x="20" as="targetPoint"/>
                        <Array as="points"/>
                    </mxGeometry>
                </mxCell>
                <mxCell id="hj5V9L2vQso6mufphsfm-95" value="" style="edgeStyle=none;orthogonalLoop=1;jettySize=auto;html=1;rounded=0;endArrow=none;endFill=0;" parent="hj5V9L2vQso6mufphsfm-88" edge="1">
                    <mxGeometry width="80" relative="1" as="geometry">
                        <mxPoint x="40" y="60" as="sourcePoint"/>
                        <mxPoint x="20" y="80" as="targetPoint"/>
                        <Array as="points"/>
                    </mxGeometry>
                </mxCell>
                <mxCell id="hj5V9L2vQso6mufphsfm-96" value="" style="edgeStyle=none;orthogonalLoop=1;jettySize=auto;html=1;rounded=0;endArrow=none;endFill=0;" parent="hj5V9L2vQso6mufphsfm-88" edge="1">
                    <mxGeometry width="80" relative="1" as="geometry">
                        <mxPoint x="30" y="79.99999999999989" as="sourcePoint"/>
                        <mxPoint x="30" y="70" as="targetPoint"/>
                        <Array as="points"/>
                    </mxGeometry>
                </mxCell>
                <mxCell id="hj5V9L2vQso6mufphsfm-97" value="0" style="text;strokeColor=none;align=center;fillColor=none;html=1;verticalAlign=middle;whiteSpace=wrap;rounded=0;" parent="hj5V9L2vQso6mufphsfm-88" vertex="1">
                    <mxGeometry x="24" y="10" width="10" height="20" as="geometry"/>
                </mxCell>
                <mxCell id="hj5V9L2vQso6mufphsfm-98" value="1" style="text;strokeColor=none;align=center;fillColor=none;html=1;verticalAlign=middle;whiteSpace=wrap;rounded=0;" parent="hj5V9L2vQso6mufphsfm-88" vertex="1">
                    <mxGeometry x="24" y="50" width="10" height="20" as="geometry"/>
                </mxCell>
                <mxCell id="hj5V9L2vQso6mufphsfm-100" value="" style="whiteSpace=wrap;html=1;rotation=-90;" parent="1" vertex="1">
                    <mxGeometry x="-306.62" y="924.13" width="31.25" height="10" as="geometry"/>
                </mxCell>
                <mxCell id="hj5V9L2vQso6mufphsfm-101" style="edgeStyle=orthogonalEdgeStyle;rounded=0;orthogonalLoop=1;jettySize=auto;html=1;exitX=0.75;exitY=0;exitDx=0;exitDy=0;entryX=0.75;entryY=1;entryDx=0;entryDy=0;endArrow=none;endFill=0;" parent="1" source="hj5V9L2vQso6mufphsfm-100" target="hj5V9L2vQso6mufphsfm-100" edge="1">
                    <mxGeometry relative="1" as="geometry"/>
                </mxCell>
                <mxCell id="hj5V9L2vQso6mufphsfm-102" style="edgeStyle=orthogonalEdgeStyle;rounded=0;orthogonalLoop=1;jettySize=auto;html=1;exitX=0.5;exitY=0;exitDx=0;exitDy=0;entryX=0.5;entryY=1;entryDx=0;entryDy=0;endArrow=none;endFill=0;" parent="1" source="hj5V9L2vQso6mufphsfm-100" target="hj5V9L2vQso6mufphsfm-100" edge="1">
                    <mxGeometry relative="1" as="geometry"/>
                </mxCell>
                <mxCell id="hj5V9L2vQso6mufphsfm-103" style="edgeStyle=orthogonalEdgeStyle;rounded=0;orthogonalLoop=1;jettySize=auto;html=1;exitX=0.25;exitY=0;exitDx=0;exitDy=0;entryX=0.25;entryY=1;entryDx=0;entryDy=0;endArrow=none;endFill=0;" parent="1" source="hj5V9L2vQso6mufphsfm-100" target="hj5V9L2vQso6mufphsfm-100" edge="1">
                    <mxGeometry relative="1" as="geometry"/>
                </mxCell>
                <mxCell id="hj5V9L2vQso6mufphsfm-105" value="" style="group;" parent="1" vertex="1" connectable="0">
                    <mxGeometry x="-96" y="883" width="66" height="86" as="geometry"/>
                </mxCell>
                <mxCell id="hj5V9L2vQso6mufphsfm-106" value="" style="whiteSpace=wrap;html=1;container=0;" parent="hj5V9L2vQso6mufphsfm-105" vertex="1">
                    <mxGeometry x="6" width="60" height="80" as="geometry"/>
                </mxCell>
                <mxCell id="hj5V9L2vQso6mufphsfm-107" value="" style="whiteSpace=wrap;html=1;container=0;" parent="hj5V9L2vQso6mufphsfm-105" vertex="1">
                    <mxGeometry x="4" y="1.9999999999999998" width="60" height="80" as="geometry"/>
                </mxCell>
                <mxCell id="hj5V9L2vQso6mufphsfm-108" value="" style="whiteSpace=wrap;html=1;container=0;" parent="hj5V9L2vQso6mufphsfm-105" vertex="1">
                    <mxGeometry x="2" y="3.9999999999999996" width="60" height="80" as="geometry"/>
                </mxCell>
                <mxCell id="hj5V9L2vQso6mufphsfm-109" value="" style="whiteSpace=wrap;html=1;container=0;" parent="hj5V9L2vQso6mufphsfm-105" vertex="1">
                    <mxGeometry y="6" width="60" height="80" as="geometry"/>
                </mxCell>
                <mxCell id="hj5V9L2vQso6mufphsfm-110" value="" style="whiteSpace=wrap;html=1;container=0;" parent="hj5V9L2vQso6mufphsfm-105" vertex="1">
                    <mxGeometry y="6" width="60" height="80" as="geometry"/>
                </mxCell>
                <mxCell id="hj5V9L2vQso6mufphsfm-111" value="" style="edgeStyle=none;orthogonalLoop=1;jettySize=auto;html=1;rounded=0;exitX=-0.001;exitY=0.645;exitDx=0;exitDy=0;exitPerimeter=0;entryX=0.296;entryY=0.752;entryDx=0;entryDy=0;entryPerimeter=0;endArrow=none;endFill=0;" parent="hj5V9L2vQso6mufphsfm-105" edge="1">
                    <mxGeometry width="80" relative="1" as="geometry">
                        <mxPoint y="60.99999999999999" as="sourcePoint"/>
                        <mxPoint x="9.600000000000023" y="65.56000000000006" as="targetPoint"/>
                        <Array as="points"/>
                    </mxGeometry>
                </mxCell>
                <mxCell id="hj5V9L2vQso6mufphsfm-112" value="" style="edgeStyle=none;orthogonalLoop=1;jettySize=auto;html=1;rounded=0;exitX=-0.001;exitY=0.645;exitDx=0;exitDy=0;exitPerimeter=0;entryX=0.025;entryY=0.801;entryDx=0;entryDy=0;entryPerimeter=0;endArrow=none;endFill=0;" parent="hj5V9L2vQso6mufphsfm-105" edge="1">
                    <mxGeometry width="80" relative="1" as="geometry">
                        <mxPoint y="70.39999999999998" as="sourcePoint"/>
                        <mxPoint x="9.5" y="65.48000000000002" as="targetPoint"/>
                        <Array as="points"/>
                    </mxGeometry>
                </mxCell>
                <mxCell id="hj5V9L2vQso6mufphsfm-113" value="D" style="text;strokeColor=none;align=center;fillColor=none;html=1;verticalAlign=middle;whiteSpace=wrap;rounded=0;container=0;" parent="hj5V9L2vQso6mufphsfm-105" vertex="1">
                    <mxGeometry y="20" width="14" height="12" as="geometry"/>
                </mxCell>
                <mxCell id="hj5V9L2vQso6mufphsfm-114" value="Q" style="text;strokeColor=none;align=center;fillColor=none;html=1;verticalAlign=middle;whiteSpace=wrap;rounded=0;container=0;" parent="hj5V9L2vQso6mufphsfm-105" vertex="1">
                    <mxGeometry x="46" y="20" width="14" height="12" as="geometry"/>
                </mxCell>
                <mxCell id="hj5V9L2vQso6mufphsfm-115" value="Q" style="text;strokeColor=none;align=center;fillColor=none;html=1;verticalAlign=middle;whiteSpace=wrap;rounded=0;container=0;" parent="hj5V9L2vQso6mufphsfm-105" vertex="1">
                    <mxGeometry x="46" y="60" width="14" height="12" as="geometry"/>
                </mxCell>
                <mxCell id="hj5V9L2vQso6mufphsfm-116" value="" style="edgeStyle=none;orthogonalLoop=1;jettySize=auto;html=1;rounded=0;entryX=0.75;entryY=0;entryDx=0;entryDy=0;endArrow=none;endFill=0;exitX=0.25;exitY=0;exitDx=0;exitDy=0;" parent="hj5V9L2vQso6mufphsfm-105" source="hj5V9L2vQso6mufphsfm-115" target="hj5V9L2vQso6mufphsfm-115" edge="1">
                    <mxGeometry width="80" relative="1" as="geometry">
                        <mxPoint x="-78" y="1.9999999999999998" as="sourcePoint"/>
                        <mxPoint x="-48" y="-28" as="targetPoint"/>
                        <Array as="points"/>
                    </mxGeometry>
                </mxCell>
                <mxCell id="hj5V9L2vQso6mufphsfm-573" value="EN" style="text;strokeColor=none;align=center;fillColor=none;html=1;verticalAlign=middle;whiteSpace=wrap;rounded=0;" parent="hj5V9L2vQso6mufphsfm-105" vertex="1">
                    <mxGeometry x="20" y="76" width="20" height="10" as="geometry"/>
                </mxCell>
                <mxCell id="hj5V9L2vQso6mufphsfm-118" style="edgeStyle=orthogonalEdgeStyle;rounded=0;orthogonalLoop=1;jettySize=auto;html=1;entryX=0.25;entryY=0;entryDx=0;entryDy=0;shape=flexArrow;endArrow=block;endFill=0;width=4;fillColor=default;endWidth=7.792207792207792;endSize=2.644155844155844;" parent="1" target="hj5V9L2vQso6mufphsfm-100" edge="1">
                    <mxGeometry relative="1" as="geometry">
                        <mxPoint x="-140" y="909" as="sourcePoint"/>
                        <mxPoint x="-305.9849999999999" y="936.9425000000001" as="targetPoint"/>
                        <Array as="points">
                            <mxPoint x="-130" y="909"/>
                            <mxPoint x="-130" y="999"/>
                            <mxPoint x="-330" y="999"/>
                            <mxPoint x="-330" y="937"/>
                        </Array>
                    </mxGeometry>
                </mxCell>
                <mxCell id="hj5V9L2vQso6mufphsfm-119" style="edgeStyle=orthogonalEdgeStyle;rounded=0;orthogonalLoop=1;jettySize=auto;html=1;exitX=1;exitY=0.5;exitDx=0;exitDy=0;shape=flexArrow;endArrow=none;endFill=0;width=4;entryX=0;entryY=0.5;entryDx=0;entryDy=0;fillColor=default;" parent="1" source="hj5V9L2vQso6mufphsfm-84" target="hj5V9L2vQso6mufphsfm-113" edge="1">
                    <mxGeometry relative="1" as="geometry">
                        <mxPoint x="-106" y="909" as="targetPoint"/>
                    </mxGeometry>
                </mxCell>
                <mxCell id="hj5V9L2vQso6mufphsfm-122" value="" style="group;" parent="1" vertex="1" connectable="0">
                    <mxGeometry x="-70" y="633" width="66" height="86" as="geometry"/>
                </mxCell>
                <mxCell id="hj5V9L2vQso6mufphsfm-123" value="" style="whiteSpace=wrap;html=1;container=0;" parent="hj5V9L2vQso6mufphsfm-122" vertex="1">
                    <mxGeometry x="6" width="60" height="80" as="geometry"/>
                </mxCell>
                <mxCell id="hj5V9L2vQso6mufphsfm-124" value="" style="whiteSpace=wrap;html=1;container=0;" parent="hj5V9L2vQso6mufphsfm-122" vertex="1">
                    <mxGeometry x="4" y="2" width="60" height="80" as="geometry"/>
                </mxCell>
                <mxCell id="hj5V9L2vQso6mufphsfm-125" value="" style="whiteSpace=wrap;html=1;container=0;" parent="hj5V9L2vQso6mufphsfm-122" vertex="1">
                    <mxGeometry x="2" y="4" width="60" height="80" as="geometry"/>
                </mxCell>
                <mxCell id="hj5V9L2vQso6mufphsfm-126" value="" style="whiteSpace=wrap;html=1;container=0;" parent="hj5V9L2vQso6mufphsfm-122" vertex="1">
                    <mxGeometry y="6" width="60" height="80" as="geometry"/>
                </mxCell>
                <mxCell id="hj5V9L2vQso6mufphsfm-127" value="" style="whiteSpace=wrap;html=1;container=0;" parent="hj5V9L2vQso6mufphsfm-122" vertex="1">
                    <mxGeometry y="6" width="60" height="80" as="geometry"/>
                </mxCell>
                <mxCell id="hj5V9L2vQso6mufphsfm-128" value="" style="edgeStyle=none;orthogonalLoop=1;jettySize=auto;html=1;rounded=0;exitX=-0.001;exitY=0.645;exitDx=0;exitDy=0;exitPerimeter=0;entryX=0.296;entryY=0.752;entryDx=0;entryDy=0;entryPerimeter=0;endArrow=none;endFill=0;" parent="hj5V9L2vQso6mufphsfm-122" edge="1">
                    <mxGeometry width="80" relative="1" as="geometry">
                        <mxPoint y="61" as="sourcePoint"/>
                        <mxPoint x="9.600000000000023" y="65.56000000000006" as="targetPoint"/>
                        <Array as="points"/>
                    </mxGeometry>
                </mxCell>
                <mxCell id="hj5V9L2vQso6mufphsfm-129" value="" style="edgeStyle=none;orthogonalLoop=1;jettySize=auto;html=1;rounded=0;exitX=-0.001;exitY=0.645;exitDx=0;exitDy=0;exitPerimeter=0;entryX=0.025;entryY=0.801;entryDx=0;entryDy=0;entryPerimeter=0;endArrow=none;endFill=0;" parent="hj5V9L2vQso6mufphsfm-122" edge="1">
                    <mxGeometry width="80" relative="1" as="geometry">
                        <mxPoint y="70.39999999999998" as="sourcePoint"/>
                        <mxPoint x="9.5" y="65.48000000000002" as="targetPoint"/>
                        <Array as="points"/>
                    </mxGeometry>
                </mxCell>
                <mxCell id="hj5V9L2vQso6mufphsfm-130" value="D" style="text;strokeColor=none;align=center;fillColor=none;html=1;verticalAlign=middle;whiteSpace=wrap;rounded=0;container=0;" parent="hj5V9L2vQso6mufphsfm-122" vertex="1">
                    <mxGeometry y="20" width="14" height="12" as="geometry"/>
                </mxCell>
                <mxCell id="hj5V9L2vQso6mufphsfm-131" value="Q" style="text;strokeColor=none;align=center;fillColor=none;html=1;verticalAlign=middle;whiteSpace=wrap;rounded=0;container=0;" parent="hj5V9L2vQso6mufphsfm-122" vertex="1">
                    <mxGeometry x="46" y="20" width="14" height="12" as="geometry"/>
                </mxCell>
                <mxCell id="hj5V9L2vQso6mufphsfm-132" value="Q" style="text;strokeColor=none;align=center;fillColor=none;html=1;verticalAlign=middle;whiteSpace=wrap;rounded=0;container=0;" parent="hj5V9L2vQso6mufphsfm-122" vertex="1">
                    <mxGeometry x="46" y="60" width="14" height="12" as="geometry"/>
                </mxCell>
                <mxCell id="hj5V9L2vQso6mufphsfm-133" value="" style="edgeStyle=none;orthogonalLoop=1;jettySize=auto;html=1;rounded=0;entryX=0.75;entryY=0;entryDx=0;entryDy=0;endArrow=none;endFill=0;exitX=0.25;exitY=0;exitDx=0;exitDy=0;" parent="hj5V9L2vQso6mufphsfm-122" source="hj5V9L2vQso6mufphsfm-132" target="hj5V9L2vQso6mufphsfm-132" edge="1">
                    <mxGeometry width="80" relative="1" as="geometry">
                        <mxPoint x="-78" y="2" as="sourcePoint"/>
                        <mxPoint x="-48" y="-28" as="targetPoint"/>
                        <Array as="points"/>
                    </mxGeometry>
                </mxCell>
                <mxCell id="hj5V9L2vQso6mufphsfm-134" style="edgeStyle=orthogonalEdgeStyle;rounded=0;orthogonalLoop=1;jettySize=auto;html=1;exitX=1;exitY=0.5;exitDx=0;exitDy=0;entryX=0;entryY=0.5;entryDx=0;entryDy=0;endArrow=none;endFill=0;shape=link;" parent="1" target="hj5V9L2vQso6mufphsfm-130" edge="1">
                    <mxGeometry relative="1" as="geometry">
                        <mxPoint x="-90" y="659" as="sourcePoint"/>
                    </mxGeometry>
                </mxCell>
                <mxCell id="hj5V9L2vQso6mufphsfm-135" value="" style="group;connectable=1;" parent="1" vertex="1" connectable="0">
                    <mxGeometry x="-150" y="619" width="60" height="80" as="geometry"/>
                </mxCell>
                <mxCell id="hj5V9L2vQso6mufphsfm-136" value="" style="edgeStyle=none;orthogonalLoop=1;jettySize=auto;html=1;rounded=0;endArrow=none;endFill=0;" parent="hj5V9L2vQso6mufphsfm-135" edge="1">
                    <mxGeometry width="80" relative="1" as="geometry">
                        <mxPoint x="20" y="80" as="sourcePoint"/>
                        <mxPoint x="20" as="targetPoint"/>
                        <Array as="points"/>
                    </mxGeometry>
                </mxCell>
                <mxCell id="hj5V9L2vQso6mufphsfm-137" value="" style="edgeStyle=none;orthogonalLoop=1;jettySize=auto;html=1;rounded=0;endArrow=none;endFill=0;" parent="hj5V9L2vQso6mufphsfm-135" edge="1">
                    <mxGeometry width="80" relative="1" as="geometry">
                        <mxPoint x="40" y="60" as="sourcePoint"/>
                        <mxPoint x="40" y="20" as="targetPoint"/>
                        <Array as="points"/>
                    </mxGeometry>
                </mxCell>
                <mxCell id="hj5V9L2vQso6mufphsfm-138" value="" style="edgeStyle=none;orthogonalLoop=1;jettySize=auto;html=1;rounded=0;endArrow=none;endFill=0;shape=link;" parent="hj5V9L2vQso6mufphsfm-135" edge="1">
                    <mxGeometry width="80" relative="1" as="geometry">
                        <mxPoint x="60" y="40" as="sourcePoint"/>
                        <mxPoint x="40" y="40" as="targetPoint"/>
                        <Array as="points"/>
                    </mxGeometry>
                </mxCell>
                <mxCell id="hj5V9L2vQso6mufphsfm-139" value="" style="edgeStyle=none;orthogonalLoop=1;jettySize=auto;html=1;rounded=0;endArrow=none;endFill=0;shape=link;" parent="hj5V9L2vQso6mufphsfm-135" edge="1">
                    <mxGeometry width="80" relative="1" as="geometry">
                        <mxPoint x="20" y="20" as="sourcePoint"/>
                        <mxPoint y="20" as="targetPoint"/>
                        <Array as="points"/>
                    </mxGeometry>
                </mxCell>
                <mxCell id="hj5V9L2vQso6mufphsfm-140" value="" style="edgeStyle=none;orthogonalLoop=1;jettySize=auto;html=1;rounded=0;endArrow=none;endFill=0;shape=link;" parent="hj5V9L2vQso6mufphsfm-135" edge="1">
                    <mxGeometry width="80" relative="1" as="geometry">
                        <mxPoint x="20" y="60" as="sourcePoint"/>
                        <mxPoint y="60" as="targetPoint"/>
                        <Array as="points"/>
                    </mxGeometry>
                </mxCell>
                <mxCell id="hj5V9L2vQso6mufphsfm-141" value="" style="edgeStyle=none;orthogonalLoop=1;jettySize=auto;html=1;rounded=0;endArrow=none;endFill=0;" parent="hj5V9L2vQso6mufphsfm-135" edge="1">
                    <mxGeometry width="80" relative="1" as="geometry">
                        <mxPoint x="40" y="20" as="sourcePoint"/>
                        <mxPoint x="20" as="targetPoint"/>
                        <Array as="points"/>
                    </mxGeometry>
                </mxCell>
                <mxCell id="hj5V9L2vQso6mufphsfm-142" value="" style="edgeStyle=none;orthogonalLoop=1;jettySize=auto;html=1;rounded=0;endArrow=none;endFill=0;" parent="hj5V9L2vQso6mufphsfm-135" edge="1">
                    <mxGeometry width="80" relative="1" as="geometry">
                        <mxPoint x="40" y="60" as="sourcePoint"/>
                        <mxPoint x="20" y="80" as="targetPoint"/>
                        <Array as="points"/>
                    </mxGeometry>
                </mxCell>
                <mxCell id="hj5V9L2vQso6mufphsfm-143" value="" style="edgeStyle=none;orthogonalLoop=1;jettySize=auto;html=1;rounded=0;endArrow=none;endFill=0;" parent="hj5V9L2vQso6mufphsfm-135" edge="1">
                    <mxGeometry width="80" relative="1" as="geometry">
                        <mxPoint x="30" y="79.99999999999989" as="sourcePoint"/>
                        <mxPoint x="30" y="70" as="targetPoint"/>
                        <Array as="points"/>
                    </mxGeometry>
                </mxCell>
                <mxCell id="hj5V9L2vQso6mufphsfm-144" value="0" style="text;strokeColor=none;align=center;fillColor=none;html=1;verticalAlign=middle;whiteSpace=wrap;rounded=0;" parent="hj5V9L2vQso6mufphsfm-135" vertex="1">
                    <mxGeometry x="24" y="10" width="10" height="20" as="geometry"/>
                </mxCell>
                <mxCell id="hj5V9L2vQso6mufphsfm-145" value="1" style="text;strokeColor=none;align=center;fillColor=none;html=1;verticalAlign=middle;whiteSpace=wrap;rounded=0;" parent="hj5V9L2vQso6mufphsfm-135" vertex="1">
                    <mxGeometry x="24" y="50" width="10" height="20" as="geometry"/>
                </mxCell>
                <mxCell id="hj5V9L2vQso6mufphsfm-147" value="" style="whiteSpace=wrap;html=1;rotation=-90;" parent="1" vertex="1">
                    <mxGeometry x="-170.62" y="674.13" width="31.25" height="10" as="geometry"/>
                </mxCell>
                <mxCell id="hj5V9L2vQso6mufphsfm-148" style="edgeStyle=orthogonalEdgeStyle;rounded=0;orthogonalLoop=1;jettySize=auto;html=1;exitX=0.75;exitY=0;exitDx=0;exitDy=0;entryX=0.75;entryY=1;entryDx=0;entryDy=0;endArrow=none;endFill=0;" parent="1" source="hj5V9L2vQso6mufphsfm-147" target="hj5V9L2vQso6mufphsfm-147" edge="1">
                    <mxGeometry relative="1" as="geometry"/>
                </mxCell>
                <mxCell id="hj5V9L2vQso6mufphsfm-149" style="edgeStyle=orthogonalEdgeStyle;rounded=0;orthogonalLoop=1;jettySize=auto;html=1;exitX=0.5;exitY=0;exitDx=0;exitDy=0;entryX=0.5;entryY=1;entryDx=0;entryDy=0;endArrow=none;endFill=0;" parent="1" source="hj5V9L2vQso6mufphsfm-147" target="hj5V9L2vQso6mufphsfm-147" edge="1">
                    <mxGeometry relative="1" as="geometry"/>
                </mxCell>
                <mxCell id="hj5V9L2vQso6mufphsfm-150" style="edgeStyle=orthogonalEdgeStyle;rounded=0;orthogonalLoop=1;jettySize=auto;html=1;exitX=0.25;exitY=0;exitDx=0;exitDy=0;entryX=0.25;entryY=1;entryDx=0;entryDy=0;endArrow=none;endFill=0;" parent="1" source="hj5V9L2vQso6mufphsfm-147" target="hj5V9L2vQso6mufphsfm-147" edge="1">
                    <mxGeometry relative="1" as="geometry"/>
                </mxCell>
                <mxCell id="hj5V9L2vQso6mufphsfm-151" value="" style="group;" parent="1" vertex="1" connectable="0">
                    <mxGeometry x="40" y="633" width="66" height="86" as="geometry"/>
                </mxCell>
                <mxCell id="hj5V9L2vQso6mufphsfm-152" value="" style="whiteSpace=wrap;html=1;container=0;" parent="hj5V9L2vQso6mufphsfm-151" vertex="1">
                    <mxGeometry x="6" width="60" height="80" as="geometry"/>
                </mxCell>
                <mxCell id="hj5V9L2vQso6mufphsfm-153" value="" style="whiteSpace=wrap;html=1;container=0;" parent="hj5V9L2vQso6mufphsfm-151" vertex="1">
                    <mxGeometry x="4" y="1.9999999999999998" width="60" height="80" as="geometry"/>
                </mxCell>
                <mxCell id="hj5V9L2vQso6mufphsfm-154" value="" style="whiteSpace=wrap;html=1;container=0;" parent="hj5V9L2vQso6mufphsfm-151" vertex="1">
                    <mxGeometry x="2" y="3.9999999999999996" width="60" height="80" as="geometry"/>
                </mxCell>
                <mxCell id="hj5V9L2vQso6mufphsfm-155" value="" style="whiteSpace=wrap;html=1;container=0;" parent="hj5V9L2vQso6mufphsfm-151" vertex="1">
                    <mxGeometry y="6" width="60" height="80" as="geometry"/>
                </mxCell>
                <mxCell id="hj5V9L2vQso6mufphsfm-156" value="" style="whiteSpace=wrap;html=1;container=0;" parent="hj5V9L2vQso6mufphsfm-151" vertex="1">
                    <mxGeometry y="6" width="60" height="80" as="geometry"/>
                </mxCell>
                <mxCell id="hj5V9L2vQso6mufphsfm-157" value="" style="edgeStyle=none;orthogonalLoop=1;jettySize=auto;html=1;rounded=0;exitX=-0.001;exitY=0.645;exitDx=0;exitDy=0;exitPerimeter=0;entryX=0.296;entryY=0.752;entryDx=0;entryDy=0;entryPerimeter=0;endArrow=none;endFill=0;" parent="hj5V9L2vQso6mufphsfm-151" edge="1">
                    <mxGeometry width="80" relative="1" as="geometry">
                        <mxPoint y="60.99999999999999" as="sourcePoint"/>
                        <mxPoint x="9.600000000000023" y="65.56000000000006" as="targetPoint"/>
                        <Array as="points"/>
                    </mxGeometry>
                </mxCell>
                <mxCell id="hj5V9L2vQso6mufphsfm-158" value="" style="edgeStyle=none;orthogonalLoop=1;jettySize=auto;html=1;rounded=0;exitX=-0.001;exitY=0.645;exitDx=0;exitDy=0;exitPerimeter=0;entryX=0.025;entryY=0.801;entryDx=0;entryDy=0;entryPerimeter=0;endArrow=none;endFill=0;" parent="hj5V9L2vQso6mufphsfm-151" edge="1">
                    <mxGeometry width="80" relative="1" as="geometry">
                        <mxPoint y="70.39999999999998" as="sourcePoint"/>
                        <mxPoint x="9.5" y="65.48000000000002" as="targetPoint"/>
                        <Array as="points"/>
                    </mxGeometry>
                </mxCell>
                <mxCell id="hj5V9L2vQso6mufphsfm-159" value="D" style="text;strokeColor=none;align=center;fillColor=none;html=1;verticalAlign=middle;whiteSpace=wrap;rounded=0;container=0;" parent="hj5V9L2vQso6mufphsfm-151" vertex="1">
                    <mxGeometry y="20" width="14" height="12" as="geometry"/>
                </mxCell>
                <mxCell id="hj5V9L2vQso6mufphsfm-160" value="Q" style="text;strokeColor=none;align=center;fillColor=none;html=1;verticalAlign=middle;whiteSpace=wrap;rounded=0;container=0;" parent="hj5V9L2vQso6mufphsfm-151" vertex="1">
                    <mxGeometry x="46" y="20" width="14" height="12" as="geometry"/>
                </mxCell>
                <mxCell id="hj5V9L2vQso6mufphsfm-161" value="Q" style="text;strokeColor=none;align=center;fillColor=none;html=1;verticalAlign=middle;whiteSpace=wrap;rounded=0;container=0;" parent="hj5V9L2vQso6mufphsfm-151" vertex="1">
                    <mxGeometry x="46" y="60" width="14" height="12" as="geometry"/>
                </mxCell>
                <mxCell id="hj5V9L2vQso6mufphsfm-162" value="" style="edgeStyle=none;orthogonalLoop=1;jettySize=auto;html=1;rounded=0;entryX=0.75;entryY=0;entryDx=0;entryDy=0;endArrow=none;endFill=0;exitX=0.25;exitY=0;exitDx=0;exitDy=0;" parent="hj5V9L2vQso6mufphsfm-151" source="hj5V9L2vQso6mufphsfm-161" target="hj5V9L2vQso6mufphsfm-161" edge="1">
                    <mxGeometry width="80" relative="1" as="geometry">
                        <mxPoint x="-78" y="1.9999999999999998" as="sourcePoint"/>
                        <mxPoint x="-48" y="-28" as="targetPoint"/>
                        <Array as="points"/>
                    </mxGeometry>
                </mxCell>
                <mxCell id="hj5V9L2vQso6mufphsfm-163" style="edgeStyle=orthogonalEdgeStyle;rounded=0;orthogonalLoop=1;jettySize=auto;html=1;exitX=1;exitY=0.5;exitDx=0;exitDy=0;entryX=0.25;entryY=0;entryDx=0;entryDy=0;shape=flexArrow;endArrow=block;endFill=0;width=4;fillColor=default;endWidth=5.454545454545454;endSize=2.3506493506493507;" parent="1" source="hj5V9L2vQso6mufphsfm-131" target="hj5V9L2vQso6mufphsfm-147" edge="1">
                    <mxGeometry relative="1" as="geometry">
                        <Array as="points">
                            <mxPoint x="10" y="659"/>
                            <mxPoint x="10" y="739"/>
                            <mxPoint x="-190" y="739"/>
                            <mxPoint x="-190" y="687"/>
                        </Array>
                    </mxGeometry>
                </mxCell>
                <mxCell id="hj5V9L2vQso6mufphsfm-164" style="edgeStyle=orthogonalEdgeStyle;rounded=0;orthogonalLoop=1;jettySize=auto;html=1;exitX=1;exitY=0.5;exitDx=0;exitDy=0;shape=flexArrow;endArrow=none;endFill=0;width=4;entryX=0;entryY=0.5;entryDx=0;entryDy=0;fillColor=default;" parent="1" source="hj5V9L2vQso6mufphsfm-131" target="hj5V9L2vQso6mufphsfm-159" edge="1">
                    <mxGeometry relative="1" as="geometry">
                        <mxPoint x="30" y="659" as="targetPoint"/>
                    </mxGeometry>
                </mxCell>
                <mxCell id="hj5V9L2vQso6mufphsfm-176" style="edgeStyle=orthogonalEdgeStyle;rounded=0;orthogonalLoop=1;jettySize=auto;html=1;exitX=0;exitY=0.75;exitDx=0;exitDy=0;entryX=0;entryY=0.75;entryDx=0;entryDy=0;endArrow=classic;endFill=1;fillColor=#008a00;strokeColor=#33FF33;startArrow=classic;startFill=1;" parent="1" source="hj5V9L2vQso6mufphsfm-156" target="hj5V9L2vQso6mufphsfm-127" edge="1">
                    <mxGeometry relative="1" as="geometry">
                        <mxPoint x="40" y="699" as="sourcePoint"/>
                        <mxPoint x="-70" y="699" as="targetPoint"/>
                        <Array as="points">
                            <mxPoint x="20" y="699"/>
                            <mxPoint x="20" y="729"/>
                            <mxPoint x="-90" y="729"/>
                            <mxPoint x="-90" y="699"/>
                        </Array>
                    </mxGeometry>
                </mxCell>
                <mxCell id="hj5V9L2vQso6mufphsfm-181" value="" style="rounded=0;whiteSpace=wrap;html=1;fillColor=#66B2FF;dashed=1;gradientColor=none;strokeColor=#996185;opacity=30;" parent="1" vertex="1">
                    <mxGeometry x="-220" y="789" width="360" height="20" as="geometry"/>
                </mxCell>
                <mxCell id="hj5V9L2vQso6mufphsfm-257" style="edgeStyle=orthogonalEdgeStyle;rounded=0;orthogonalLoop=1;jettySize=auto;html=1;exitX=1;exitY=0.5;exitDx=0;exitDy=0;exitPerimeter=0;entryX=0;entryY=0.25;entryDx=0;entryDy=0;fillColor=#0050ef;strokeColor=#3399FF;entryPerimeter=0;" parent="1" source="hj5V9L2vQso6mufphsfm-652" target="hj5V9L2vQso6mufphsfm-327" edge="1">
                    <mxGeometry relative="1" as="geometry">
                        <mxPoint x="320" y="449" as="sourcePoint"/>
                        <mxPoint x="390" y="829" as="targetPoint"/>
                        <Array as="points">
                            <mxPoint x="340" y="460"/>
                            <mxPoint x="340" y="850"/>
                        </Array>
                    </mxGeometry>
                </mxCell>
                <mxCell id="hj5V9L2vQso6mufphsfm-224" style="edgeStyle=orthogonalEdgeStyle;rounded=0;orthogonalLoop=1;jettySize=auto;html=1;entryX=0;entryY=0.75;entryDx=0;entryDy=0;fillColor=#d80073;strokeColor=#A50040;" parent="1" target="hj5V9L2vQso6mufphsfm-14" edge="1">
                    <mxGeometry relative="1" as="geometry">
                        <mxPoint x="-400" y="430" as="sourcePoint"/>
                    </mxGeometry>
                </mxCell>
                <mxCell id="hj5V9L2vQso6mufphsfm-227" style="edgeStyle=orthogonalEdgeStyle;rounded=0;orthogonalLoop=1;jettySize=auto;html=1;entryX=0;entryY=0.5;entryDx=0;entryDy=0;fillColor=#d80073;strokeColor=#A50040;" parent="1" target="hj5V9L2vQso6mufphsfm-181" edge="1">
                    <mxGeometry relative="1" as="geometry">
                        <mxPoint x="-400" y="490" as="sourcePoint"/>
                    </mxGeometry>
                </mxCell>
                <mxCell id="hj5V9L2vQso6mufphsfm-615" style="edgeStyle=orthogonalEdgeStyle;rounded=0;orthogonalLoop=1;jettySize=auto;html=1;exitX=1;exitY=0.25;exitDx=0;exitDy=0;" parent="1" source="hj5V9L2vQso6mufphsfm-220" edge="1">
                    <mxGeometry relative="1" as="geometry">
                        <mxPoint x="30" y="1077.3478260869567" as="targetPoint"/>
                    </mxGeometry>
                </mxCell>
                <mxCell id="hj5V9L2vQso6mufphsfm-616" style="edgeStyle=orthogonalEdgeStyle;rounded=0;orthogonalLoop=1;jettySize=auto;html=1;exitX=1;exitY=0.5;exitDx=0;exitDy=0;" parent="1" source="hj5V9L2vQso6mufphsfm-220" edge="1">
                    <mxGeometry relative="1" as="geometry">
                        <mxPoint x="30" y="1095.1739130434785" as="targetPoint"/>
                    </mxGeometry>
                </mxCell>
                <mxCell id="hj5V9L2vQso6mufphsfm-220" value="TAP Controller" style="rounded=0;whiteSpace=wrap;html=1;fillColor=#fa6800;strokeColor=#C73500;fontColor=#000000;" parent="1" vertex="1">
                    <mxGeometry x="-150" y="1060" width="120" height="70" as="geometry"/>
                </mxCell>
                <mxCell id="hj5V9L2vQso6mufphsfm-225" style="edgeStyle=orthogonalEdgeStyle;rounded=0;orthogonalLoop=1;jettySize=auto;html=1;entryX=0.894;entryY=0.004;entryDx=0;entryDy=0;entryPerimeter=0;fillColor=#d80073;strokeColor=#A50040;" parent="1" target="hj5V9L2vQso6mufphsfm-63" edge="1">
                    <mxGeometry relative="1" as="geometry">
                        <mxPoint x="-400" y="450" as="sourcePoint"/>
                        <Array as="points">
                            <mxPoint x="-400" y="451"/>
                            <mxPoint x="-190" y="451"/>
                            <mxPoint x="-190" y="507"/>
                        </Array>
                    </mxGeometry>
                </mxCell>
                <mxCell id="hj5V9L2vQso6mufphsfm-226" style="edgeStyle=orthogonalEdgeStyle;rounded=0;orthogonalLoop=1;jettySize=auto;html=1;entryX=0.851;entryY=-0.012;entryDx=0;entryDy=0;entryPerimeter=0;fillColor=#d80073;strokeColor=#A50040;" parent="1" target="hj5V9L2vQso6mufphsfm-147" edge="1">
                    <mxGeometry relative="1" as="geometry">
                        <mxPoint x="-400" y="470" as="sourcePoint"/>
                    </mxGeometry>
                </mxCell>
                <mxCell id="hj5V9L2vQso6mufphsfm-241" style="edgeStyle=orthogonalEdgeStyle;rounded=0;orthogonalLoop=1;jettySize=auto;html=1;entryX=0.875;entryY=-0.044;entryDx=0;entryDy=0;entryPerimeter=0;fillColor=#d80073;strokeColor=#A50040;" parent="1" target="hj5V9L2vQso6mufphsfm-100" edge="1">
                    <mxGeometry relative="1" as="geometry">
                        <mxPoint x="-290" y="899" as="targetPoint"/>
                        <mxPoint x="-400" y="910" as="sourcePoint"/>
                        <Array as="points">
                            <mxPoint x="-400" y="917"/>
                        </Array>
                    </mxGeometry>
                </mxCell>
                <mxCell id="hj5V9L2vQso6mufphsfm-324" style="edgeStyle=orthogonalEdgeStyle;rounded=0;orthogonalLoop=1;jettySize=auto;html=1;entryX=1;entryY=0.5;entryDx=0;entryDy=0;exitX=1;exitY=0.25;exitDx=0;exitDy=0;exitPerimeter=0;fillColor=#0050ef;strokeColor=#3399FF;" parent="1" source="hj5V9L2vQso6mufphsfm-327" edge="1">
                    <mxGeometry relative="1" as="geometry">
                        <mxPoint x="420" y="849" as="sourcePoint"/>
                        <mxPoint x="-580" y="1139" as="targetPoint"/>
                        <Array as="points">
                            <mxPoint x="520" y="850"/>
                            <mxPoint x="520" y="1139"/>
                        </Array>
                    </mxGeometry>
                </mxCell>
                <mxCell id="hj5V9L2vQso6mufphsfm-258" style="edgeStyle=orthogonalEdgeStyle;rounded=0;orthogonalLoop=1;jettySize=auto;html=1;exitX=1;exitY=0.25;exitDx=0;exitDy=0;exitPerimeter=0;fillColor=#0050ef;strokeColor=#3399FF;entryX=0;entryY=0;entryDx=0;entryDy=40;entryPerimeter=0;" parent="1" source="hj5V9L2vQso6mufphsfm-13" target="hj5V9L2vQso6mufphsfm-652" edge="1">
                    <mxGeometry relative="1" as="geometry">
                        <mxPoint x="260" y="429" as="targetPoint"/>
                        <Array as="points">
                            <mxPoint x="200" y="349"/>
                            <mxPoint x="200" y="430"/>
                        </Array>
                    </mxGeometry>
                </mxCell>
                <mxCell id="hj5V9L2vQso6mufphsfm-259" style="edgeStyle=orthogonalEdgeStyle;rounded=0;orthogonalLoop=1;jettySize=auto;html=1;exitX=1;exitY=0.5;exitDx=0;exitDy=0;entryX=0;entryY=0;entryDx=0;entryDy=60;entryPerimeter=0;fillColor=#0050ef;strokeColor=#3399FF;" parent="1" source="hj5V9L2vQso6mufphsfm-10" target="hj5V9L2vQso6mufphsfm-652" edge="1">
                    <mxGeometry relative="1" as="geometry">
                        <mxPoint x="260" y="449" as="targetPoint"/>
                        <Array as="points">
                            <mxPoint x="150" y="499"/>
                            <mxPoint x="150" y="469"/>
                            <mxPoint x="180" y="469"/>
                            <mxPoint x="180" y="450"/>
                        </Array>
                    </mxGeometry>
                </mxCell>
                <mxCell id="hj5V9L2vQso6mufphsfm-260" style="edgeStyle=orthogonalEdgeStyle;rounded=0;orthogonalLoop=1;jettySize=auto;html=1;exitX=1;exitY=0.5;exitDx=0;exitDy=0;fillColor=#0050ef;strokeColor=#3399FF;entryX=0;entryY=0;entryDx=0;entryDy=80;entryPerimeter=0;" parent="1" source="hj5V9L2vQso6mufphsfm-131" target="hj5V9L2vQso6mufphsfm-652" edge="1">
                    <mxGeometry relative="1" as="geometry">
                        <mxPoint x="260" y="469" as="targetPoint"/>
                        <Array as="points">
                            <mxPoint x="20" y="659"/>
                            <mxPoint x="20" y="619"/>
                            <mxPoint x="200" y="619"/>
                            <mxPoint x="200" y="470"/>
                        </Array>
                    </mxGeometry>
                </mxCell>
                <mxCell id="hj5V9L2vQso6mufphsfm-261" style="edgeStyle=orthogonalEdgeStyle;rounded=0;orthogonalLoop=1;jettySize=auto;html=1;exitX=1;exitY=0.5;exitDx=0;exitDy=0;entryX=0;entryY=0;entryDx=0;entryDy=100;entryPerimeter=0;fillColor=#0050ef;strokeColor=#3399FF;" parent="1" source="hj5V9L2vQso6mufphsfm-181" target="hj5V9L2vQso6mufphsfm-652" edge="1">
                    <mxGeometry relative="1" as="geometry">
                        <mxPoint x="260" y="489" as="targetPoint"/>
                        <Array as="points">
                            <mxPoint x="220" y="799"/>
                            <mxPoint x="220" y="490"/>
                        </Array>
                    </mxGeometry>
                </mxCell>
                <mxCell id="hj5V9L2vQso6mufphsfm-323" style="edgeStyle=orthogonalEdgeStyle;rounded=0;orthogonalLoop=1;jettySize=auto;html=1;exitX=1;exitY=0.5;exitDx=0;exitDy=0;fillColor=#fa6800;strokeColor=#FF8000;entryX=0;entryY=0.75;entryDx=0;entryDy=0;" parent="1" target="hj5V9L2vQso6mufphsfm-411" edge="1">
                    <mxGeometry relative="1" as="geometry">
                        <mxPoint x="-580" y="1079" as="sourcePoint"/>
                        <mxPoint x="-430" y="420" as="targetPoint"/>
                        <Array as="points">
                            <mxPoint x="-400" y="1079"/>
                            <mxPoint x="-400" y="229"/>
                        </Array>
                    </mxGeometry>
                </mxCell>
                <mxCell id="hj5V9L2vQso6mufphsfm-326" style="edgeStyle=orthogonalEdgeStyle;rounded=0;orthogonalLoop=1;jettySize=auto;html=1;exitX=1;exitY=0.5;exitDx=0;exitDy=0;entryX=0;entryY=0;entryDx=0;entryDy=120;fillColor=#0050ef;strokeColor=#3399FF;entryPerimeter=0;" parent="1" target="hj5V9L2vQso6mufphsfm-652" edge="1">
                    <mxGeometry relative="1" as="geometry">
                        <mxPoint x="-150" y="909" as="sourcePoint"/>
                        <mxPoint x="256" y="510" as="targetPoint"/>
                        <Array as="points">
                            <mxPoint x="-124" y="909"/>
                            <mxPoint x="-124" y="869"/>
                            <mxPoint x="236" y="869"/>
                            <mxPoint x="236" y="510"/>
                        </Array>
                    </mxGeometry>
                </mxCell>
                <mxCell id="hj5V9L2vQso6mufphsfm-327" value="" style="verticalLabelPosition=bottom;shadow=0;dashed=0;align=center;html=1;verticalAlign=top;shape=mxgraph.electrical.logic_gates.d_type_flip-flop;" parent="1" vertex="1">
                    <mxGeometry x="400" y="830" width="100" height="80" as="geometry"/>
                </mxCell>
                <mxCell id="hj5V9L2vQso6mufphsfm-337" value="" style="group;connectable=1;" parent="1" vertex="1" connectable="0">
                    <mxGeometry x="360" y="880" width="40" height="20" as="geometry"/>
                </mxCell>
                <mxCell id="hj5V9L2vQso6mufphsfm-331" value="" style="edgeStyle=none;orthogonalLoop=1;jettySize=auto;html=1;rounded=0;endArrow=none;endFill=0;" parent="hj5V9L2vQso6mufphsfm-337" edge="1">
                    <mxGeometry width="80" relative="1" as="geometry">
                        <mxPoint x="10" as="sourcePoint"/>
                        <mxPoint x="30" y="10" as="targetPoint"/>
                        <Array as="points"/>
                    </mxGeometry>
                </mxCell>
                <mxCell id="hj5V9L2vQso6mufphsfm-332" value="" style="edgeStyle=none;orthogonalLoop=1;jettySize=auto;html=1;rounded=0;endArrow=none;endFill=0;" parent="hj5V9L2vQso6mufphsfm-337" edge="1">
                    <mxGeometry width="80" relative="1" as="geometry">
                        <mxPoint x="30" y="10" as="sourcePoint"/>
                        <mxPoint x="10" y="20" as="targetPoint"/>
                        <Array as="points"/>
                    </mxGeometry>
                </mxCell>
                <mxCell id="hj5V9L2vQso6mufphsfm-333" value="" style="edgeStyle=none;orthogonalLoop=1;jettySize=auto;html=1;rounded=0;endArrow=none;endFill=0;" parent="hj5V9L2vQso6mufphsfm-337" edge="1">
                    <mxGeometry width="80" relative="1" as="geometry">
                        <mxPoint x="10" as="sourcePoint"/>
                        <mxPoint x="10" y="20" as="targetPoint"/>
                        <Array as="points"/>
                    </mxGeometry>
                </mxCell>
                <mxCell id="hj5V9L2vQso6mufphsfm-334" value="" style="ellipse;whiteSpace=wrap;html=1;" parent="hj5V9L2vQso6mufphsfm-337" vertex="1">
                    <mxGeometry x="30" y="10" as="geometry"/>
                </mxCell>
                <mxCell id="hj5V9L2vQso6mufphsfm-335" value="" style="edgeStyle=none;orthogonalLoop=1;jettySize=auto;html=1;rounded=0;endArrow=none;endFill=0;" parent="hj5V9L2vQso6mufphsfm-337" edge="1">
                    <mxGeometry width="80" relative="1" as="geometry">
                        <mxPoint x="10" y="10" as="sourcePoint"/>
                        <mxPoint y="10" as="targetPoint"/>
                        <Array as="points"/>
                    </mxGeometry>
                </mxCell>
                <mxCell id="hj5V9L2vQso6mufphsfm-336" value="" style="edgeStyle=none;orthogonalLoop=1;jettySize=auto;html=1;rounded=0;endArrow=none;endFill=0;exitX=1;exitY=0.5;exitDx=0;exitDy=0;" parent="hj5V9L2vQso6mufphsfm-337" source="hj5V9L2vQso6mufphsfm-337" edge="1">
                    <mxGeometry width="80" relative="1" as="geometry">
                        <mxPoint x="50" y="40" as="sourcePoint"/>
                        <mxPoint x="40" y="10" as="targetPoint"/>
                        <Array as="points"/>
                    </mxGeometry>
                </mxCell>
                <mxCell id="33" value="" style="ellipse;whiteSpace=wrap;html=1;strokeColor=#000000;fillColor=none;" vertex="1" parent="hj5V9L2vQso6mufphsfm-337">
                    <mxGeometry x="30" y="5" width="10" height="10" as="geometry"/>
                </mxCell>
                <mxCell id="hj5V9L2vQso6mufphsfm-339" style="edgeStyle=orthogonalEdgeStyle;rounded=0;orthogonalLoop=1;jettySize=auto;html=1;exitX=1;exitY=0.5;exitDx=0;exitDy=0;entryX=0;entryY=0.75;entryDx=0;entryDy=0;entryPerimeter=0;endArrow=none;endFill=0;" parent="1" source="hj5V9L2vQso6mufphsfm-337" target="hj5V9L2vQso6mufphsfm-327" edge="1">
                    <mxGeometry relative="1" as="geometry"/>
                </mxCell>
                <mxCell id="hj5V9L2vQso6mufphsfm-341" value="Instruction&lt;div&gt;Decoder&lt;/div&gt;" style="rounded=0;whiteSpace=wrap;html=1;" parent="1" vertex="1">
                    <mxGeometry x="130" y="889" width="80" height="101" as="geometry"/>
                </mxCell>
                <mxCell id="hj5V9L2vQso6mufphsfm-340" style="edgeStyle=orthogonalEdgeStyle;rounded=0;orthogonalLoop=1;jettySize=auto;html=1;exitX=1;exitY=0.5;exitDx=0;exitDy=0;shape=flexArrow;width=4;endWidth=4.424778761061947;endSize=2.3929203539823005;entryX=0;entryY=0.5;entryDx=0;entryDy=0;" parent="1" source="hj5V9L2vQso6mufphsfm-114" target="hj5V9L2vQso6mufphsfm-341" edge="1">
                    <mxGeometry relative="1" as="geometry">
                        <mxPoint x="60" y="909" as="targetPoint"/>
                        <Array as="points"/>
                    </mxGeometry>
                </mxCell>
                <mxCell id="hj5V9L2vQso6mufphsfm-383" value="" style="group" parent="1" vertex="1" connectable="0">
                    <mxGeometry x="-249.99" y="209" width="30" height="40" as="geometry"/>
                </mxCell>
                <mxCell id="hj5V9L2vQso6mufphsfm-376" value="" style="whiteSpace=wrap;html=1;container=0;" parent="hj5V9L2vQso6mufphsfm-383" vertex="1">
                    <mxGeometry width="30" height="40" as="geometry"/>
                </mxCell>
                <mxCell id="hj5V9L2vQso6mufphsfm-377" value="" style="edgeStyle=none;orthogonalLoop=1;jettySize=auto;html=1;rounded=0;exitX=-0.001;exitY=0.645;exitDx=0;exitDy=0;exitPerimeter=0;entryX=0.296;entryY=0.752;entryDx=0;entryDy=0;entryPerimeter=0;endArrow=none;endFill=0;" parent="hj5V9L2vQso6mufphsfm-383" edge="1">
                    <mxGeometry width="80" relative="1" as="geometry">
                        <mxPoint y="26" as="sourcePoint"/>
                        <mxPoint x="9.600000000000023" y="30.56000000000006" as="targetPoint"/>
                        <Array as="points"/>
                    </mxGeometry>
                </mxCell>
                <mxCell id="hj5V9L2vQso6mufphsfm-378" value="" style="edgeStyle=none;orthogonalLoop=1;jettySize=auto;html=1;rounded=0;exitX=-0.001;exitY=0.645;exitDx=0;exitDy=0;exitPerimeter=0;entryX=0.025;entryY=0.801;entryDx=0;entryDy=0;entryPerimeter=0;endArrow=none;endFill=0;" parent="hj5V9L2vQso6mufphsfm-383" edge="1">
                    <mxGeometry width="80" relative="1" as="geometry">
                        <mxPoint y="35.39999999999998" as="sourcePoint"/>
                        <mxPoint x="9.5" y="30.480000000000018" as="targetPoint"/>
                        <Array as="points"/>
                    </mxGeometry>
                </mxCell>
                <mxCell id="hj5V9L2vQso6mufphsfm-379" value="D" style="text;strokeColor=none;align=center;fillColor=none;html=1;verticalAlign=middle;whiteSpace=wrap;rounded=0;container=0;" parent="hj5V9L2vQso6mufphsfm-383" vertex="1">
                    <mxGeometry y="4" width="14" height="12" as="geometry"/>
                </mxCell>
                <mxCell id="hj5V9L2vQso6mufphsfm-380" value="Q" style="text;strokeColor=none;align=center;fillColor=none;html=1;verticalAlign=middle;whiteSpace=wrap;rounded=0;container=0;" parent="hj5V9L2vQso6mufphsfm-383" vertex="1">
                    <mxGeometry x="16" y="4" width="14" height="12" as="geometry"/>
                </mxCell>
                <mxCell id="hj5V9L2vQso6mufphsfm-386" value="" style="group" parent="1" vertex="1" connectable="0">
                    <mxGeometry x="-199.99" y="209" width="30" height="40" as="geometry"/>
                </mxCell>
                <mxCell id="hj5V9L2vQso6mufphsfm-387" value="" style="whiteSpace=wrap;html=1;container=0;" parent="hj5V9L2vQso6mufphsfm-386" vertex="1">
                    <mxGeometry width="30" height="40" as="geometry"/>
                </mxCell>
                <mxCell id="hj5V9L2vQso6mufphsfm-388" value="" style="edgeStyle=none;orthogonalLoop=1;jettySize=auto;html=1;rounded=0;exitX=-0.001;exitY=0.645;exitDx=0;exitDy=0;exitPerimeter=0;entryX=0.296;entryY=0.752;entryDx=0;entryDy=0;entryPerimeter=0;endArrow=none;endFill=0;" parent="hj5V9L2vQso6mufphsfm-386" edge="1">
                    <mxGeometry width="80" relative="1" as="geometry">
                        <mxPoint y="26" as="sourcePoint"/>
                        <mxPoint x="9.600000000000023" y="30.56000000000006" as="targetPoint"/>
                        <Array as="points"/>
                    </mxGeometry>
                </mxCell>
                <mxCell id="hj5V9L2vQso6mufphsfm-389" value="" style="edgeStyle=none;orthogonalLoop=1;jettySize=auto;html=1;rounded=0;exitX=-0.001;exitY=0.645;exitDx=0;exitDy=0;exitPerimeter=0;entryX=0.025;entryY=0.801;entryDx=0;entryDy=0;entryPerimeter=0;endArrow=none;endFill=0;" parent="hj5V9L2vQso6mufphsfm-386" edge="1">
                    <mxGeometry width="80" relative="1" as="geometry">
                        <mxPoint y="35.39999999999998" as="sourcePoint"/>
                        <mxPoint x="9.5" y="30.480000000000018" as="targetPoint"/>
                        <Array as="points"/>
                    </mxGeometry>
                </mxCell>
                <mxCell id="hj5V9L2vQso6mufphsfm-390" value="D" style="text;strokeColor=none;align=center;fillColor=none;html=1;verticalAlign=middle;whiteSpace=wrap;rounded=0;container=0;" parent="hj5V9L2vQso6mufphsfm-386" vertex="1">
                    <mxGeometry y="4" width="14" height="12" as="geometry"/>
                </mxCell>
                <mxCell id="hj5V9L2vQso6mufphsfm-391" value="Q" style="text;strokeColor=none;align=center;fillColor=none;html=1;verticalAlign=middle;whiteSpace=wrap;rounded=0;container=0;" parent="hj5V9L2vQso6mufphsfm-386" vertex="1">
                    <mxGeometry x="16" y="4" width="14" height="12" as="geometry"/>
                </mxCell>
                <mxCell id="hj5V9L2vQso6mufphsfm-395" style="edgeStyle=orthogonalEdgeStyle;rounded=0;orthogonalLoop=1;jettySize=auto;html=1;exitX=1;exitY=0.5;exitDx=0;exitDy=0;entryX=0;entryY=0.5;entryDx=0;entryDy=0;endArrow=none;endFill=0;" parent="1" source="hj5V9L2vQso6mufphsfm-380" target="hj5V9L2vQso6mufphsfm-390" edge="1">
                    <mxGeometry relative="1" as="geometry"/>
                </mxCell>
                <mxCell id="hj5V9L2vQso6mufphsfm-410" value="" style="group;connectable=1;" parent="1" vertex="1" connectable="0">
                    <mxGeometry x="-149.99" y="179" width="30" height="40" as="geometry"/>
                </mxCell>
                <mxCell id="hj5V9L2vQso6mufphsfm-404" value="" style="edgeStyle=none;orthogonalLoop=1;jettySize=auto;html=1;rounded=0;endArrow=none;endFill=0;" parent="hj5V9L2vQso6mufphsfm-410" edge="1">
                    <mxGeometry width="80" relative="1" as="geometry">
                        <mxPoint x="15" y="5" as="sourcePoint"/>
                        <mxPoint x="15" as="targetPoint"/>
                        <Array as="points"/>
                    </mxGeometry>
                </mxCell>
                <mxCell id="hj5V9L2vQso6mufphsfm-397" value="" style="edgeStyle=none;orthogonalLoop=1;jettySize=auto;html=1;rounded=0;endArrow=none;endFill=0;" parent="hj5V9L2vQso6mufphsfm-410" edge="1">
                    <mxGeometry width="80" relative="1" as="geometry">
                        <mxPoint x="10" y="40" as="sourcePoint"/>
                        <mxPoint x="10" as="targetPoint"/>
                        <Array as="points"/>
                    </mxGeometry>
                </mxCell>
                <mxCell id="hj5V9L2vQso6mufphsfm-398" value="" style="edgeStyle=none;orthogonalLoop=1;jettySize=auto;html=1;rounded=0;endArrow=none;endFill=0;" parent="hj5V9L2vQso6mufphsfm-410" edge="1">
                    <mxGeometry width="80" relative="1" as="geometry">
                        <mxPoint x="20" y="30" as="sourcePoint"/>
                        <mxPoint x="20" y="10" as="targetPoint"/>
                        <Array as="points"/>
                    </mxGeometry>
                </mxCell>
                <mxCell id="hj5V9L2vQso6mufphsfm-399" value="" style="edgeStyle=none;orthogonalLoop=1;jettySize=auto;html=1;rounded=0;endArrow=none;endFill=0;" parent="hj5V9L2vQso6mufphsfm-410" edge="1">
                    <mxGeometry width="80" relative="1" as="geometry">
                        <mxPoint x="30" y="20" as="sourcePoint"/>
                        <mxPoint x="20" y="20" as="targetPoint"/>
                        <Array as="points"/>
                    </mxGeometry>
                </mxCell>
                <mxCell id="hj5V9L2vQso6mufphsfm-400" value="" style="edgeStyle=none;orthogonalLoop=1;jettySize=auto;html=1;rounded=0;endArrow=none;endFill=0;" parent="hj5V9L2vQso6mufphsfm-410" edge="1">
                    <mxGeometry width="80" relative="1" as="geometry">
                        <mxPoint x="10" y="10" as="sourcePoint"/>
                        <mxPoint y="10" as="targetPoint"/>
                        <Array as="points"/>
                    </mxGeometry>
                </mxCell>
                <mxCell id="hj5V9L2vQso6mufphsfm-401" value="" style="edgeStyle=none;orthogonalLoop=1;jettySize=auto;html=1;rounded=0;endArrow=none;endFill=0;" parent="hj5V9L2vQso6mufphsfm-410" edge="1">
                    <mxGeometry width="80" relative="1" as="geometry">
                        <mxPoint x="10" y="30" as="sourcePoint"/>
                        <mxPoint y="30" as="targetPoint"/>
                        <Array as="points"/>
                    </mxGeometry>
                </mxCell>
                <mxCell id="hj5V9L2vQso6mufphsfm-402" value="" style="edgeStyle=none;orthogonalLoop=1;jettySize=auto;html=1;rounded=0;endArrow=none;endFill=0;" parent="hj5V9L2vQso6mufphsfm-410" edge="1">
                    <mxGeometry width="80" relative="1" as="geometry">
                        <mxPoint x="20" y="10" as="sourcePoint"/>
                        <mxPoint x="10" as="targetPoint"/>
                        <Array as="points"/>
                    </mxGeometry>
                </mxCell>
                <mxCell id="hj5V9L2vQso6mufphsfm-403" value="" style="edgeStyle=none;orthogonalLoop=1;jettySize=auto;html=1;rounded=0;endArrow=none;endFill=0;" parent="hj5V9L2vQso6mufphsfm-410" edge="1">
                    <mxGeometry width="80" relative="1" as="geometry">
                        <mxPoint x="20" y="30" as="sourcePoint"/>
                        <mxPoint x="10" y="40" as="targetPoint"/>
                        <Array as="points"/>
                    </mxGeometry>
                </mxCell>
                <mxCell id="hj5V9L2vQso6mufphsfm-420" style="edgeStyle=orthogonalEdgeStyle;rounded=0;orthogonalLoop=1;jettySize=auto;html=1;exitX=1;exitY=0.5;exitDx=0;exitDy=0;entryX=0;entryY=0.5;entryDx=0;entryDy=0;" parent="1" source="hj5V9L2vQso6mufphsfm-411" target="hj5V9L2vQso6mufphsfm-379" edge="1">
                    <mxGeometry relative="1" as="geometry"/>
                </mxCell>
                <mxCell id="hj5V9L2vQso6mufphsfm-411" value="" style="group;connectable=1;" parent="1" vertex="1" connectable="0">
                    <mxGeometry x="-289.99" y="199" width="30" height="40" as="geometry"/>
                </mxCell>
                <mxCell id="hj5V9L2vQso6mufphsfm-412" value="" style="edgeStyle=none;orthogonalLoop=1;jettySize=auto;html=1;rounded=0;endArrow=none;endFill=0;" parent="hj5V9L2vQso6mufphsfm-411" edge="1">
                    <mxGeometry width="80" relative="1" as="geometry">
                        <mxPoint x="15" y="5" as="sourcePoint"/>
                        <mxPoint x="15" as="targetPoint"/>
                        <Array as="points"/>
                    </mxGeometry>
                </mxCell>
                <mxCell id="hj5V9L2vQso6mufphsfm-413" value="" style="edgeStyle=none;orthogonalLoop=1;jettySize=auto;html=1;rounded=0;endArrow=none;endFill=0;" parent="hj5V9L2vQso6mufphsfm-411" edge="1">
                    <mxGeometry width="80" relative="1" as="geometry">
                        <mxPoint x="10" y="40" as="sourcePoint"/>
                        <mxPoint x="10" as="targetPoint"/>
                        <Array as="points"/>
                    </mxGeometry>
                </mxCell>
                <mxCell id="hj5V9L2vQso6mufphsfm-414" value="" style="edgeStyle=none;orthogonalLoop=1;jettySize=auto;html=1;rounded=0;endArrow=none;endFill=0;" parent="hj5V9L2vQso6mufphsfm-411" edge="1">
                    <mxGeometry width="80" relative="1" as="geometry">
                        <mxPoint x="20" y="30" as="sourcePoint"/>
                        <mxPoint x="20" y="10" as="targetPoint"/>
                        <Array as="points"/>
                    </mxGeometry>
                </mxCell>
                <mxCell id="hj5V9L2vQso6mufphsfm-415" value="" style="edgeStyle=none;orthogonalLoop=1;jettySize=auto;html=1;rounded=0;endArrow=none;endFill=0;" parent="hj5V9L2vQso6mufphsfm-411" edge="1">
                    <mxGeometry width="80" relative="1" as="geometry">
                        <mxPoint x="30" y="20" as="sourcePoint"/>
                        <mxPoint x="20" y="20" as="targetPoint"/>
                        <Array as="points"/>
                    </mxGeometry>
                </mxCell>
                <mxCell id="hj5V9L2vQso6mufphsfm-416" value="" style="edgeStyle=none;orthogonalLoop=1;jettySize=auto;html=1;rounded=0;endArrow=none;endFill=0;" parent="hj5V9L2vQso6mufphsfm-411" edge="1">
                    <mxGeometry width="80" relative="1" as="geometry">
                        <mxPoint x="10" y="10" as="sourcePoint"/>
                        <mxPoint y="10" as="targetPoint"/>
                        <Array as="points"/>
                    </mxGeometry>
                </mxCell>
                <mxCell id="hj5V9L2vQso6mufphsfm-417" value="" style="edgeStyle=none;orthogonalLoop=1;jettySize=auto;html=1;rounded=0;endArrow=none;endFill=0;" parent="hj5V9L2vQso6mufphsfm-411" edge="1">
                    <mxGeometry width="80" relative="1" as="geometry">
                        <mxPoint x="10" y="30" as="sourcePoint"/>
                        <mxPoint y="30" as="targetPoint"/>
                        <Array as="points"/>
                    </mxGeometry>
                </mxCell>
                <mxCell id="hj5V9L2vQso6mufphsfm-418" value="" style="edgeStyle=none;orthogonalLoop=1;jettySize=auto;html=1;rounded=0;endArrow=none;endFill=0;" parent="hj5V9L2vQso6mufphsfm-411" edge="1">
                    <mxGeometry width="80" relative="1" as="geometry">
                        <mxPoint x="20" y="10" as="sourcePoint"/>
                        <mxPoint x="10" as="targetPoint"/>
                        <Array as="points"/>
                    </mxGeometry>
                </mxCell>
                <mxCell id="hj5V9L2vQso6mufphsfm-419" value="" style="edgeStyle=none;orthogonalLoop=1;jettySize=auto;html=1;rounded=0;endArrow=none;endFill=0;" parent="hj5V9L2vQso6mufphsfm-411" edge="1">
                    <mxGeometry width="80" relative="1" as="geometry">
                        <mxPoint x="20" y="30" as="sourcePoint"/>
                        <mxPoint x="10" y="40" as="targetPoint"/>
                        <Array as="points"/>
                    </mxGeometry>
                </mxCell>
                <mxCell id="hj5V9L2vQso6mufphsfm-421" style="edgeStyle=orthogonalEdgeStyle;rounded=0;orthogonalLoop=1;jettySize=auto;html=1;exitX=1;exitY=0.5;exitDx=0;exitDy=0;entryX=0;entryY=0.75;entryDx=0;entryDy=0;" parent="1" source="hj5V9L2vQso6mufphsfm-391" target="hj5V9L2vQso6mufphsfm-410" edge="1">
                    <mxGeometry relative="1" as="geometry">
                        <Array as="points">
                            <mxPoint x="-159.99" y="219"/>
                            <mxPoint x="-159.99" y="209"/>
                        </Array>
                    </mxGeometry>
                </mxCell>
                <mxCell id="hj5V9L2vQso6mufphsfm-423" value="" style="group" parent="1" vertex="1" connectable="0">
                    <mxGeometry x="-249.99" y="99" width="30" height="40" as="geometry"/>
                </mxCell>
                <mxCell id="hj5V9L2vQso6mufphsfm-424" value="" style="whiteSpace=wrap;html=1;container=0;" parent="hj5V9L2vQso6mufphsfm-423" vertex="1">
                    <mxGeometry width="30" height="40" as="geometry"/>
                </mxCell>
                <mxCell id="hj5V9L2vQso6mufphsfm-425" value="" style="edgeStyle=none;orthogonalLoop=1;jettySize=auto;html=1;rounded=0;exitX=-0.001;exitY=0.645;exitDx=0;exitDy=0;exitPerimeter=0;entryX=0.296;entryY=0.752;entryDx=0;entryDy=0;entryPerimeter=0;endArrow=none;endFill=0;" parent="hj5V9L2vQso6mufphsfm-423" edge="1">
                    <mxGeometry width="80" relative="1" as="geometry">
                        <mxPoint y="26" as="sourcePoint"/>
                        <mxPoint x="9.600000000000023" y="30.56000000000006" as="targetPoint"/>
                        <Array as="points"/>
                    </mxGeometry>
                </mxCell>
                <mxCell id="hj5V9L2vQso6mufphsfm-426" value="" style="edgeStyle=none;orthogonalLoop=1;jettySize=auto;html=1;rounded=0;exitX=-0.001;exitY=0.645;exitDx=0;exitDy=0;exitPerimeter=0;entryX=0.025;entryY=0.801;entryDx=0;entryDy=0;entryPerimeter=0;endArrow=none;endFill=0;" parent="hj5V9L2vQso6mufphsfm-423" edge="1">
                    <mxGeometry width="80" relative="1" as="geometry">
                        <mxPoint y="35.39999999999998" as="sourcePoint"/>
                        <mxPoint x="9.5" y="30.480000000000018" as="targetPoint"/>
                        <Array as="points"/>
                    </mxGeometry>
                </mxCell>
                <mxCell id="hj5V9L2vQso6mufphsfm-427" value="D" style="text;strokeColor=none;align=center;fillColor=none;html=1;verticalAlign=middle;whiteSpace=wrap;rounded=0;container=0;" parent="hj5V9L2vQso6mufphsfm-423" vertex="1">
                    <mxGeometry y="4" width="14" height="12" as="geometry"/>
                </mxCell>
                <mxCell id="hj5V9L2vQso6mufphsfm-428" value="Q" style="text;strokeColor=none;align=center;fillColor=none;html=1;verticalAlign=middle;whiteSpace=wrap;rounded=0;container=0;" parent="hj5V9L2vQso6mufphsfm-423" vertex="1">
                    <mxGeometry x="16" y="4" width="14" height="12" as="geometry"/>
                </mxCell>
                <mxCell id="hj5V9L2vQso6mufphsfm-429" value="" style="group" parent="1" vertex="1" connectable="0">
                    <mxGeometry x="-199.99" y="99" width="30" height="40" as="geometry"/>
                </mxCell>
                <mxCell id="hj5V9L2vQso6mufphsfm-430" value="" style="whiteSpace=wrap;html=1;container=0;" parent="hj5V9L2vQso6mufphsfm-429" vertex="1">
                    <mxGeometry width="30" height="40" as="geometry"/>
                </mxCell>
                <mxCell id="hj5V9L2vQso6mufphsfm-431" value="" style="edgeStyle=none;orthogonalLoop=1;jettySize=auto;html=1;rounded=0;exitX=-0.001;exitY=0.645;exitDx=0;exitDy=0;exitPerimeter=0;entryX=0.296;entryY=0.752;entryDx=0;entryDy=0;entryPerimeter=0;endArrow=none;endFill=0;" parent="hj5V9L2vQso6mufphsfm-429" edge="1">
                    <mxGeometry width="80" relative="1" as="geometry">
                        <mxPoint y="26" as="sourcePoint"/>
                        <mxPoint x="9.600000000000023" y="30.56000000000006" as="targetPoint"/>
                        <Array as="points"/>
                    </mxGeometry>
                </mxCell>
                <mxCell id="hj5V9L2vQso6mufphsfm-432" value="" style="edgeStyle=none;orthogonalLoop=1;jettySize=auto;html=1;rounded=0;exitX=-0.001;exitY=0.645;exitDx=0;exitDy=0;exitPerimeter=0;entryX=0.025;entryY=0.801;entryDx=0;entryDy=0;entryPerimeter=0;endArrow=none;endFill=0;" parent="hj5V9L2vQso6mufphsfm-429" edge="1">
                    <mxGeometry width="80" relative="1" as="geometry">
                        <mxPoint y="35.39999999999998" as="sourcePoint"/>
                        <mxPoint x="9.5" y="30.480000000000018" as="targetPoint"/>
                        <Array as="points"/>
                    </mxGeometry>
                </mxCell>
                <mxCell id="hj5V9L2vQso6mufphsfm-433" value="D" style="text;strokeColor=none;align=center;fillColor=none;html=1;verticalAlign=middle;whiteSpace=wrap;rounded=0;container=0;" parent="hj5V9L2vQso6mufphsfm-429" vertex="1">
                    <mxGeometry y="4" width="14" height="12" as="geometry"/>
                </mxCell>
                <mxCell id="hj5V9L2vQso6mufphsfm-434" value="Q" style="text;strokeColor=none;align=center;fillColor=none;html=1;verticalAlign=middle;whiteSpace=wrap;rounded=0;container=0;" parent="hj5V9L2vQso6mufphsfm-429" vertex="1">
                    <mxGeometry x="16" y="4" width="14" height="12" as="geometry"/>
                </mxCell>
                <mxCell id="hj5V9L2vQso6mufphsfm-435" style="edgeStyle=orthogonalEdgeStyle;rounded=0;orthogonalLoop=1;jettySize=auto;html=1;exitX=1;exitY=0.5;exitDx=0;exitDy=0;entryX=0;entryY=0.5;entryDx=0;entryDy=0;endArrow=none;endFill=0;startArrow=none;" parent="1" source="8" target="hj5V9L2vQso6mufphsfm-433" edge="1">
                    <mxGeometry relative="1" as="geometry"/>
                </mxCell>
                <mxCell id="hj5V9L2vQso6mufphsfm-436" value="" style="group;connectable=1;" parent="1" vertex="1" connectable="0">
                    <mxGeometry x="-149.99" y="69" width="30" height="40" as="geometry"/>
                </mxCell>
                <mxCell id="hj5V9L2vQso6mufphsfm-437" value="" style="edgeStyle=none;orthogonalLoop=1;jettySize=auto;html=1;rounded=0;endArrow=none;endFill=0;" parent="hj5V9L2vQso6mufphsfm-436" edge="1">
                    <mxGeometry width="80" relative="1" as="geometry">
                        <mxPoint x="15" y="5" as="sourcePoint"/>
                        <mxPoint x="15" as="targetPoint"/>
                        <Array as="points"/>
                    </mxGeometry>
                </mxCell>
                <mxCell id="hj5V9L2vQso6mufphsfm-438" value="" style="edgeStyle=none;orthogonalLoop=1;jettySize=auto;html=1;rounded=0;endArrow=none;endFill=0;" parent="hj5V9L2vQso6mufphsfm-436" edge="1">
                    <mxGeometry width="80" relative="1" as="geometry">
                        <mxPoint x="10" y="40" as="sourcePoint"/>
                        <mxPoint x="10" as="targetPoint"/>
                        <Array as="points"/>
                    </mxGeometry>
                </mxCell>
                <mxCell id="hj5V9L2vQso6mufphsfm-439" value="" style="edgeStyle=none;orthogonalLoop=1;jettySize=auto;html=1;rounded=0;endArrow=none;endFill=0;" parent="hj5V9L2vQso6mufphsfm-436" edge="1">
                    <mxGeometry width="80" relative="1" as="geometry">
                        <mxPoint x="20" y="30" as="sourcePoint"/>
                        <mxPoint x="20" y="10" as="targetPoint"/>
                        <Array as="points"/>
                    </mxGeometry>
                </mxCell>
                <mxCell id="hj5V9L2vQso6mufphsfm-440" value="" style="edgeStyle=none;orthogonalLoop=1;jettySize=auto;html=1;rounded=0;endArrow=none;endFill=0;" parent="hj5V9L2vQso6mufphsfm-436" edge="1">
                    <mxGeometry width="80" relative="1" as="geometry">
                        <mxPoint x="30" y="20" as="sourcePoint"/>
                        <mxPoint x="20" y="20" as="targetPoint"/>
                        <Array as="points"/>
                    </mxGeometry>
                </mxCell>
                <mxCell id="hj5V9L2vQso6mufphsfm-441" value="" style="edgeStyle=none;orthogonalLoop=1;jettySize=auto;html=1;rounded=0;endArrow=none;endFill=0;" parent="hj5V9L2vQso6mufphsfm-436" edge="1">
                    <mxGeometry width="80" relative="1" as="geometry">
                        <mxPoint x="10" y="10" as="sourcePoint"/>
                        <mxPoint y="10" as="targetPoint"/>
                        <Array as="points"/>
                    </mxGeometry>
                </mxCell>
                <mxCell id="hj5V9L2vQso6mufphsfm-442" value="" style="edgeStyle=none;orthogonalLoop=1;jettySize=auto;html=1;rounded=0;endArrow=none;endFill=0;" parent="hj5V9L2vQso6mufphsfm-436" edge="1">
                    <mxGeometry width="80" relative="1" as="geometry">
                        <mxPoint x="10" y="30" as="sourcePoint"/>
                        <mxPoint y="30" as="targetPoint"/>
                        <Array as="points"/>
                    </mxGeometry>
                </mxCell>
                <mxCell id="hj5V9L2vQso6mufphsfm-443" value="" style="edgeStyle=none;orthogonalLoop=1;jettySize=auto;html=1;rounded=0;endArrow=none;endFill=0;" parent="hj5V9L2vQso6mufphsfm-436" edge="1">
                    <mxGeometry width="80" relative="1" as="geometry">
                        <mxPoint x="20" y="10" as="sourcePoint"/>
                        <mxPoint x="10" as="targetPoint"/>
                        <Array as="points"/>
                    </mxGeometry>
                </mxCell>
                <mxCell id="hj5V9L2vQso6mufphsfm-444" value="" style="edgeStyle=none;orthogonalLoop=1;jettySize=auto;html=1;rounded=0;endArrow=none;endFill=0;" parent="hj5V9L2vQso6mufphsfm-436" edge="1">
                    <mxGeometry width="80" relative="1" as="geometry">
                        <mxPoint x="20" y="30" as="sourcePoint"/>
                        <mxPoint x="10" y="40" as="targetPoint"/>
                        <Array as="points"/>
                    </mxGeometry>
                </mxCell>
                <mxCell id="hj5V9L2vQso6mufphsfm-445" style="edgeStyle=orthogonalEdgeStyle;rounded=0;orthogonalLoop=1;jettySize=auto;html=1;exitX=1;exitY=0.5;exitDx=0;exitDy=0;entryX=0;entryY=0.5;entryDx=0;entryDy=0;" parent="1" source="hj5V9L2vQso6mufphsfm-446" target="hj5V9L2vQso6mufphsfm-427" edge="1">
                    <mxGeometry relative="1" as="geometry"/>
                </mxCell>
                <mxCell id="hj5V9L2vQso6mufphsfm-446" value="" style="group;connectable=1;" parent="1" vertex="1" connectable="0">
                    <mxGeometry x="-289.99" y="89" width="30" height="40" as="geometry"/>
                </mxCell>
                <mxCell id="hj5V9L2vQso6mufphsfm-447" value="" style="edgeStyle=none;orthogonalLoop=1;jettySize=auto;html=1;rounded=0;endArrow=none;endFill=0;" parent="hj5V9L2vQso6mufphsfm-446" edge="1">
                    <mxGeometry width="80" relative="1" as="geometry">
                        <mxPoint x="15" y="5" as="sourcePoint"/>
                        <mxPoint x="15" as="targetPoint"/>
                        <Array as="points"/>
                    </mxGeometry>
                </mxCell>
                <mxCell id="hj5V9L2vQso6mufphsfm-448" value="" style="edgeStyle=none;orthogonalLoop=1;jettySize=auto;html=1;rounded=0;endArrow=none;endFill=0;" parent="hj5V9L2vQso6mufphsfm-446" edge="1">
                    <mxGeometry width="80" relative="1" as="geometry">
                        <mxPoint x="10" y="40" as="sourcePoint"/>
                        <mxPoint x="10" as="targetPoint"/>
                        <Array as="points"/>
                    </mxGeometry>
                </mxCell>
                <mxCell id="hj5V9L2vQso6mufphsfm-449" value="" style="edgeStyle=none;orthogonalLoop=1;jettySize=auto;html=1;rounded=0;endArrow=none;endFill=0;" parent="hj5V9L2vQso6mufphsfm-446" edge="1">
                    <mxGeometry width="80" relative="1" as="geometry">
                        <mxPoint x="20" y="30" as="sourcePoint"/>
                        <mxPoint x="20" y="10" as="targetPoint"/>
                        <Array as="points"/>
                    </mxGeometry>
                </mxCell>
                <mxCell id="hj5V9L2vQso6mufphsfm-450" value="" style="edgeStyle=none;orthogonalLoop=1;jettySize=auto;html=1;rounded=0;endArrow=none;endFill=0;" parent="hj5V9L2vQso6mufphsfm-446" edge="1">
                    <mxGeometry width="80" relative="1" as="geometry">
                        <mxPoint x="30" y="20" as="sourcePoint"/>
                        <mxPoint x="20" y="20" as="targetPoint"/>
                        <Array as="points"/>
                    </mxGeometry>
                </mxCell>
                <mxCell id="hj5V9L2vQso6mufphsfm-451" value="" style="edgeStyle=none;orthogonalLoop=1;jettySize=auto;html=1;rounded=0;endArrow=none;endFill=0;" parent="hj5V9L2vQso6mufphsfm-446" edge="1">
                    <mxGeometry width="80" relative="1" as="geometry">
                        <mxPoint x="10" y="10" as="sourcePoint"/>
                        <mxPoint y="10" as="targetPoint"/>
                        <Array as="points"/>
                    </mxGeometry>
                </mxCell>
                <mxCell id="hj5V9L2vQso6mufphsfm-452" value="" style="edgeStyle=none;orthogonalLoop=1;jettySize=auto;html=1;rounded=0;endArrow=none;endFill=0;" parent="hj5V9L2vQso6mufphsfm-446" edge="1">
                    <mxGeometry width="80" relative="1" as="geometry">
                        <mxPoint x="10" y="30" as="sourcePoint"/>
                        <mxPoint y="30" as="targetPoint"/>
                        <Array as="points"/>
                    </mxGeometry>
                </mxCell>
                <mxCell id="hj5V9L2vQso6mufphsfm-453" value="" style="edgeStyle=none;orthogonalLoop=1;jettySize=auto;html=1;rounded=0;endArrow=none;endFill=0;" parent="hj5V9L2vQso6mufphsfm-446" edge="1">
                    <mxGeometry width="80" relative="1" as="geometry">
                        <mxPoint x="20" y="10" as="sourcePoint"/>
                        <mxPoint x="10" as="targetPoint"/>
                        <Array as="points"/>
                    </mxGeometry>
                </mxCell>
                <mxCell id="hj5V9L2vQso6mufphsfm-454" value="" style="edgeStyle=none;orthogonalLoop=1;jettySize=auto;html=1;rounded=0;endArrow=none;endFill=0;" parent="hj5V9L2vQso6mufphsfm-446" edge="1">
                    <mxGeometry width="80" relative="1" as="geometry">
                        <mxPoint x="20" y="30" as="sourcePoint"/>
                        <mxPoint x="10" y="40" as="targetPoint"/>
                        <Array as="points"/>
                    </mxGeometry>
                </mxCell>
                <mxCell id="hj5V9L2vQso6mufphsfm-455" style="edgeStyle=orthogonalEdgeStyle;rounded=0;orthogonalLoop=1;jettySize=auto;html=1;exitX=1;exitY=0.5;exitDx=0;exitDy=0;entryX=0;entryY=0.75;entryDx=0;entryDy=0;" parent="1" source="hj5V9L2vQso6mufphsfm-434" target="hj5V9L2vQso6mufphsfm-436" edge="1">
                    <mxGeometry relative="1" as="geometry">
                        <Array as="points">
                            <mxPoint x="-159.99" y="109"/>
                            <mxPoint x="-159.99" y="99"/>
                        </Array>
                    </mxGeometry>
                </mxCell>
                <mxCell id="hj5V9L2vQso6mufphsfm-458" style="edgeStyle=orthogonalEdgeStyle;rounded=0;orthogonalLoop=1;jettySize=auto;html=1;exitX=1;exitY=0.5;exitDx=0;exitDy=0;entryX=0;entryY=0.75;entryDx=0;entryDy=0;fillColor=#fa6800;strokeColor=#FF8000;startArrow=none;" parent="1" source="6" target="hj5V9L2vQso6mufphsfm-446" edge="1">
                    <mxGeometry relative="1" as="geometry">
                        <mxPoint x="-330" y="159" as="targetPoint"/>
                        <Array as="points">
                            <mxPoint x="-210" y="219"/>
                            <mxPoint x="-210" y="159"/>
                            <mxPoint x="-340" y="159"/>
                            <mxPoint x="-340" y="119"/>
                        </Array>
                    </mxGeometry>
                </mxCell>
                <mxCell id="hj5V9L2vQso6mufphsfm-532" style="edgeStyle=orthogonalEdgeStyle;rounded=0;orthogonalLoop=1;jettySize=auto;html=1;exitX=1;exitY=0.25;exitDx=0;exitDy=0;entryX=0;entryY=0.25;entryDx=0;entryDy=0;" parent="1" source="hj5V9L2vQso6mufphsfm-459" target="hj5V9L2vQso6mufphsfm-519" edge="1">
                    <mxGeometry relative="1" as="geometry">
                        <Array as="points">
                            <mxPoint x="34" y="99"/>
                        </Array>
                    </mxGeometry>
                </mxCell>
                <mxCell id="hj5V9L2vQso6mufphsfm-533" style="edgeStyle=orthogonalEdgeStyle;rounded=0;orthogonalLoop=1;jettySize=auto;html=1;exitX=1;exitY=0.75;exitDx=0;exitDy=0;entryX=0;entryY=0.25;entryDx=0;entryDy=0;" parent="1" source="hj5V9L2vQso6mufphsfm-459" target="hj5V9L2vQso6mufphsfm-484" edge="1">
                    <mxGeometry relative="1" as="geometry">
                        <Array as="points">
                            <mxPoint x="34" y="209"/>
                        </Array>
                    </mxGeometry>
                </mxCell>
                <mxCell id="hj5V9L2vQso6mufphsfm-546" style="edgeStyle=orthogonalEdgeStyle;rounded=0;orthogonalLoop=1;jettySize=auto;html=1;exitX=1;exitY=0.25;exitDx=0;exitDy=0;entryX=0;entryY=0.25;entryDx=0;entryDy=0;startArrow=none;" parent="1" source="20" target="hj5V9L2vQso6mufphsfm-509" edge="1">
                    <mxGeometry relative="1" as="geometry">
                        <Array as="points">
                            <mxPoint x="80" y="79"/>
                        </Array>
                    </mxGeometry>
                </mxCell>
                <mxCell id="hj5V9L2vQso6mufphsfm-547" style="edgeStyle=orthogonalEdgeStyle;rounded=0;orthogonalLoop=1;jettySize=auto;html=1;exitX=1;exitY=0.75;exitDx=0;exitDy=0;entryX=0;entryY=0.25;entryDx=0;entryDy=0;startArrow=none;" parent="1" source="17" target="hj5V9L2vQso6mufphsfm-474" edge="1">
                    <mxGeometry relative="1" as="geometry">
                        <Array as="points">
                            <mxPoint x="80" y="189"/>
                        </Array>
                    </mxGeometry>
                </mxCell>
                <mxCell id="hj5V9L2vQso6mufphsfm-459" value="&lt;div&gt;CORE LOGIC&lt;/div&gt;" style="rounded=0;whiteSpace=wrap;html=1;fillColor=#33FF99;opacity=30;" parent="1" vertex="1">
                    <mxGeometry x="-86" y="39" width="120" height="250" as="geometry"/>
                </mxCell>
                <mxCell id="hj5V9L2vQso6mufphsfm-460" value="" style="rounded=0;whiteSpace=wrap;html=1;fillColor=#999900;dashed=1;opacity=30;" parent="1" vertex="1">
                    <mxGeometry x="70" y="169" width="210" height="90" as="geometry"/>
                </mxCell>
                <mxCell id="hj5V9L2vQso6mufphsfm-461" value="" style="group" parent="1" vertex="1" connectable="0">
                    <mxGeometry x="140" y="209" width="30" height="40" as="geometry"/>
                </mxCell>
                <mxCell id="hj5V9L2vQso6mufphsfm-462" value="" style="whiteSpace=wrap;html=1;container=0;" parent="hj5V9L2vQso6mufphsfm-461" vertex="1">
                    <mxGeometry width="30" height="40" as="geometry"/>
                </mxCell>
                <mxCell id="hj5V9L2vQso6mufphsfm-463" value="" style="edgeStyle=none;orthogonalLoop=1;jettySize=auto;html=1;rounded=0;exitX=-0.001;exitY=0.645;exitDx=0;exitDy=0;exitPerimeter=0;entryX=0.296;entryY=0.752;entryDx=0;entryDy=0;entryPerimeter=0;endArrow=none;endFill=0;" parent="hj5V9L2vQso6mufphsfm-461" edge="1">
                    <mxGeometry width="80" relative="1" as="geometry">
                        <mxPoint y="26" as="sourcePoint"/>
                        <mxPoint x="9.600000000000023" y="30.56000000000006" as="targetPoint"/>
                        <Array as="points"/>
                    </mxGeometry>
                </mxCell>
                <mxCell id="hj5V9L2vQso6mufphsfm-464" value="" style="edgeStyle=none;orthogonalLoop=1;jettySize=auto;html=1;rounded=0;exitX=-0.001;exitY=0.645;exitDx=0;exitDy=0;exitPerimeter=0;entryX=0.025;entryY=0.801;entryDx=0;entryDy=0;entryPerimeter=0;endArrow=none;endFill=0;" parent="hj5V9L2vQso6mufphsfm-461" edge="1">
                    <mxGeometry width="80" relative="1" as="geometry">
                        <mxPoint y="35.39999999999998" as="sourcePoint"/>
                        <mxPoint x="9.5" y="30.480000000000018" as="targetPoint"/>
                        <Array as="points"/>
                    </mxGeometry>
                </mxCell>
                <mxCell id="hj5V9L2vQso6mufphsfm-465" value="D" style="text;strokeColor=none;align=center;fillColor=none;html=1;verticalAlign=middle;whiteSpace=wrap;rounded=0;container=0;" parent="hj5V9L2vQso6mufphsfm-461" vertex="1">
                    <mxGeometry y="4" width="14" height="12" as="geometry"/>
                </mxCell>
                <mxCell id="hj5V9L2vQso6mufphsfm-466" value="Q" style="text;strokeColor=none;align=center;fillColor=none;html=1;verticalAlign=middle;whiteSpace=wrap;rounded=0;container=0;" parent="hj5V9L2vQso6mufphsfm-461" vertex="1">
                    <mxGeometry x="16" y="4" width="14" height="12" as="geometry"/>
                </mxCell>
                <mxCell id="hj5V9L2vQso6mufphsfm-467" value="" style="group" parent="1" vertex="1" connectable="0">
                    <mxGeometry x="190" y="209" width="30" height="40" as="geometry"/>
                </mxCell>
                <mxCell id="hj5V9L2vQso6mufphsfm-468" value="" style="whiteSpace=wrap;html=1;container=0;" parent="hj5V9L2vQso6mufphsfm-467" vertex="1">
                    <mxGeometry width="30" height="40" as="geometry"/>
                </mxCell>
                <mxCell id="hj5V9L2vQso6mufphsfm-469" value="" style="edgeStyle=none;orthogonalLoop=1;jettySize=auto;html=1;rounded=0;exitX=-0.001;exitY=0.645;exitDx=0;exitDy=0;exitPerimeter=0;entryX=0.296;entryY=0.752;entryDx=0;entryDy=0;entryPerimeter=0;endArrow=none;endFill=0;" parent="hj5V9L2vQso6mufphsfm-467" edge="1">
                    <mxGeometry width="80" relative="1" as="geometry">
                        <mxPoint y="26" as="sourcePoint"/>
                        <mxPoint x="9.600000000000023" y="30.56000000000006" as="targetPoint"/>
                        <Array as="points"/>
                    </mxGeometry>
                </mxCell>
                <mxCell id="hj5V9L2vQso6mufphsfm-470" value="" style="edgeStyle=none;orthogonalLoop=1;jettySize=auto;html=1;rounded=0;exitX=-0.001;exitY=0.645;exitDx=0;exitDy=0;exitPerimeter=0;entryX=0.025;entryY=0.801;entryDx=0;entryDy=0;entryPerimeter=0;endArrow=none;endFill=0;" parent="hj5V9L2vQso6mufphsfm-467" edge="1">
                    <mxGeometry width="80" relative="1" as="geometry">
                        <mxPoint y="35.39999999999998" as="sourcePoint"/>
                        <mxPoint x="9.5" y="30.480000000000018" as="targetPoint"/>
                        <Array as="points"/>
                    </mxGeometry>
                </mxCell>
                <mxCell id="hj5V9L2vQso6mufphsfm-471" value="D" style="text;strokeColor=none;align=center;fillColor=none;html=1;verticalAlign=middle;whiteSpace=wrap;rounded=0;container=0;" parent="hj5V9L2vQso6mufphsfm-467" vertex="1">
                    <mxGeometry y="4" width="14" height="12" as="geometry"/>
                </mxCell>
                <mxCell id="hj5V9L2vQso6mufphsfm-472" value="Q" style="text;strokeColor=none;align=center;fillColor=none;html=1;verticalAlign=middle;whiteSpace=wrap;rounded=0;container=0;" parent="hj5V9L2vQso6mufphsfm-467" vertex="1">
                    <mxGeometry x="16" y="4" width="14" height="12" as="geometry"/>
                </mxCell>
                <mxCell id="hj5V9L2vQso6mufphsfm-473" style="edgeStyle=orthogonalEdgeStyle;rounded=0;orthogonalLoop=1;jettySize=auto;html=1;exitX=1;exitY=0.5;exitDx=0;exitDy=0;entryX=0;entryY=0.5;entryDx=0;entryDy=0;endArrow=none;endFill=0;startArrow=none;" parent="1" source="12" target="hj5V9L2vQso6mufphsfm-471" edge="1">
                    <mxGeometry relative="1" as="geometry"/>
                </mxCell>
                <mxCell id="hj5V9L2vQso6mufphsfm-545" style="edgeStyle=orthogonalEdgeStyle;rounded=0;orthogonalLoop=1;jettySize=auto;html=1;exitX=1;exitY=0.5;exitDx=0;exitDy=0;entryX=0;entryY=0.5;entryDx=0;entryDy=0;" parent="1" source="hj5V9L2vQso6mufphsfm-474" target="BuRNvV0W3GMk6oM7O5ki-38" edge="1">
                    <mxGeometry relative="1" as="geometry">
                        <mxPoint x="570" y="199" as="targetPoint"/>
                    </mxGeometry>
                </mxCell>
                <mxCell id="hj5V9L2vQso6mufphsfm-474" value="" style="group;connectable=1;" parent="1" vertex="1" connectable="0">
                    <mxGeometry x="240" y="179" width="30" height="40" as="geometry"/>
                </mxCell>
                <mxCell id="hj5V9L2vQso6mufphsfm-475" value="" style="edgeStyle=none;orthogonalLoop=1;jettySize=auto;html=1;rounded=0;endArrow=none;endFill=0;" parent="hj5V9L2vQso6mufphsfm-474" edge="1">
                    <mxGeometry width="80" relative="1" as="geometry">
                        <mxPoint x="15" y="5" as="sourcePoint"/>
                        <mxPoint x="15" as="targetPoint"/>
                        <Array as="points"/>
                    </mxGeometry>
                </mxCell>
                <mxCell id="hj5V9L2vQso6mufphsfm-476" value="" style="edgeStyle=none;orthogonalLoop=1;jettySize=auto;html=1;rounded=0;endArrow=none;endFill=0;" parent="hj5V9L2vQso6mufphsfm-474" edge="1">
                    <mxGeometry width="80" relative="1" as="geometry">
                        <mxPoint x="10" y="40" as="sourcePoint"/>
                        <mxPoint x="10" as="targetPoint"/>
                        <Array as="points"/>
                    </mxGeometry>
                </mxCell>
                <mxCell id="hj5V9L2vQso6mufphsfm-477" value="" style="edgeStyle=none;orthogonalLoop=1;jettySize=auto;html=1;rounded=0;endArrow=none;endFill=0;" parent="hj5V9L2vQso6mufphsfm-474" edge="1">
                    <mxGeometry width="80" relative="1" as="geometry">
                        <mxPoint x="20" y="30" as="sourcePoint"/>
                        <mxPoint x="20" y="10" as="targetPoint"/>
                        <Array as="points"/>
                    </mxGeometry>
                </mxCell>
                <mxCell id="hj5V9L2vQso6mufphsfm-478" value="" style="edgeStyle=none;orthogonalLoop=1;jettySize=auto;html=1;rounded=0;endArrow=none;endFill=0;" parent="hj5V9L2vQso6mufphsfm-474" edge="1">
                    <mxGeometry width="80" relative="1" as="geometry">
                        <mxPoint x="30" y="20" as="sourcePoint"/>
                        <mxPoint x="20" y="20" as="targetPoint"/>
                        <Array as="points"/>
                    </mxGeometry>
                </mxCell>
                <mxCell id="hj5V9L2vQso6mufphsfm-479" value="" style="edgeStyle=none;orthogonalLoop=1;jettySize=auto;html=1;rounded=0;endArrow=none;endFill=0;" parent="hj5V9L2vQso6mufphsfm-474" edge="1">
                    <mxGeometry width="80" relative="1" as="geometry">
                        <mxPoint x="10" y="10" as="sourcePoint"/>
                        <mxPoint y="10" as="targetPoint"/>
                        <Array as="points"/>
                    </mxGeometry>
                </mxCell>
                <mxCell id="hj5V9L2vQso6mufphsfm-480" value="" style="edgeStyle=none;orthogonalLoop=1;jettySize=auto;html=1;rounded=0;endArrow=none;endFill=0;" parent="hj5V9L2vQso6mufphsfm-474" edge="1">
                    <mxGeometry width="80" relative="1" as="geometry">
                        <mxPoint x="10" y="30" as="sourcePoint"/>
                        <mxPoint y="30" as="targetPoint"/>
                        <Array as="points"/>
                    </mxGeometry>
                </mxCell>
                <mxCell id="hj5V9L2vQso6mufphsfm-481" value="" style="edgeStyle=none;orthogonalLoop=1;jettySize=auto;html=1;rounded=0;endArrow=none;endFill=0;" parent="hj5V9L2vQso6mufphsfm-474" edge="1">
                    <mxGeometry width="80" relative="1" as="geometry">
                        <mxPoint x="20" y="10" as="sourcePoint"/>
                        <mxPoint x="10" as="targetPoint"/>
                        <Array as="points"/>
                    </mxGeometry>
                </mxCell>
                <mxCell id="hj5V9L2vQso6mufphsfm-482" value="" style="edgeStyle=none;orthogonalLoop=1;jettySize=auto;html=1;rounded=0;endArrow=none;endFill=0;" parent="hj5V9L2vQso6mufphsfm-474" edge="1">
                    <mxGeometry width="80" relative="1" as="geometry">
                        <mxPoint x="20" y="30" as="sourcePoint"/>
                        <mxPoint x="10" y="40" as="targetPoint"/>
                        <Array as="points"/>
                    </mxGeometry>
                </mxCell>
                <mxCell id="hj5V9L2vQso6mufphsfm-483" style="edgeStyle=orthogonalEdgeStyle;rounded=0;orthogonalLoop=1;jettySize=auto;html=1;exitX=1;exitY=0.5;exitDx=0;exitDy=0;entryX=0;entryY=0.5;entryDx=0;entryDy=0;" parent="1" source="hj5V9L2vQso6mufphsfm-484" target="hj5V9L2vQso6mufphsfm-465" edge="1">
                    <mxGeometry relative="1" as="geometry"/>
                </mxCell>
                <mxCell id="hj5V9L2vQso6mufphsfm-484" value="" style="group;connectable=1;" parent="1" vertex="1" connectable="0">
                    <mxGeometry x="100" y="199" width="30" height="40" as="geometry"/>
                </mxCell>
                <mxCell id="hj5V9L2vQso6mufphsfm-485" value="" style="edgeStyle=none;orthogonalLoop=1;jettySize=auto;html=1;rounded=0;endArrow=none;endFill=0;" parent="hj5V9L2vQso6mufphsfm-484" edge="1">
                    <mxGeometry width="80" relative="1" as="geometry">
                        <mxPoint x="15" y="5" as="sourcePoint"/>
                        <mxPoint x="15" as="targetPoint"/>
                        <Array as="points"/>
                    </mxGeometry>
                </mxCell>
                <mxCell id="hj5V9L2vQso6mufphsfm-486" value="" style="edgeStyle=none;orthogonalLoop=1;jettySize=auto;html=1;rounded=0;endArrow=none;endFill=0;" parent="hj5V9L2vQso6mufphsfm-484" edge="1">
                    <mxGeometry width="80" relative="1" as="geometry">
                        <mxPoint x="10" y="40" as="sourcePoint"/>
                        <mxPoint x="10" as="targetPoint"/>
                        <Array as="points"/>
                    </mxGeometry>
                </mxCell>
                <mxCell id="hj5V9L2vQso6mufphsfm-487" value="" style="edgeStyle=none;orthogonalLoop=1;jettySize=auto;html=1;rounded=0;endArrow=none;endFill=0;" parent="hj5V9L2vQso6mufphsfm-484" edge="1">
                    <mxGeometry width="80" relative="1" as="geometry">
                        <mxPoint x="20" y="30" as="sourcePoint"/>
                        <mxPoint x="20" y="10" as="targetPoint"/>
                        <Array as="points"/>
                    </mxGeometry>
                </mxCell>
                <mxCell id="hj5V9L2vQso6mufphsfm-488" value="" style="edgeStyle=none;orthogonalLoop=1;jettySize=auto;html=1;rounded=0;endArrow=none;endFill=0;" parent="hj5V9L2vQso6mufphsfm-484" edge="1">
                    <mxGeometry width="80" relative="1" as="geometry">
                        <mxPoint x="30" y="20" as="sourcePoint"/>
                        <mxPoint x="20" y="20" as="targetPoint"/>
                        <Array as="points"/>
                    </mxGeometry>
                </mxCell>
                <mxCell id="hj5V9L2vQso6mufphsfm-489" value="" style="edgeStyle=none;orthogonalLoop=1;jettySize=auto;html=1;rounded=0;endArrow=none;endFill=0;" parent="hj5V9L2vQso6mufphsfm-484" edge="1">
                    <mxGeometry width="80" relative="1" as="geometry">
                        <mxPoint x="10" y="10" as="sourcePoint"/>
                        <mxPoint y="10" as="targetPoint"/>
                        <Array as="points"/>
                    </mxGeometry>
                </mxCell>
                <mxCell id="hj5V9L2vQso6mufphsfm-490" value="" style="edgeStyle=none;orthogonalLoop=1;jettySize=auto;html=1;rounded=0;endArrow=none;endFill=0;" parent="hj5V9L2vQso6mufphsfm-484" edge="1">
                    <mxGeometry width="80" relative="1" as="geometry">
                        <mxPoint x="10" y="30" as="sourcePoint"/>
                        <mxPoint y="30" as="targetPoint"/>
                        <Array as="points"/>
                    </mxGeometry>
                </mxCell>
                <mxCell id="hj5V9L2vQso6mufphsfm-491" value="" style="edgeStyle=none;orthogonalLoop=1;jettySize=auto;html=1;rounded=0;endArrow=none;endFill=0;" parent="hj5V9L2vQso6mufphsfm-484" edge="1">
                    <mxGeometry width="80" relative="1" as="geometry">
                        <mxPoint x="20" y="10" as="sourcePoint"/>
                        <mxPoint x="10" as="targetPoint"/>
                        <Array as="points"/>
                    </mxGeometry>
                </mxCell>
                <mxCell id="hj5V9L2vQso6mufphsfm-492" value="" style="edgeStyle=none;orthogonalLoop=1;jettySize=auto;html=1;rounded=0;endArrow=none;endFill=0;" parent="hj5V9L2vQso6mufphsfm-484" edge="1">
                    <mxGeometry width="80" relative="1" as="geometry">
                        <mxPoint x="20" y="30" as="sourcePoint"/>
                        <mxPoint x="10" y="40" as="targetPoint"/>
                        <Array as="points"/>
                    </mxGeometry>
                </mxCell>
                <mxCell id="hj5V9L2vQso6mufphsfm-493" style="edgeStyle=orthogonalEdgeStyle;rounded=0;orthogonalLoop=1;jettySize=auto;html=1;exitX=1;exitY=0.5;exitDx=0;exitDy=0;entryX=0;entryY=0.75;entryDx=0;entryDy=0;" parent="1" source="hj5V9L2vQso6mufphsfm-472" target="hj5V9L2vQso6mufphsfm-474" edge="1">
                    <mxGeometry relative="1" as="geometry">
                        <Array as="points">
                            <mxPoint x="230" y="219"/>
                            <mxPoint x="230" y="209"/>
                        </Array>
                    </mxGeometry>
                </mxCell>
                <mxCell id="hj5V9L2vQso6mufphsfm-494" style="edgeStyle=orthogonalEdgeStyle;rounded=0;orthogonalLoop=1;jettySize=auto;html=1;exitX=1;exitY=0.5;exitDx=0;exitDy=0;entryX=0;entryY=0;entryDx=0;entryDy=20;entryPerimeter=0;fillColor=#fa6800;strokeColor=#FF8000;" parent="1" source="hj5V9L2vQso6mufphsfm-466" target="hj5V9L2vQso6mufphsfm-652" edge="1">
                    <mxGeometry relative="1" as="geometry">
                        <mxPoint x="260" y="409" as="targetPoint"/>
                        <Array as="points">
                            <mxPoint x="180" y="219"/>
                            <mxPoint x="180" y="310"/>
                            <mxPoint x="230" y="310"/>
                            <mxPoint x="230" y="410"/>
                        </Array>
                    </mxGeometry>
                </mxCell>
                <mxCell id="hj5V9L2vQso6mufphsfm-495" value="" style="rounded=0;whiteSpace=wrap;html=1;fillColor=#999900;dashed=1;opacity=30;" parent="1" vertex="1">
                    <mxGeometry x="70" y="59" width="210" height="90" as="geometry"/>
                </mxCell>
                <mxCell id="hj5V9L2vQso6mufphsfm-496" value="" style="group" parent="1" vertex="1" connectable="0">
                    <mxGeometry x="140" y="99" width="30" height="40" as="geometry"/>
                </mxCell>
                <mxCell id="hj5V9L2vQso6mufphsfm-497" value="" style="whiteSpace=wrap;html=1;container=0;" parent="hj5V9L2vQso6mufphsfm-496" vertex="1">
                    <mxGeometry width="30" height="40" as="geometry"/>
                </mxCell>
                <mxCell id="hj5V9L2vQso6mufphsfm-498" value="" style="edgeStyle=none;orthogonalLoop=1;jettySize=auto;html=1;rounded=0;exitX=-0.001;exitY=0.645;exitDx=0;exitDy=0;exitPerimeter=0;entryX=0.296;entryY=0.752;entryDx=0;entryDy=0;entryPerimeter=0;endArrow=none;endFill=0;" parent="hj5V9L2vQso6mufphsfm-496" edge="1">
                    <mxGeometry width="80" relative="1" as="geometry">
                        <mxPoint y="26" as="sourcePoint"/>
                        <mxPoint x="9.600000000000023" y="30.56000000000006" as="targetPoint"/>
                        <Array as="points"/>
                    </mxGeometry>
                </mxCell>
                <mxCell id="hj5V9L2vQso6mufphsfm-499" value="" style="edgeStyle=none;orthogonalLoop=1;jettySize=auto;html=1;rounded=0;exitX=-0.001;exitY=0.645;exitDx=0;exitDy=0;exitPerimeter=0;entryX=0.025;entryY=0.801;entryDx=0;entryDy=0;entryPerimeter=0;endArrow=none;endFill=0;" parent="hj5V9L2vQso6mufphsfm-496" edge="1">
                    <mxGeometry width="80" relative="1" as="geometry">
                        <mxPoint y="35.39999999999998" as="sourcePoint"/>
                        <mxPoint x="9.5" y="30.480000000000018" as="targetPoint"/>
                        <Array as="points"/>
                    </mxGeometry>
                </mxCell>
                <mxCell id="hj5V9L2vQso6mufphsfm-500" value="D" style="text;strokeColor=none;align=center;fillColor=none;html=1;verticalAlign=middle;whiteSpace=wrap;rounded=0;container=0;" parent="hj5V9L2vQso6mufphsfm-496" vertex="1">
                    <mxGeometry y="4" width="14" height="12" as="geometry"/>
                </mxCell>
                <mxCell id="hj5V9L2vQso6mufphsfm-501" value="Q" style="text;strokeColor=none;align=center;fillColor=none;html=1;verticalAlign=middle;whiteSpace=wrap;rounded=0;container=0;" parent="hj5V9L2vQso6mufphsfm-496" vertex="1">
                    <mxGeometry x="16" y="4" width="14" height="12" as="geometry"/>
                </mxCell>
                <mxCell id="hj5V9L2vQso6mufphsfm-502" value="" style="group" parent="1" vertex="1" connectable="0">
                    <mxGeometry x="190" y="99" width="30" height="40" as="geometry"/>
                </mxCell>
                <mxCell id="hj5V9L2vQso6mufphsfm-503" value="" style="whiteSpace=wrap;html=1;container=0;" parent="hj5V9L2vQso6mufphsfm-502" vertex="1">
                    <mxGeometry width="30" height="40" as="geometry"/>
                </mxCell>
                <mxCell id="hj5V9L2vQso6mufphsfm-504" value="" style="edgeStyle=none;orthogonalLoop=1;jettySize=auto;html=1;rounded=0;exitX=-0.001;exitY=0.645;exitDx=0;exitDy=0;exitPerimeter=0;entryX=0.296;entryY=0.752;entryDx=0;entryDy=0;entryPerimeter=0;endArrow=none;endFill=0;" parent="hj5V9L2vQso6mufphsfm-502" edge="1">
                    <mxGeometry width="80" relative="1" as="geometry">
                        <mxPoint y="26" as="sourcePoint"/>
                        <mxPoint x="9.600000000000023" y="30.56000000000006" as="targetPoint"/>
                        <Array as="points"/>
                    </mxGeometry>
                </mxCell>
                <mxCell id="hj5V9L2vQso6mufphsfm-505" value="" style="edgeStyle=none;orthogonalLoop=1;jettySize=auto;html=1;rounded=0;exitX=-0.001;exitY=0.645;exitDx=0;exitDy=0;exitPerimeter=0;entryX=0.025;entryY=0.801;entryDx=0;entryDy=0;entryPerimeter=0;endArrow=none;endFill=0;" parent="hj5V9L2vQso6mufphsfm-502" edge="1">
                    <mxGeometry width="80" relative="1" as="geometry">
                        <mxPoint y="35.39999999999998" as="sourcePoint"/>
                        <mxPoint x="9.5" y="30.480000000000018" as="targetPoint"/>
                        <Array as="points"/>
                    </mxGeometry>
                </mxCell>
                <mxCell id="hj5V9L2vQso6mufphsfm-506" value="D" style="text;strokeColor=none;align=center;fillColor=none;html=1;verticalAlign=middle;whiteSpace=wrap;rounded=0;container=0;" parent="hj5V9L2vQso6mufphsfm-502" vertex="1">
                    <mxGeometry y="4" width="14" height="12" as="geometry"/>
                </mxCell>
                <mxCell id="hj5V9L2vQso6mufphsfm-507" value="Q" style="text;strokeColor=none;align=center;fillColor=none;html=1;verticalAlign=middle;whiteSpace=wrap;rounded=0;container=0;" parent="hj5V9L2vQso6mufphsfm-502" vertex="1">
                    <mxGeometry x="16" y="4" width="14" height="12" as="geometry"/>
                </mxCell>
                <mxCell id="hj5V9L2vQso6mufphsfm-508" style="edgeStyle=orthogonalEdgeStyle;rounded=0;orthogonalLoop=1;jettySize=auto;html=1;exitX=1;exitY=0.5;exitDx=0;exitDy=0;entryX=0;entryY=0.5;entryDx=0;entryDy=0;endArrow=none;endFill=0;" parent="1" source="hj5V9L2vQso6mufphsfm-501" target="hj5V9L2vQso6mufphsfm-506" edge="1">
                    <mxGeometry relative="1" as="geometry"/>
                </mxCell>
                <mxCell id="hj5V9L2vQso6mufphsfm-544" style="edgeStyle=orthogonalEdgeStyle;rounded=0;orthogonalLoop=1;jettySize=auto;html=1;exitX=1;exitY=0.5;exitDx=0;exitDy=0;entryX=0;entryY=0.5;entryDx=0;entryDy=0;" parent="1" source="hj5V9L2vQso6mufphsfm-509" target="BuRNvV0W3GMk6oM7O5ki-34" edge="1">
                    <mxGeometry relative="1" as="geometry">
                        <mxPoint x="570" y="89" as="targetPoint"/>
                    </mxGeometry>
                </mxCell>
                <mxCell id="hj5V9L2vQso6mufphsfm-509" value="" style="group;connectable=1;" parent="1" vertex="1" connectable="0">
                    <mxGeometry x="240" y="69" width="30" height="40" as="geometry"/>
                </mxCell>
                <mxCell id="hj5V9L2vQso6mufphsfm-510" value="" style="edgeStyle=none;orthogonalLoop=1;jettySize=auto;html=1;rounded=0;endArrow=none;endFill=0;" parent="hj5V9L2vQso6mufphsfm-509" edge="1">
                    <mxGeometry width="80" relative="1" as="geometry">
                        <mxPoint x="15" y="5" as="sourcePoint"/>
                        <mxPoint x="15" as="targetPoint"/>
                        <Array as="points"/>
                    </mxGeometry>
                </mxCell>
                <mxCell id="hj5V9L2vQso6mufphsfm-511" value="" style="edgeStyle=none;orthogonalLoop=1;jettySize=auto;html=1;rounded=0;endArrow=none;endFill=0;" parent="hj5V9L2vQso6mufphsfm-509" edge="1">
                    <mxGeometry width="80" relative="1" as="geometry">
                        <mxPoint x="10" y="40" as="sourcePoint"/>
                        <mxPoint x="10" as="targetPoint"/>
                        <Array as="points"/>
                    </mxGeometry>
                </mxCell>
                <mxCell id="hj5V9L2vQso6mufphsfm-512" value="" style="edgeStyle=none;orthogonalLoop=1;jettySize=auto;html=1;rounded=0;endArrow=none;endFill=0;" parent="hj5V9L2vQso6mufphsfm-509" edge="1">
                    <mxGeometry width="80" relative="1" as="geometry">
                        <mxPoint x="20" y="30" as="sourcePoint"/>
                        <mxPoint x="20" y="10" as="targetPoint"/>
                        <Array as="points"/>
                    </mxGeometry>
                </mxCell>
                <mxCell id="hj5V9L2vQso6mufphsfm-513" value="" style="edgeStyle=none;orthogonalLoop=1;jettySize=auto;html=1;rounded=0;endArrow=none;endFill=0;" parent="hj5V9L2vQso6mufphsfm-509" edge="1">
                    <mxGeometry width="80" relative="1" as="geometry">
                        <mxPoint x="30" y="20" as="sourcePoint"/>
                        <mxPoint x="20" y="20" as="targetPoint"/>
                        <Array as="points"/>
                    </mxGeometry>
                </mxCell>
                <mxCell id="hj5V9L2vQso6mufphsfm-514" value="" style="edgeStyle=none;orthogonalLoop=1;jettySize=auto;html=1;rounded=0;endArrow=none;endFill=0;" parent="hj5V9L2vQso6mufphsfm-509" edge="1">
                    <mxGeometry width="80" relative="1" as="geometry">
                        <mxPoint x="10" y="10" as="sourcePoint"/>
                        <mxPoint y="10" as="targetPoint"/>
                        <Array as="points"/>
                    </mxGeometry>
                </mxCell>
                <mxCell id="hj5V9L2vQso6mufphsfm-515" value="" style="edgeStyle=none;orthogonalLoop=1;jettySize=auto;html=1;rounded=0;endArrow=none;endFill=0;" parent="hj5V9L2vQso6mufphsfm-509" edge="1">
                    <mxGeometry width="80" relative="1" as="geometry">
                        <mxPoint x="10" y="30" as="sourcePoint"/>
                        <mxPoint y="30" as="targetPoint"/>
                        <Array as="points"/>
                    </mxGeometry>
                </mxCell>
                <mxCell id="hj5V9L2vQso6mufphsfm-516" value="" style="edgeStyle=none;orthogonalLoop=1;jettySize=auto;html=1;rounded=0;endArrow=none;endFill=0;" parent="hj5V9L2vQso6mufphsfm-509" edge="1">
                    <mxGeometry width="80" relative="1" as="geometry">
                        <mxPoint x="20" y="10" as="sourcePoint"/>
                        <mxPoint x="10" as="targetPoint"/>
                        <Array as="points"/>
                    </mxGeometry>
                </mxCell>
                <mxCell id="hj5V9L2vQso6mufphsfm-517" value="" style="edgeStyle=none;orthogonalLoop=1;jettySize=auto;html=1;rounded=0;endArrow=none;endFill=0;" parent="hj5V9L2vQso6mufphsfm-509" edge="1">
                    <mxGeometry width="80" relative="1" as="geometry">
                        <mxPoint x="20" y="30" as="sourcePoint"/>
                        <mxPoint x="10" y="40" as="targetPoint"/>
                        <Array as="points"/>
                    </mxGeometry>
                </mxCell>
                <mxCell id="hj5V9L2vQso6mufphsfm-518" style="edgeStyle=orthogonalEdgeStyle;rounded=0;orthogonalLoop=1;jettySize=auto;html=1;exitX=1;exitY=0.5;exitDx=0;exitDy=0;entryX=0;entryY=0.5;entryDx=0;entryDy=0;" parent="1" source="hj5V9L2vQso6mufphsfm-519" target="hj5V9L2vQso6mufphsfm-500" edge="1">
                    <mxGeometry relative="1" as="geometry"/>
                </mxCell>
                <mxCell id="hj5V9L2vQso6mufphsfm-519" value="" style="group;connectable=1;" parent="1" vertex="1" connectable="0">
                    <mxGeometry x="100" y="89" width="30" height="40" as="geometry"/>
                </mxCell>
                <mxCell id="hj5V9L2vQso6mufphsfm-520" value="" style="edgeStyle=none;orthogonalLoop=1;jettySize=auto;html=1;rounded=0;endArrow=none;endFill=0;" parent="hj5V9L2vQso6mufphsfm-519" edge="1">
                    <mxGeometry width="80" relative="1" as="geometry">
                        <mxPoint x="15" y="5" as="sourcePoint"/>
                        <mxPoint x="15" as="targetPoint"/>
                        <Array as="points"/>
                    </mxGeometry>
                </mxCell>
                <mxCell id="hj5V9L2vQso6mufphsfm-521" value="" style="edgeStyle=none;orthogonalLoop=1;jettySize=auto;html=1;rounded=0;endArrow=none;endFill=0;" parent="hj5V9L2vQso6mufphsfm-519" edge="1">
                    <mxGeometry width="80" relative="1" as="geometry">
                        <mxPoint x="10" y="40" as="sourcePoint"/>
                        <mxPoint x="10" as="targetPoint"/>
                        <Array as="points"/>
                    </mxGeometry>
                </mxCell>
                <mxCell id="hj5V9L2vQso6mufphsfm-522" value="" style="edgeStyle=none;orthogonalLoop=1;jettySize=auto;html=1;rounded=0;endArrow=none;endFill=0;" parent="hj5V9L2vQso6mufphsfm-519" edge="1">
                    <mxGeometry width="80" relative="1" as="geometry">
                        <mxPoint x="20" y="30" as="sourcePoint"/>
                        <mxPoint x="20" y="10" as="targetPoint"/>
                        <Array as="points"/>
                    </mxGeometry>
                </mxCell>
                <mxCell id="hj5V9L2vQso6mufphsfm-523" value="" style="edgeStyle=none;orthogonalLoop=1;jettySize=auto;html=1;rounded=0;endArrow=none;endFill=0;" parent="hj5V9L2vQso6mufphsfm-519" edge="1">
                    <mxGeometry width="80" relative="1" as="geometry">
                        <mxPoint x="30" y="20" as="sourcePoint"/>
                        <mxPoint x="20" y="20" as="targetPoint"/>
                        <Array as="points"/>
                    </mxGeometry>
                </mxCell>
                <mxCell id="hj5V9L2vQso6mufphsfm-524" value="" style="edgeStyle=none;orthogonalLoop=1;jettySize=auto;html=1;rounded=0;endArrow=none;endFill=0;" parent="hj5V9L2vQso6mufphsfm-519" edge="1">
                    <mxGeometry width="80" relative="1" as="geometry">
                        <mxPoint x="10" y="10" as="sourcePoint"/>
                        <mxPoint y="10" as="targetPoint"/>
                        <Array as="points"/>
                    </mxGeometry>
                </mxCell>
                <mxCell id="hj5V9L2vQso6mufphsfm-525" value="" style="edgeStyle=none;orthogonalLoop=1;jettySize=auto;html=1;rounded=0;endArrow=none;endFill=0;" parent="hj5V9L2vQso6mufphsfm-519" edge="1">
                    <mxGeometry width="80" relative="1" as="geometry">
                        <mxPoint x="10" y="30" as="sourcePoint"/>
                        <mxPoint y="30" as="targetPoint"/>
                        <Array as="points"/>
                    </mxGeometry>
                </mxCell>
                <mxCell id="hj5V9L2vQso6mufphsfm-526" value="" style="edgeStyle=none;orthogonalLoop=1;jettySize=auto;html=1;rounded=0;endArrow=none;endFill=0;" parent="hj5V9L2vQso6mufphsfm-519" edge="1">
                    <mxGeometry width="80" relative="1" as="geometry">
                        <mxPoint x="20" y="10" as="sourcePoint"/>
                        <mxPoint x="10" as="targetPoint"/>
                        <Array as="points"/>
                    </mxGeometry>
                </mxCell>
                <mxCell id="hj5V9L2vQso6mufphsfm-527" value="" style="edgeStyle=none;orthogonalLoop=1;jettySize=auto;html=1;rounded=0;endArrow=none;endFill=0;" parent="hj5V9L2vQso6mufphsfm-519" edge="1">
                    <mxGeometry width="80" relative="1" as="geometry">
                        <mxPoint x="20" y="30" as="sourcePoint"/>
                        <mxPoint x="10" y="40" as="targetPoint"/>
                        <Array as="points"/>
                    </mxGeometry>
                </mxCell>
                <mxCell id="hj5V9L2vQso6mufphsfm-528" style="edgeStyle=orthogonalEdgeStyle;rounded=0;orthogonalLoop=1;jettySize=auto;html=1;exitX=1;exitY=0.5;exitDx=0;exitDy=0;entryX=0;entryY=0.75;entryDx=0;entryDy=0;" parent="1" source="hj5V9L2vQso6mufphsfm-507" target="hj5V9L2vQso6mufphsfm-509" edge="1">
                    <mxGeometry relative="1" as="geometry">
                        <Array as="points">
                            <mxPoint x="230" y="109"/>
                            <mxPoint x="230" y="99"/>
                        </Array>
                    </mxGeometry>
                </mxCell>
                <mxCell id="hj5V9L2vQso6mufphsfm-529" style="edgeStyle=orthogonalEdgeStyle;rounded=0;orthogonalLoop=1;jettySize=auto;html=1;exitX=1;exitY=0.5;exitDx=0;exitDy=0;entryX=0;entryY=0.75;entryDx=0;entryDy=0;fillColor=#fa6800;strokeColor=#FF8000;startArrow=none;" parent="1" source="10" target="hj5V9L2vQso6mufphsfm-484" edge="1">
                    <mxGeometry relative="1" as="geometry">
                        <Array as="points">
                            <mxPoint x="180" y="109"/>
                            <mxPoint x="180" y="157"/>
                            <mxPoint x="50" y="157"/>
                            <mxPoint x="50" y="229"/>
                        </Array>
                    </mxGeometry>
                </mxCell>
                <mxCell id="hj5V9L2vQso6mufphsfm-530" style="edgeStyle=orthogonalEdgeStyle;rounded=0;orthogonalLoop=1;jettySize=auto;html=1;exitX=1;exitY=0.5;exitDx=0;exitDy=0;entryX=-0.003;entryY=0.201;entryDx=0;entryDy=0;entryPerimeter=0;" parent="1" source="hj5V9L2vQso6mufphsfm-436" target="hj5V9L2vQso6mufphsfm-459" edge="1">
                    <mxGeometry relative="1" as="geometry"/>
                </mxCell>
                <mxCell id="hj5V9L2vQso6mufphsfm-531" style="edgeStyle=orthogonalEdgeStyle;rounded=0;orthogonalLoop=1;jettySize=auto;html=1;exitX=1;exitY=0.5;exitDx=0;exitDy=0;" parent="1" source="hj5V9L2vQso6mufphsfm-410" edge="1">
                    <mxGeometry relative="1" as="geometry">
                        <mxPoint x="-86" y="199" as="targetPoint"/>
                    </mxGeometry>
                </mxCell>
                <mxCell id="hj5V9L2vQso6mufphsfm-534" style="edgeStyle=orthogonalEdgeStyle;rounded=0;orthogonalLoop=1;jettySize=auto;html=1;exitX=1;exitY=0.5;exitDx=0;exitDy=0;entryX=0;entryY=0.75;entryDx=0;entryDy=0;fillColor=#fa6800;strokeColor=#FF8000;" parent="1" source="hj5V9L2vQso6mufphsfm-428" target="hj5V9L2vQso6mufphsfm-519" edge="1">
                    <mxGeometry relative="1" as="geometry">
                        <Array as="points">
                            <mxPoint x="-210" y="109"/>
                            <mxPoint x="-210" y="19"/>
                            <mxPoint x="50" y="19"/>
                            <mxPoint x="50" y="119"/>
                        </Array>
                    </mxGeometry>
                </mxCell>
                <mxCell id="hj5V9L2vQso6mufphsfm-536" style="edgeStyle=orthogonalEdgeStyle;rounded=0;orthogonalLoop=1;jettySize=auto;html=1;exitX=1;exitY=0.5;exitDx=0;exitDy=0;entryX=0;entryY=0.25;entryDx=0;entryDy=0;" parent="1" target="hj5V9L2vQso6mufphsfm-446" edge="1">
                    <mxGeometry relative="1" as="geometry">
                        <mxPoint x="-580" y="79" as="sourcePoint"/>
                        <Array as="points">
                            <mxPoint x="-310" y="79"/>
                            <mxPoint x="-310" y="99"/>
                        </Array>
                    </mxGeometry>
                </mxCell>
                <mxCell id="hj5V9L2vQso6mufphsfm-537" style="edgeStyle=orthogonalEdgeStyle;rounded=0;orthogonalLoop=1;jettySize=auto;html=1;exitX=1;exitY=0.5;exitDx=0;exitDy=0;entryX=0;entryY=0.25;entryDx=0;entryDy=0;" parent="1" target="hj5V9L2vQso6mufphsfm-436" edge="1">
                    <mxGeometry relative="1" as="geometry">
                        <mxPoint x="-580" y="79" as="sourcePoint"/>
                    </mxGeometry>
                </mxCell>
                <mxCell id="hj5V9L2vQso6mufphsfm-539" style="edgeStyle=orthogonalEdgeStyle;rounded=0;orthogonalLoop=1;jettySize=auto;html=1;exitX=1;exitY=0.5;exitDx=0;exitDy=0;entryX=0;entryY=0.25;entryDx=0;entryDy=0;" parent="1" target="hj5V9L2vQso6mufphsfm-411" edge="1">
                    <mxGeometry relative="1" as="geometry">
                        <mxPoint x="-580" y="189" as="sourcePoint"/>
                        <Array as="points">
                            <mxPoint x="-310" y="189"/>
                            <mxPoint x="-310" y="209"/>
                        </Array>
                    </mxGeometry>
                </mxCell>
                <mxCell id="hj5V9L2vQso6mufphsfm-541" style="edgeStyle=orthogonalEdgeStyle;rounded=0;orthogonalLoop=1;jettySize=auto;html=1;exitX=1;exitY=0.5;exitDx=0;exitDy=0;entryX=0;entryY=0.25;entryDx=0;entryDy=0;" parent="1" target="hj5V9L2vQso6mufphsfm-410" edge="1">
                    <mxGeometry relative="1" as="geometry">
                        <mxPoint x="-580" y="189" as="sourcePoint"/>
                    </mxGeometry>
                </mxCell>
                <mxCell id="hj5V9L2vQso6mufphsfm-548" value="Mode" style="text;strokeColor=none;align=center;fillColor=none;html=1;verticalAlign=middle;whiteSpace=wrap;rounded=0;" parent="1" vertex="1">
                    <mxGeometry x="-149.99" y="169" width="30" height="10" as="geometry"/>
                </mxCell>
                <mxCell id="hj5V9L2vQso6mufphsfm-343" style="edgeStyle=orthogonalEdgeStyle;rounded=0;orthogonalLoop=1;jettySize=auto;html=1;exitX=1;exitY=0.5;exitDx=0;exitDy=0;shape=flexArrow;width=3;endWidth=5.161290322580645;endSize=2.868817204301075;fillColor=default;entryX=0.5;entryY=1;entryDx=0;entryDy=0;entryPerimeter=0;" parent="1" source="hj5V9L2vQso6mufphsfm-341" target="hj5V9L2vQso6mufphsfm-652" edge="1">
                    <mxGeometry relative="1" as="geometry">
                        <mxPoint x="290" y="520" as="targetPoint"/>
                    </mxGeometry>
                </mxCell>
                <mxCell id="hj5V9L2vQso6mufphsfm-556" style="edgeStyle=orthogonalEdgeStyle;rounded=0;orthogonalLoop=1;jettySize=auto;html=1;exitX=1;exitY=0.5;exitDx=0;exitDy=0;endArrow=none;endFill=0;fillColor=#008a00;strokeColor=#33FF33;" parent="1" source="hj5V9L2vQso6mufphsfm-555" edge="1">
                    <mxGeometry relative="1" as="geometry">
                        <mxPoint x="-220" y="978.9896907216496" as="targetPoint"/>
                    </mxGeometry>
                </mxCell>
                <mxCell id="hj5V9L2vQso6mufphsfm-555" value="TCK" style="text;strokeColor=none;align=center;fillColor=none;html=1;verticalAlign=middle;whiteSpace=wrap;rounded=0;" parent="1" vertex="1">
                    <mxGeometry x="-269.99" y="969" width="30" height="20" as="geometry"/>
                </mxCell>
                <mxCell id="hj5V9L2vQso6mufphsfm-558" style="edgeStyle=orthogonalEdgeStyle;rounded=0;orthogonalLoop=1;jettySize=auto;html=1;exitX=1;exitY=0.5;exitDx=0;exitDy=0;endArrow=none;endFill=0;fillColor=#008a00;strokeColor=#33FF33;" parent="1" source="hj5V9L2vQso6mufphsfm-557" edge="1">
                    <mxGeometry relative="1" as="geometry">
                        <mxPoint x="-90" y="728.8085106382978" as="targetPoint"/>
                    </mxGeometry>
                </mxCell>
                <mxCell id="hj5V9L2vQso6mufphsfm-557" value="TCK" style="text;strokeColor=none;align=center;fillColor=none;html=1;verticalAlign=middle;whiteSpace=wrap;rounded=0;" parent="1" vertex="1">
                    <mxGeometry x="-130.62" y="719" width="30" height="20" as="geometry"/>
                </mxCell>
                <mxCell id="hj5V9L2vQso6mufphsfm-563" style="edgeStyle=orthogonalEdgeStyle;rounded=0;orthogonalLoop=1;jettySize=auto;html=1;exitX=0.5;exitY=0;exitDx=0;exitDy=0;entryX=0;entryY=0.75;entryDx=0;entryDy=0;fillColor=#60a917;strokeColor=#33FF33;" parent="1" source="hj5V9L2vQso6mufphsfm-561" target="hj5V9L2vQso6mufphsfm-376" edge="1">
                    <mxGeometry relative="1" as="geometry">
                        <Array as="points">
                            <mxPoint x="-266" y="269"/>
                            <mxPoint x="-266" y="239"/>
                        </Array>
                    </mxGeometry>
                </mxCell>
                <mxCell id="hj5V9L2vQso6mufphsfm-561" value="TCK" style="text;strokeColor=none;align=center;fillColor=none;html=1;verticalAlign=middle;whiteSpace=wrap;rounded=0;" parent="1" vertex="1">
                    <mxGeometry x="-281" y="269" width="29.99" height="20" as="geometry"/>
                </mxCell>
                <mxCell id="hj5V9L2vQso6mufphsfm-564" style="edgeStyle=orthogonalEdgeStyle;rounded=0;orthogonalLoop=1;jettySize=auto;html=1;exitX=0.5;exitY=0;exitDx=0;exitDy=0;entryX=0;entryY=0.75;entryDx=0;entryDy=0;" parent="1" source="hj5V9L2vQso6mufphsfm-562" target="hj5V9L2vQso6mufphsfm-387" edge="1">
                    <mxGeometry relative="1" as="geometry">
                        <Array as="points">
                            <mxPoint x="-215" y="239"/>
                        </Array>
                    </mxGeometry>
                </mxCell>
                <mxCell id="hj5V9L2vQso6mufphsfm-562" value="UpdateDR" style="text;strokeColor=none;align=center;fillColor=none;html=1;verticalAlign=middle;whiteSpace=wrap;rounded=0;" parent="1" vertex="1">
                    <mxGeometry x="-235" y="269" width="40" height="20" as="geometry"/>
                </mxCell>
                <mxCell id="hj5V9L2vQso6mufphsfm-567" style="edgeStyle=orthogonalEdgeStyle;rounded=0;orthogonalLoop=1;jettySize=auto;html=1;exitX=0.5;exitY=1;exitDx=0;exitDy=0;entryX=0.5;entryY=0;entryDx=0;entryDy=0;" parent="1" source="hj5V9L2vQso6mufphsfm-568" edge="1">
                    <mxGeometry relative="1" as="geometry">
                        <mxPoint x="-274.99" y="199" as="targetPoint"/>
                    </mxGeometry>
                </mxCell>
                <mxCell id="hj5V9L2vQso6mufphsfm-568" value="ShiftDR" style="text;strokeColor=none;align=center;fillColor=none;html=1;verticalAlign=middle;whiteSpace=wrap;rounded=0;" parent="1" vertex="1">
                    <mxGeometry x="-289.99" y="169" width="30" height="10" as="geometry"/>
                </mxCell>
                <mxCell id="hj5V9L2vQso6mufphsfm-569" value="IDCODE INST" style="text;strokeColor=none;align=center;fillColor=none;html=1;verticalAlign=middle;whiteSpace=wrap;rounded=0;" parent="1" vertex="1">
                    <mxGeometry x="-330" y="874" width="44" height="30" as="geometry"/>
                </mxCell>
                <mxCell id="hj5V9L2vQso6mufphsfm-165" style="edgeStyle=orthogonalEdgeStyle;rounded=0;orthogonalLoop=1;jettySize=auto;html=1;exitX=0;exitY=0.75;exitDx=0;exitDy=0;entryX=0;entryY=0.75;entryDx=0;entryDy=0;endArrow=classic;endFill=1;fillColor=#008a00;strokeColor=#33FF33;startArrow=classic;startFill=1;" parent="1" source="hj5V9L2vQso6mufphsfm-110" target="hj5V9L2vQso6mufphsfm-79" edge="1">
                    <mxGeometry relative="1" as="geometry">
                        <Array as="points">
                            <mxPoint x="-120" y="949"/>
                            <mxPoint x="-120" y="979"/>
                            <mxPoint x="-220" y="979"/>
                            <mxPoint x="-220" y="949"/>
                        </Array>
                    </mxGeometry>
                </mxCell>
                <mxCell id="hj5V9L2vQso6mufphsfm-571" value="CaptureIR&amp;amp;ShiftIR" style="text;strokeColor=none;align=center;fillColor=none;html=1;verticalAlign=middle;whiteSpace=wrap;rounded=0;" parent="1" vertex="1">
                    <mxGeometry x="-286" y="952" width="30" height="9" as="geometry"/>
                </mxCell>
                <mxCell id="hj5V9L2vQso6mufphsfm-574" style="edgeStyle=orthogonalEdgeStyle;rounded=0;orthogonalLoop=1;jettySize=auto;html=1;exitX=0.5;exitY=0;exitDx=0;exitDy=0;entryX=0.5;entryY=1;entryDx=0;entryDy=0;endArrow=none;endFill=0;" parent="1" source="hj5V9L2vQso6mufphsfm-572" target="hj5V9L2vQso6mufphsfm-573" edge="1">
                    <mxGeometry relative="1" as="geometry"/>
                </mxCell>
                <mxCell id="hj5V9L2vQso6mufphsfm-572" value="UpdateIR" style="text;strokeColor=none;align=center;fillColor=none;html=1;verticalAlign=middle;whiteSpace=wrap;rounded=0;" parent="1" vertex="1">
                    <mxGeometry x="-93.5" y="979" width="55" height="10" as="geometry"/>
                </mxCell>
                <mxCell id="hj5V9L2vQso6mufphsfm-575" value="&lt;i&gt;&lt;font style=&quot;font-size: 18px;&quot;&gt;&lt;b&gt;INSTRUCTIONS&amp;nbsp; REGISTER&lt;/b&gt;&lt;/font&gt;&lt;/i&gt;" style="text;strokeColor=none;align=center;fillColor=none;html=1;verticalAlign=middle;whiteSpace=wrap;rounded=0;" parent="1" vertex="1">
                    <mxGeometry x="-144" y="1009" width="244" height="20" as="geometry"/>
                </mxCell>
                <mxCell id="hj5V9L2vQso6mufphsfm-576" value="&lt;i&gt;&lt;font style=&quot;font-size: 18px;&quot;&gt;&lt;b&gt;USER&amp;nbsp; REGISTER 0&lt;/b&gt;&lt;/font&gt;&lt;/i&gt;" style="text;strokeColor=none;align=center;fillColor=none;html=1;verticalAlign=middle;whiteSpace=wrap;rounded=0;" parent="1" vertex="1">
                    <mxGeometry x="-30" y="749" width="170" height="20" as="geometry"/>
                </mxCell>
                <mxCell id="hj5V9L2vQso6mufphsfm-577" value="&lt;i&gt;&lt;font style=&quot;font-size: 18px;&quot;&gt;&lt;b&gt;USER&amp;nbsp; REGISTER n&lt;/b&gt;&lt;/font&gt;&lt;/i&gt;" style="text;strokeColor=none;align=center;fillColor=none;html=1;verticalAlign=middle;whiteSpace=wrap;rounded=0;" parent="1" vertex="1">
                    <mxGeometry x="-40" y="809" width="180" height="20" as="geometry"/>
                </mxCell>
                <mxCell id="hj5V9L2vQso6mufphsfm-578" value="&lt;i&gt;&lt;font style=&quot;font-size: 18px;&quot;&gt;&lt;b&gt;IDCODE&amp;nbsp; REGISTER&lt;/b&gt;&lt;/font&gt;&lt;/i&gt;" style="text;strokeColor=none;align=center;fillColor=none;html=1;verticalAlign=middle;whiteSpace=wrap;rounded=0;" parent="1" vertex="1">
                    <mxGeometry x="-20.619999999999997" y="583" width="180" height="20" as="geometry"/>
                </mxCell>
                <mxCell id="hj5V9L2vQso6mufphsfm-579" value="&lt;i&gt;&lt;font style=&quot;font-size: 18px;&quot;&gt;&lt;b&gt;BYPASS&amp;nbsp; REGISTER&lt;/b&gt;&lt;/font&gt;&lt;/i&gt;" style="text;strokeColor=none;align=center;fillColor=none;html=1;verticalAlign=middle;whiteSpace=wrap;rounded=0;" parent="1" vertex="1">
                    <mxGeometry x="-50" y="419" width="180" height="20" as="geometry"/>
                </mxCell>
                <mxCell id="hj5V9L2vQso6mufphsfm-580" value="&lt;span style=&quot;font-size: 18px;&quot;&gt;&lt;b&gt;&lt;i&gt;BOUNDARY SCAN REGISTER&lt;/i&gt;&lt;/b&gt;&lt;/span&gt;" style="text;strokeColor=none;align=center;fillColor=none;html=1;verticalAlign=middle;whiteSpace=wrap;rounded=0;" parent="1" vertex="1">
                    <mxGeometry x="-366.62" y="39" width="266" height="20" as="geometry"/>
                </mxCell>
                <mxCell id="hj5V9L2vQso6mufphsfm-581" style="edgeStyle=orthogonalEdgeStyle;rounded=0;orthogonalLoop=1;jettySize=auto;html=1;exitX=1;exitY=0.5;exitDx=0;exitDy=0;shape=flexArrow;endArrow=block;endFill=0;width=4;fillColor=default;endWidth=8.524590163934427;endSize=2.695081967213115;" parent="1" source="hj5V9L2vQso6mufphsfm-160" edge="1">
                    <mxGeometry relative="1" as="geometry">
                        <mxPoint x="170" y="659" as="targetPoint"/>
                        <mxPoint x="120" y="658.83" as="sourcePoint"/>
                    </mxGeometry>
                </mxCell>
                <mxCell id="hj5V9L2vQso6mufphsfm-584" value="TCK" style="text;strokeColor=none;align=center;fillColor=none;html=1;verticalAlign=middle;whiteSpace=wrap;rounded=0;" parent="1" vertex="1">
                    <mxGeometry x="-30" y="379" width="30" height="20" as="geometry"/>
                </mxCell>
                <mxCell id="hj5V9L2vQso6mufphsfm-586" style="edgeStyle=orthogonalEdgeStyle;rounded=0;orthogonalLoop=1;jettySize=auto;html=1;exitX=1;exitY=0.5;exitDx=0;exitDy=0;entryX=0;entryY=0.25;entryDx=0;entryDy=0;entryPerimeter=0;" parent="1" source="hj5V9L2vQso6mufphsfm-14" target="hj5V9L2vQso6mufphsfm-13" edge="1">
                    <mxGeometry relative="1" as="geometry"/>
                </mxCell>
                <mxCell id="hj5V9L2vQso6mufphsfm-587" style="edgeStyle=orthogonalEdgeStyle;rounded=0;orthogonalLoop=1;jettySize=auto;html=1;exitX=1;exitY=0.5;exitDx=0;exitDy=0;entryX=0.199;entryY=0.751;entryDx=0;entryDy=0;entryPerimeter=0;fillColor=#008a00;strokeColor=#33FF33;" parent="1" source="hj5V9L2vQso6mufphsfm-584" target="hj5V9L2vQso6mufphsfm-13" edge="1">
                    <mxGeometry relative="1" as="geometry"/>
                </mxCell>
                <mxCell id="hj5V9L2vQso6mufphsfm-588" style="edgeStyle=orthogonalEdgeStyle;rounded=0;orthogonalLoop=1;jettySize=auto;html=1;exitX=0.5;exitY=0;exitDx=0;exitDy=0;entryX=0;entryY=0.5;entryDx=0;entryDy=0;fillColor=#008a00;strokeColor=#33FF33;" parent="1" source="hj5V9L2vQso6mufphsfm-589" target="hj5V9L2vQso6mufphsfm-337" edge="1">
                    <mxGeometry relative="1" as="geometry">
                        <mxPoint x="325" y="889.13" as="sourcePoint"/>
                        <mxPoint x="355" y="889.13" as="targetPoint"/>
                        <Array as="points">
                            <mxPoint x="335" y="890"/>
                        </Array>
                    </mxGeometry>
                </mxCell>
                <mxCell id="hj5V9L2vQso6mufphsfm-589" value="TCK" style="text;strokeColor=none;align=center;fillColor=none;html=1;verticalAlign=middle;whiteSpace=wrap;rounded=0;" parent="1" vertex="1">
                    <mxGeometry x="320" y="900" width="30" height="20" as="geometry"/>
                </mxCell>
                <mxCell id="hj5V9L2vQso6mufphsfm-590" value="。。。" style="text;strokeColor=none;align=center;fillColor=none;html=1;verticalAlign=middle;whiteSpace=wrap;rounded=0;rotation=-90;" parent="1" vertex="1">
                    <mxGeometry x="-80.62" y="749" width="60" height="30" as="geometry"/>
                </mxCell>
                <mxCell id="hj5V9L2vQso6mufphsfm-602" value="ShiftDR" style="text;strokeColor=none;align=center;fillColor=none;html=1;verticalAlign=middle;whiteSpace=wrap;rounded=0;" parent="1" vertex="1">
                    <mxGeometry x="-70" y="389" width="40" height="20" as="geometry"/>
                </mxCell>
                <mxCell id="hj5V9L2vQso6mufphsfm-605" style="edgeStyle=orthogonalEdgeStyle;rounded=0;orthogonalLoop=1;jettySize=auto;html=1;exitX=1;exitY=0.5;exitDx=0;exitDy=0;entryX=0;entryY=0.25;entryDx=0;entryDy=0;shape=link;" parent="1" source="hj5V9L2vQso6mufphsfm-603" target="hj5V9L2vQso6mufphsfm-52" edge="1">
                    <mxGeometry relative="1" as="geometry"/>
                </mxCell>
                <mxCell id="hj5V9L2vQso6mufphsfm-603" value="Device ID" style="text;strokeColor=none;align=center;fillColor=none;html=1;verticalAlign=middle;whiteSpace=wrap;rounded=0;" parent="1" vertex="1">
                    <mxGeometry x="-120" y="469" width="54" height="20" as="geometry"/>
                </mxCell>
                <mxCell id="hj5V9L2vQso6mufphsfm-613" style="edgeStyle=orthogonalEdgeStyle;rounded=0;orthogonalLoop=1;jettySize=auto;html=1;exitX=1;exitY=0.5;exitDx=0;exitDy=0;entryX=0.003;entryY=0.562;entryDx=0;entryDy=0;entryPerimeter=0;fillColor=#008a00;strokeColor=#33FF33;" parent="1" target="hj5V9L2vQso6mufphsfm-220" edge="1">
                    <mxGeometry relative="1" as="geometry">
                        <mxPoint x="-580" y="1099" as="sourcePoint"/>
                    </mxGeometry>
                </mxCell>
                <mxCell id="hj5V9L2vQso6mufphsfm-614" style="edgeStyle=orthogonalEdgeStyle;rounded=0;orthogonalLoop=1;jettySize=auto;html=1;exitX=1;exitY=0.5;exitDx=0;exitDy=0;entryX=0;entryY=0.848;entryDx=0;entryDy=0;entryPerimeter=0;" parent="1" target="hj5V9L2vQso6mufphsfm-220" edge="1">
                    <mxGeometry relative="1" as="geometry">
                        <mxPoint x="-580" y="1119" as="sourcePoint"/>
                    </mxGeometry>
                </mxCell>
                <mxCell id="hj5V9L2vQso6mufphsfm-618" value="UpdateIR / ShiftIR / CaptureIR" style="text;strokeColor=none;align=center;fillColor=none;html=1;verticalAlign=middle;whiteSpace=wrap;rounded=0;" parent="1" vertex="1">
                    <mxGeometry x="30" y="1074" width="170" height="10" as="geometry"/>
                </mxCell>
                <mxCell id="hj5V9L2vQso6mufphsfm-619" value="UpdateDR / ShiftDR / CaptureDR" style="text;strokeColor=none;align=center;fillColor=none;html=1;verticalAlign=middle;whiteSpace=wrap;rounded=0;" parent="1" vertex="1">
                    <mxGeometry x="30" y="1090" width="185" height="10" as="geometry"/>
                </mxCell>
                <mxCell id="hj5V9L2vQso6mufphsfm-622" style="edgeStyle=orthogonalEdgeStyle;rounded=0;orthogonalLoop=1;jettySize=auto;html=1;fillColor=#d80073;strokeColor=#A50040;endArrow=none;endFill=0;" parent="1" source="hj5V9L2vQso6mufphsfm-628" edge="1">
                    <mxGeometry relative="1" as="geometry">
                        <mxPoint x="-580" y="1079" as="sourcePoint"/>
                        <mxPoint x="-400" y="430" as="targetPoint"/>
                        <Array as="points">
                            <mxPoint x="-400" y="430"/>
                            <mxPoint x="-400" y="430"/>
                        </Array>
                    </mxGeometry>
                </mxCell>
                <mxCell id="hj5V9L2vQso6mufphsfm-623" value="" style="ellipse;whiteSpace=wrap;html=1;fillColor=#d80073;fontColor=#ffffff;strokeColor=#A50040;" parent="1" vertex="1">
                    <mxGeometry x="-403" y="487" width="6" height="6" as="geometry"/>
                </mxCell>
                <mxCell id="hj5V9L2vQso6mufphsfm-626" value="" style="edgeStyle=orthogonalEdgeStyle;rounded=0;orthogonalLoop=1;jettySize=auto;html=1;fillColor=#d80073;strokeColor=#A50040;endArrow=none;endFill=0;" parent="1" source="hj5V9L2vQso6mufphsfm-630" target="hj5V9L2vQso6mufphsfm-625" edge="1">
                    <mxGeometry relative="1" as="geometry">
                        <mxPoint x="-580" y="1079" as="sourcePoint"/>
                        <mxPoint x="-400" y="430" as="targetPoint"/>
                        <Array as="points"/>
                    </mxGeometry>
                </mxCell>
                <mxCell id="hj5V9L2vQso6mufphsfm-625" value="" style="ellipse;whiteSpace=wrap;html=1;fillColor=#d80073;fontColor=#ffffff;strokeColor=#A50040;rotation=0;" parent="1" vertex="1">
                    <mxGeometry x="-403" y="467" width="6" height="6" as="geometry"/>
                </mxCell>
                <mxCell id="hj5V9L2vQso6mufphsfm-627" value="" style="ellipse;whiteSpace=wrap;html=1;fillColor=#d80073;fontColor=#ffffff;strokeColor=#A50040;" parent="1" vertex="1">
                    <mxGeometry x="-403" y="448" width="6" height="6" as="geometry"/>
                </mxCell>
                <mxCell id="hj5V9L2vQso6mufphsfm-629" value="" style="edgeStyle=orthogonalEdgeStyle;rounded=0;orthogonalLoop=1;jettySize=auto;html=1;fillColor=#d80073;strokeColor=#A50040;endArrow=none;endFill=0;" parent="1" source="hj5V9L2vQso6mufphsfm-625" target="hj5V9L2vQso6mufphsfm-628" edge="1">
                    <mxGeometry relative="1" as="geometry">
                        <mxPoint x="-400" y="467" as="sourcePoint"/>
                        <mxPoint x="-400" y="430" as="targetPoint"/>
                        <Array as="points"/>
                    </mxGeometry>
                </mxCell>
                <mxCell id="hj5V9L2vQso6mufphsfm-628" value="" style="ellipse;whiteSpace=wrap;html=1;fillColor=#d80073;fontColor=#ffffff;strokeColor=#A50040;" parent="1" vertex="1">
                    <mxGeometry x="-403" y="427" width="6" height="6" as="geometry"/>
                </mxCell>
                <mxCell id="hj5V9L2vQso6mufphsfm-631" value="" style="edgeStyle=orthogonalEdgeStyle;rounded=0;orthogonalLoop=1;jettySize=auto;html=1;fillColor=#d80073;strokeColor=#A50040;endArrow=none;endFill=0;exitX=1;exitY=0.5;exitDx=0;exitDy=0;" parent="1" target="hj5V9L2vQso6mufphsfm-630" edge="1">
                    <mxGeometry relative="1" as="geometry">
                        <mxPoint x="-580" y="1079" as="sourcePoint"/>
                        <mxPoint x="-400" y="473" as="targetPoint"/>
                        <Array as="points"/>
                    </mxGeometry>
                </mxCell>
                <mxCell id="hj5V9L2vQso6mufphsfm-630" value="" style="ellipse;whiteSpace=wrap;html=1;fillColor=#d80073;fontColor=#ffffff;strokeColor=#A50040;" parent="1" vertex="1">
                    <mxGeometry x="-403" y="915" width="6" height="6" as="geometry"/>
                </mxCell>
                <mxCell id="hj5V9L2vQso6mufphsfm-652" value="" style="group;connectable=1;points=[[0,0,0,0,0],[0,0,0,0,20],[0,0,0,0,40],[0,0,0,0,60],[0,0,0,0,80],[0,0,0,0,100],[0,0,0,0,120],[0,1,0,0,0],[0.5,1,0,0,0],[1,0.5,0,0,0]];" parent="1" vertex="1" connectable="0">
                    <mxGeometry x="260" y="390" width="60" height="140" as="geometry"/>
                </mxCell>
                <mxCell id="hj5V9L2vQso6mufphsfm-633" value="" style="edgeStyle=none;orthogonalLoop=1;jettySize=auto;html=1;rounded=0;endArrow=none;endFill=0;" parent="hj5V9L2vQso6mufphsfm-652" edge="1">
                    <mxGeometry width="80" relative="1" as="geometry">
                        <mxPoint x="30" y="140" as="sourcePoint"/>
                        <mxPoint x="30" y="130" as="targetPoint"/>
                        <Array as="points"/>
                    </mxGeometry>
                </mxCell>
                <mxCell id="hj5V9L2vQso6mufphsfm-634" value="" style="edgeStyle=none;orthogonalLoop=1;jettySize=auto;html=1;rounded=0;endArrow=none;endFill=0;" parent="hj5V9L2vQso6mufphsfm-652" edge="1">
                    <mxGeometry width="80" relative="1" as="geometry">
                        <mxPoint x="20" y="140" as="sourcePoint"/>
                        <mxPoint x="20" as="targetPoint"/>
                        <Array as="points"/>
                    </mxGeometry>
                </mxCell>
                <mxCell id="hj5V9L2vQso6mufphsfm-635" value="" style="edgeStyle=none;orthogonalLoop=1;jettySize=auto;html=1;rounded=0;endArrow=none;endFill=0;" parent="hj5V9L2vQso6mufphsfm-652" edge="1">
                    <mxGeometry width="80" relative="1" as="geometry">
                        <mxPoint x="40" y="120" as="sourcePoint"/>
                        <mxPoint x="40" y="20" as="targetPoint"/>
                        <Array as="points"/>
                    </mxGeometry>
                </mxCell>
                <mxCell id="hj5V9L2vQso6mufphsfm-636" value="" style="edgeStyle=none;orthogonalLoop=1;jettySize=auto;html=1;rounded=0;endArrow=none;endFill=0;" parent="hj5V9L2vQso6mufphsfm-652" edge="1">
                    <mxGeometry width="80" relative="1" as="geometry">
                        <mxPoint x="60" y="70" as="sourcePoint"/>
                        <mxPoint x="40" y="70" as="targetPoint"/>
                        <Array as="points"/>
                    </mxGeometry>
                </mxCell>
                <mxCell id="hj5V9L2vQso6mufphsfm-637" value="" style="edgeStyle=none;orthogonalLoop=1;jettySize=auto;html=1;rounded=0;endArrow=none;endFill=0;" parent="hj5V9L2vQso6mufphsfm-652" edge="1">
                    <mxGeometry width="80" relative="1" as="geometry">
                        <mxPoint x="20" y="20" as="sourcePoint"/>
                        <mxPoint y="20" as="targetPoint"/>
                        <Array as="points"/>
                    </mxGeometry>
                </mxCell>
                <mxCell id="hj5V9L2vQso6mufphsfm-638" value="" style="edgeStyle=none;orthogonalLoop=1;jettySize=auto;html=1;rounded=0;endArrow=none;endFill=0;" parent="hj5V9L2vQso6mufphsfm-652" edge="1">
                    <mxGeometry width="80" relative="1" as="geometry">
                        <mxPoint x="20" y="60" as="sourcePoint"/>
                        <mxPoint y="60" as="targetPoint"/>
                        <Array as="points"/>
                    </mxGeometry>
                </mxCell>
                <mxCell id="hj5V9L2vQso6mufphsfm-639" value="" style="edgeStyle=none;orthogonalLoop=1;jettySize=auto;html=1;rounded=0;endArrow=none;endFill=0;" parent="hj5V9L2vQso6mufphsfm-652" edge="1">
                    <mxGeometry width="80" relative="1" as="geometry">
                        <mxPoint x="40" y="20" as="sourcePoint"/>
                        <mxPoint x="20" as="targetPoint"/>
                        <Array as="points"/>
                    </mxGeometry>
                </mxCell>
                <mxCell id="hj5V9L2vQso6mufphsfm-641" value="0" style="text;strokeColor=none;align=center;fillColor=none;html=1;verticalAlign=middle;whiteSpace=wrap;rounded=0;container=0;" parent="hj5V9L2vQso6mufphsfm-652" vertex="1">
                    <mxGeometry x="24" y="10" width="10" height="20" as="geometry"/>
                </mxCell>
                <mxCell id="hj5V9L2vQso6mufphsfm-642" value="2" style="text;strokeColor=none;align=center;fillColor=none;html=1;verticalAlign=middle;whiteSpace=wrap;rounded=0;container=0;" parent="hj5V9L2vQso6mufphsfm-652" vertex="1">
                    <mxGeometry x="24" y="50" width="10" height="20" as="geometry"/>
                </mxCell>
                <mxCell id="hj5V9L2vQso6mufphsfm-643" value="" style="edgeStyle=none;orthogonalLoop=1;jettySize=auto;html=1;rounded=0;endArrow=none;endFill=0;" parent="hj5V9L2vQso6mufphsfm-652" edge="1">
                    <mxGeometry width="80" relative="1" as="geometry">
                        <mxPoint x="20" y="40" as="sourcePoint"/>
                        <mxPoint y="40" as="targetPoint"/>
                        <Array as="points"/>
                    </mxGeometry>
                </mxCell>
                <mxCell id="hj5V9L2vQso6mufphsfm-644" value="1" style="text;strokeColor=none;align=center;fillColor=none;html=1;verticalAlign=middle;whiteSpace=wrap;rounded=0;container=0;" parent="hj5V9L2vQso6mufphsfm-652" vertex="1">
                    <mxGeometry x="24" y="30" width="10" height="20" as="geometry"/>
                </mxCell>
                <mxCell id="hj5V9L2vQso6mufphsfm-645" value="" style="edgeStyle=none;orthogonalLoop=1;jettySize=auto;html=1;rounded=0;endArrow=none;endFill=0;" parent="hj5V9L2vQso6mufphsfm-652" edge="1">
                    <mxGeometry width="80" relative="1" as="geometry">
                        <mxPoint x="20" y="80" as="sourcePoint"/>
                        <mxPoint y="80" as="targetPoint"/>
                        <Array as="points"/>
                    </mxGeometry>
                </mxCell>
                <mxCell id="hj5V9L2vQso6mufphsfm-646" value="3" style="text;strokeColor=none;align=center;fillColor=none;html=1;verticalAlign=middle;whiteSpace=wrap;rounded=0;container=0;" parent="hj5V9L2vQso6mufphsfm-652" vertex="1">
                    <mxGeometry x="24" y="70" width="10" height="20" as="geometry"/>
                </mxCell>
                <mxCell id="hj5V9L2vQso6mufphsfm-647" value="" style="edgeStyle=none;orthogonalLoop=1;jettySize=auto;html=1;rounded=0;endArrow=none;endFill=0;" parent="hj5V9L2vQso6mufphsfm-652" edge="1">
                    <mxGeometry width="80" relative="1" as="geometry">
                        <mxPoint x="20" y="100" as="sourcePoint"/>
                        <mxPoint y="100" as="targetPoint"/>
                        <Array as="points"/>
                    </mxGeometry>
                </mxCell>
                <mxCell id="hj5V9L2vQso6mufphsfm-648" value="4" style="text;strokeColor=none;align=center;fillColor=none;html=1;verticalAlign=middle;whiteSpace=wrap;rounded=0;container=0;" parent="hj5V9L2vQso6mufphsfm-652" vertex="1">
                    <mxGeometry x="24" y="90" width="10" height="20" as="geometry"/>
                </mxCell>
                <mxCell id="hj5V9L2vQso6mufphsfm-649" value="" style="edgeStyle=none;orthogonalLoop=1;jettySize=auto;html=1;rounded=0;endArrow=none;endFill=0;" parent="hj5V9L2vQso6mufphsfm-652" edge="1">
                    <mxGeometry width="80" relative="1" as="geometry">
                        <mxPoint x="40" y="120" as="sourcePoint"/>
                        <mxPoint x="20" y="140" as="targetPoint"/>
                        <Array as="points"/>
                    </mxGeometry>
                </mxCell>
                <mxCell id="hj5V9L2vQso6mufphsfm-650" value="5" style="text;strokeColor=none;align=center;fillColor=none;html=1;verticalAlign=middle;whiteSpace=wrap;rounded=0;container=0;" parent="hj5V9L2vQso6mufphsfm-652" vertex="1">
                    <mxGeometry x="24" y="110" width="10" height="20" as="geometry"/>
                </mxCell>
                <mxCell id="hj5V9L2vQso6mufphsfm-651" value="" style="edgeStyle=none;orthogonalLoop=1;jettySize=auto;html=1;rounded=0;endArrow=none;endFill=0;" parent="hj5V9L2vQso6mufphsfm-652" edge="1">
                    <mxGeometry width="80" relative="1" as="geometry">
                        <mxPoint x="20" y="120" as="sourcePoint"/>
                        <mxPoint y="120" as="targetPoint"/>
                        <Array as="points"/>
                    </mxGeometry>
                </mxCell>
                <mxCell id="BuRNvV0W3GMk6oM7O5ki-4" value="TCK" style="text;strokeColor=none;align=center;fillColor=none;html=1;verticalAlign=middle;whiteSpace=wrap;rounded=0;" parent="1" vertex="1">
                    <mxGeometry x="-620" y="1089" width="30" height="20" as="geometry"/>
                </mxCell>
                <mxCell id="BuRNvV0W3GMk6oM7O5ki-5" value="TDI" style="text;strokeColor=none;align=center;fillColor=none;html=1;verticalAlign=middle;whiteSpace=wrap;rounded=0;" parent="1" vertex="1">
                    <mxGeometry x="-620" y="1069" width="30" height="20" as="geometry"/>
                </mxCell>
                <mxCell id="BuRNvV0W3GMk6oM7O5ki-6" value="TDO" style="text;strokeColor=none;align=center;fillColor=none;html=1;verticalAlign=middle;whiteSpace=wrap;rounded=0;" parent="1" vertex="1">
                    <mxGeometry x="-620" y="1129" width="30" height="20" as="geometry"/>
                </mxCell>
                <mxCell id="BuRNvV0W3GMk6oM7O5ki-7" value="TMS" style="text;strokeColor=none;align=center;fillColor=none;html=1;verticalAlign=middle;whiteSpace=wrap;rounded=0;" parent="1" vertex="1">
                    <mxGeometry x="-620" y="1109" width="30" height="20" as="geometry"/>
                </mxCell>
                <mxCell id="BuRNvV0W3GMk6oM7O5ki-11" value="" style="group" parent="1" vertex="1" connectable="0">
                    <mxGeometry x="-590" y="1074" width="10" height="10" as="geometry"/>
                </mxCell>
                <mxCell id="BuRNvV0W3GMk6oM7O5ki-8" value="" style="whiteSpace=wrap;html=1;" parent="BuRNvV0W3GMk6oM7O5ki-11" vertex="1">
                    <mxGeometry width="10" height="10" as="geometry"/>
                </mxCell>
                <mxCell id="BuRNvV0W3GMk6oM7O5ki-9" value="" style="endArrow=none;html=1;rounded=0;entryX=0;entryY=0;entryDx=0;entryDy=0;exitX=1;exitY=1;exitDx=0;exitDy=0;" parent="BuRNvV0W3GMk6oM7O5ki-11" source="BuRNvV0W3GMk6oM7O5ki-8" target="BuRNvV0W3GMk6oM7O5ki-8" edge="1">
                    <mxGeometry width="50" height="50" relative="1" as="geometry">
                        <mxPoint x="95" y="30" as="sourcePoint"/>
                        <mxPoint x="120" y="5" as="targetPoint"/>
                    </mxGeometry>
                </mxCell>
                <mxCell id="BuRNvV0W3GMk6oM7O5ki-10" value="" style="endArrow=none;html=1;rounded=0;entryX=1;entryY=0;entryDx=0;entryDy=0;exitX=0;exitY=1;exitDx=0;exitDy=0;" parent="BuRNvV0W3GMk6oM7O5ki-11" source="BuRNvV0W3GMk6oM7O5ki-8" target="BuRNvV0W3GMk6oM7O5ki-8" edge="1">
                    <mxGeometry width="50" height="50" relative="1" as="geometry">
                        <mxPoint x="15" y="15" as="sourcePoint"/>
                        <mxPoint x="5" y="5" as="targetPoint"/>
                    </mxGeometry>
                </mxCell>
                <mxCell id="BuRNvV0W3GMk6oM7O5ki-13" value="" style="group" parent="1" vertex="1" connectable="0">
                    <mxGeometry x="-590" y="1095" width="10" height="10" as="geometry"/>
                </mxCell>
                <mxCell id="BuRNvV0W3GMk6oM7O5ki-14" value="" style="whiteSpace=wrap;html=1;" parent="BuRNvV0W3GMk6oM7O5ki-13" vertex="1">
                    <mxGeometry width="10" height="10" as="geometry"/>
                </mxCell>
                <mxCell id="BuRNvV0W3GMk6oM7O5ki-15" value="" style="endArrow=none;html=1;rounded=0;entryX=0;entryY=0;entryDx=0;entryDy=0;exitX=1;exitY=1;exitDx=0;exitDy=0;" parent="BuRNvV0W3GMk6oM7O5ki-13" source="BuRNvV0W3GMk6oM7O5ki-14" target="BuRNvV0W3GMk6oM7O5ki-14" edge="1">
                    <mxGeometry width="50" height="50" relative="1" as="geometry">
                        <mxPoint x="95" y="30" as="sourcePoint"/>
                        <mxPoint x="120" y="5" as="targetPoint"/>
                    </mxGeometry>
                </mxCell>
                <mxCell id="BuRNvV0W3GMk6oM7O5ki-16" value="" style="endArrow=none;html=1;rounded=0;entryX=1;entryY=0;entryDx=0;entryDy=0;exitX=0;exitY=1;exitDx=0;exitDy=0;" parent="BuRNvV0W3GMk6oM7O5ki-13" source="BuRNvV0W3GMk6oM7O5ki-14" target="BuRNvV0W3GMk6oM7O5ki-14" edge="1">
                    <mxGeometry width="50" height="50" relative="1" as="geometry">
                        <mxPoint x="15" y="15" as="sourcePoint"/>
                        <mxPoint x="5" y="5" as="targetPoint"/>
                    </mxGeometry>
                </mxCell>
                <mxCell id="BuRNvV0W3GMk6oM7O5ki-17" value="" style="group" parent="1" vertex="1" connectable="0">
                    <mxGeometry x="-590" y="1115" width="10" height="10" as="geometry"/>
                </mxCell>
                <mxCell id="BuRNvV0W3GMk6oM7O5ki-18" value="" style="whiteSpace=wrap;html=1;" parent="BuRNvV0W3GMk6oM7O5ki-17" vertex="1">
                    <mxGeometry width="10" height="10" as="geometry"/>
                </mxCell>
                <mxCell id="BuRNvV0W3GMk6oM7O5ki-19" value="" style="endArrow=none;html=1;rounded=0;entryX=0;entryY=0;entryDx=0;entryDy=0;exitX=1;exitY=1;exitDx=0;exitDy=0;" parent="BuRNvV0W3GMk6oM7O5ki-17" source="BuRNvV0W3GMk6oM7O5ki-18" target="BuRNvV0W3GMk6oM7O5ki-18" edge="1">
                    <mxGeometry width="50" height="50" relative="1" as="geometry">
                        <mxPoint x="95" y="30" as="sourcePoint"/>
                        <mxPoint x="120" y="5" as="targetPoint"/>
                    </mxGeometry>
                </mxCell>
                <mxCell id="BuRNvV0W3GMk6oM7O5ki-20" value="" style="endArrow=none;html=1;rounded=0;entryX=1;entryY=0;entryDx=0;entryDy=0;exitX=0;exitY=1;exitDx=0;exitDy=0;" parent="BuRNvV0W3GMk6oM7O5ki-17" source="BuRNvV0W3GMk6oM7O5ki-18" target="BuRNvV0W3GMk6oM7O5ki-18" edge="1">
                    <mxGeometry width="50" height="50" relative="1" as="geometry">
                        <mxPoint x="15" y="15" as="sourcePoint"/>
                        <mxPoint x="5" y="5" as="targetPoint"/>
                    </mxGeometry>
                </mxCell>
                <mxCell id="BuRNvV0W3GMk6oM7O5ki-21" value="" style="group" parent="1" vertex="1" connectable="0">
                    <mxGeometry x="-590" y="1135" width="10" height="10" as="geometry"/>
                </mxCell>
                <mxCell id="BuRNvV0W3GMk6oM7O5ki-22" value="" style="whiteSpace=wrap;html=1;" parent="BuRNvV0W3GMk6oM7O5ki-21" vertex="1">
                    <mxGeometry width="10" height="10" as="geometry"/>
                </mxCell>
                <mxCell id="BuRNvV0W3GMk6oM7O5ki-23" value="" style="endArrow=none;html=1;rounded=0;entryX=0;entryY=0;entryDx=0;entryDy=0;exitX=1;exitY=1;exitDx=0;exitDy=0;" parent="BuRNvV0W3GMk6oM7O5ki-21" source="BuRNvV0W3GMk6oM7O5ki-22" target="BuRNvV0W3GMk6oM7O5ki-22" edge="1">
                    <mxGeometry width="50" height="50" relative="1" as="geometry">
                        <mxPoint x="95" y="30" as="sourcePoint"/>
                        <mxPoint x="120" y="5" as="targetPoint"/>
                    </mxGeometry>
                </mxCell>
                <mxCell id="BuRNvV0W3GMk6oM7O5ki-24" value="" style="endArrow=none;html=1;rounded=0;entryX=1;entryY=0;entryDx=0;entryDy=0;exitX=0;exitY=1;exitDx=0;exitDy=0;" parent="BuRNvV0W3GMk6oM7O5ki-21" source="BuRNvV0W3GMk6oM7O5ki-22" target="BuRNvV0W3GMk6oM7O5ki-22" edge="1">
                    <mxGeometry width="50" height="50" relative="1" as="geometry">
                        <mxPoint x="15" y="15" as="sourcePoint"/>
                        <mxPoint x="5" y="5" as="targetPoint"/>
                    </mxGeometry>
                </mxCell>
                <mxCell id="BuRNvV0W3GMk6oM7O5ki-25" value="" style="group" parent="1" vertex="1" connectable="0">
                    <mxGeometry x="-590" y="185" width="10" height="10" as="geometry"/>
                </mxCell>
                <mxCell id="BuRNvV0W3GMk6oM7O5ki-26" value="" style="whiteSpace=wrap;html=1;" parent="BuRNvV0W3GMk6oM7O5ki-25" vertex="1">
                    <mxGeometry width="10" height="10" as="geometry"/>
                </mxCell>
                <mxCell id="BuRNvV0W3GMk6oM7O5ki-27" value="" style="endArrow=none;html=1;rounded=0;entryX=0;entryY=0;entryDx=0;entryDy=0;exitX=1;exitY=1;exitDx=0;exitDy=0;" parent="BuRNvV0W3GMk6oM7O5ki-25" source="BuRNvV0W3GMk6oM7O5ki-26" target="BuRNvV0W3GMk6oM7O5ki-26" edge="1">
                    <mxGeometry width="50" height="50" relative="1" as="geometry">
                        <mxPoint x="95" y="30" as="sourcePoint"/>
                        <mxPoint x="120" y="5" as="targetPoint"/>
                    </mxGeometry>
                </mxCell>
                <mxCell id="BuRNvV0W3GMk6oM7O5ki-28" value="" style="endArrow=none;html=1;rounded=0;entryX=1;entryY=0;entryDx=0;entryDy=0;exitX=0;exitY=1;exitDx=0;exitDy=0;" parent="BuRNvV0W3GMk6oM7O5ki-25" source="BuRNvV0W3GMk6oM7O5ki-26" target="BuRNvV0W3GMk6oM7O5ki-26" edge="1">
                    <mxGeometry width="50" height="50" relative="1" as="geometry">
                        <mxPoint x="15" y="15" as="sourcePoint"/>
                        <mxPoint x="5" y="5" as="targetPoint"/>
                    </mxGeometry>
                </mxCell>
                <mxCell id="BuRNvV0W3GMk6oM7O5ki-29" value="" style="group" parent="1" vertex="1" connectable="0">
                    <mxGeometry x="-590" y="75" width="10" height="10" as="geometry"/>
                </mxCell>
                <mxCell id="BuRNvV0W3GMk6oM7O5ki-30" value="" style="whiteSpace=wrap;html=1;" parent="BuRNvV0W3GMk6oM7O5ki-29" vertex="1">
                    <mxGeometry width="10" height="10" as="geometry"/>
                </mxCell>
                <mxCell id="BuRNvV0W3GMk6oM7O5ki-31" value="" style="endArrow=none;html=1;rounded=0;entryX=0;entryY=0;entryDx=0;entryDy=0;exitX=1;exitY=1;exitDx=0;exitDy=0;" parent="BuRNvV0W3GMk6oM7O5ki-29" source="BuRNvV0W3GMk6oM7O5ki-30" target="BuRNvV0W3GMk6oM7O5ki-30" edge="1">
                    <mxGeometry width="50" height="50" relative="1" as="geometry">
                        <mxPoint x="95" y="30" as="sourcePoint"/>
                        <mxPoint x="120" y="5" as="targetPoint"/>
                    </mxGeometry>
                </mxCell>
                <mxCell id="BuRNvV0W3GMk6oM7O5ki-32" value="" style="endArrow=none;html=1;rounded=0;entryX=1;entryY=0;entryDx=0;entryDy=0;exitX=0;exitY=1;exitDx=0;exitDy=0;" parent="BuRNvV0W3GMk6oM7O5ki-29" source="BuRNvV0W3GMk6oM7O5ki-30" target="BuRNvV0W3GMk6oM7O5ki-30" edge="1">
                    <mxGeometry width="50" height="50" relative="1" as="geometry">
                        <mxPoint x="15" y="15" as="sourcePoint"/>
                        <mxPoint x="5" y="5" as="targetPoint"/>
                    </mxGeometry>
                </mxCell>
                <mxCell id="BuRNvV0W3GMk6oM7O5ki-33" value="" style="group" parent="1" vertex="1" connectable="0">
                    <mxGeometry x="560" y="84" width="10" height="10" as="geometry"/>
                </mxCell>
                <mxCell id="BuRNvV0W3GMk6oM7O5ki-34" value="" style="whiteSpace=wrap;html=1;" parent="BuRNvV0W3GMk6oM7O5ki-33" vertex="1">
                    <mxGeometry width="10" height="10" as="geometry"/>
                </mxCell>
                <mxCell id="BuRNvV0W3GMk6oM7O5ki-35" value="" style="endArrow=none;html=1;rounded=0;entryX=0;entryY=0;entryDx=0;entryDy=0;exitX=1;exitY=1;exitDx=0;exitDy=0;" parent="BuRNvV0W3GMk6oM7O5ki-33" source="BuRNvV0W3GMk6oM7O5ki-34" target="BuRNvV0W3GMk6oM7O5ki-34" edge="1">
                    <mxGeometry width="50" height="50" relative="1" as="geometry">
                        <mxPoint x="95" y="30" as="sourcePoint"/>
                        <mxPoint x="120" y="5" as="targetPoint"/>
                    </mxGeometry>
                </mxCell>
                <mxCell id="BuRNvV0W3GMk6oM7O5ki-36" value="" style="endArrow=none;html=1;rounded=0;entryX=1;entryY=0;entryDx=0;entryDy=0;exitX=0;exitY=1;exitDx=0;exitDy=0;" parent="BuRNvV0W3GMk6oM7O5ki-33" source="BuRNvV0W3GMk6oM7O5ki-34" target="BuRNvV0W3GMk6oM7O5ki-34" edge="1">
                    <mxGeometry width="50" height="50" relative="1" as="geometry">
                        <mxPoint x="15" y="15" as="sourcePoint"/>
                        <mxPoint x="5" y="5" as="targetPoint"/>
                    </mxGeometry>
                </mxCell>
                <mxCell id="BuRNvV0W3GMk6oM7O5ki-37" value="" style="group" parent="1" vertex="1" connectable="0">
                    <mxGeometry x="560" y="194" width="10" height="10" as="geometry"/>
                </mxCell>
                <mxCell id="BuRNvV0W3GMk6oM7O5ki-38" value="" style="whiteSpace=wrap;html=1;" parent="BuRNvV0W3GMk6oM7O5ki-37" vertex="1">
                    <mxGeometry width="10" height="10" as="geometry"/>
                </mxCell>
                <mxCell id="BuRNvV0W3GMk6oM7O5ki-39" value="" style="endArrow=none;html=1;rounded=0;entryX=0;entryY=0;entryDx=0;entryDy=0;exitX=1;exitY=1;exitDx=0;exitDy=0;" parent="BuRNvV0W3GMk6oM7O5ki-37" source="BuRNvV0W3GMk6oM7O5ki-38" target="BuRNvV0W3GMk6oM7O5ki-38" edge="1">
                    <mxGeometry width="50" height="50" relative="1" as="geometry">
                        <mxPoint x="95" y="30" as="sourcePoint"/>
                        <mxPoint x="120" y="5" as="targetPoint"/>
                    </mxGeometry>
                </mxCell>
                <mxCell id="BuRNvV0W3GMk6oM7O5ki-40" value="" style="endArrow=none;html=1;rounded=0;entryX=1;entryY=0;entryDx=0;entryDy=0;exitX=0;exitY=1;exitDx=0;exitDy=0;" parent="BuRNvV0W3GMk6oM7O5ki-37" source="BuRNvV0W3GMk6oM7O5ki-38" target="BuRNvV0W3GMk6oM7O5ki-38" edge="1">
                    <mxGeometry width="50" height="50" relative="1" as="geometry">
                        <mxPoint x="15" y="15" as="sourcePoint"/>
                        <mxPoint x="5" y="5" as="targetPoint"/>
                    </mxGeometry>
                </mxCell>
                <mxCell id="BuRNvV0W3GMk6oM7O5ki-42" value="ShiftDR" style="text;strokeColor=none;align=center;fillColor=none;html=1;verticalAlign=middle;whiteSpace=wrap;rounded=0;" parent="1" vertex="1">
                    <mxGeometry x="-140.62" y="699" width="40" height="20" as="geometry"/>
                </mxCell>
                <mxCell id="2" value="EN" style="text;strokeColor=none;align=center;fillColor=none;html=1;verticalAlign=middle;whiteSpace=wrap;rounded=0;" parent="1" vertex="1">
                    <mxGeometry x="57.5" y="709" width="20" height="10" as="geometry"/>
                </mxCell>
                <mxCell id="3" style="edgeStyle=orthogonalEdgeStyle;rounded=0;orthogonalLoop=1;jettySize=auto;html=1;exitX=0.5;exitY=0;exitDx=0;exitDy=0;entryX=0.5;entryY=1;entryDx=0;entryDy=0;endArrow=none;endFill=0;" parent="1" source="4" target="2" edge="1">
                    <mxGeometry relative="1" as="geometry"/>
                </mxCell>
                <mxCell id="4" value="UpdateIR" style="text;strokeColor=none;align=center;fillColor=none;html=1;verticalAlign=middle;whiteSpace=wrap;rounded=0;" parent="1" vertex="1">
                    <mxGeometry x="40" y="729" width="55" height="10" as="geometry"/>
                </mxCell>
                <mxCell id="5" style="edgeStyle=orthogonalEdgeStyle;rounded=0;orthogonalLoop=1;jettySize=auto;html=1;exitX=1;exitY=0.5;exitDx=0;exitDy=0;shape=flexArrow;endArrow=block;endFill=0;width=4;fillColor=default;endWidth=8.524590163934427;endSize=2.695081967213115;entryX=0;entryY=0.25;entryDx=0;entryDy=0;" parent="1" target="hj5V9L2vQso6mufphsfm-135" edge="1">
                    <mxGeometry relative="1" as="geometry">
                        <mxPoint x="-179.99" y="640" as="targetPoint"/>
                        <mxPoint x="-249.99" y="640" as="sourcePoint"/>
                        <Array as="points">
                            <mxPoint x="-250" y="639"/>
                        </Array>
                    </mxGeometry>
                </mxCell>
                <mxCell id="7" value="" style="edgeStyle=orthogonalEdgeStyle;rounded=0;orthogonalLoop=1;jettySize=auto;html=1;exitX=1;exitY=0.5;exitDx=0;exitDy=0;entryX=0;entryY=0.75;entryDx=0;entryDy=0;fillColor=#fa6800;strokeColor=#FF8000;endArrow=none;" edge="1" parent="1" source="hj5V9L2vQso6mufphsfm-380" target="6">
                    <mxGeometry relative="1" as="geometry">
                        <mxPoint x="-289.9899999999999" y="119" as="targetPoint"/>
                        <Array as="points">
                            <mxPoint x="-210" y="219"/>
                        </Array>
                        <mxPoint x="-219.99" y="218.99999999999994" as="sourcePoint"/>
                    </mxGeometry>
                </mxCell>
                <mxCell id="6" value="" style="ellipse;whiteSpace=wrap;html=1;strokeColor=#FFFFFF;fillColor=#000000;" vertex="1" parent="1">
                    <mxGeometry x="-213" y="216" width="6" height="6" as="geometry"/>
                </mxCell>
                <mxCell id="9" value="" style="edgeStyle=orthogonalEdgeStyle;rounded=0;orthogonalLoop=1;jettySize=auto;html=1;exitX=1;exitY=0.5;exitDx=0;exitDy=0;entryX=0;entryY=0.5;entryDx=0;entryDy=0;endArrow=none;endFill=0;" edge="1" parent="1" source="hj5V9L2vQso6mufphsfm-428" target="8">
                    <mxGeometry relative="1" as="geometry">
                        <mxPoint x="-219.99" y="108.99999999999994" as="sourcePoint"/>
                        <mxPoint x="-199.99" y="108.99999999999994" as="targetPoint"/>
                    </mxGeometry>
                </mxCell>
                <mxCell id="8" value="" style="ellipse;whiteSpace=wrap;html=1;strokeColor=#FFFFFF;fillColor=#000000;" vertex="1" parent="1">
                    <mxGeometry x="-213" y="106" width="6" height="6" as="geometry"/>
                </mxCell>
                <mxCell id="11" value="" style="edgeStyle=orthogonalEdgeStyle;rounded=0;orthogonalLoop=1;jettySize=auto;html=1;exitX=1;exitY=0.5;exitDx=0;exitDy=0;entryX=0;entryY=0.75;entryDx=0;entryDy=0;fillColor=#fa6800;strokeColor=#FF8000;endArrow=none;" edge="1" parent="1" source="hj5V9L2vQso6mufphsfm-501" target="10">
                    <mxGeometry relative="1" as="geometry">
                        <Array as="points"/>
                        <mxPoint x="170.00000000000023" y="108.99999999999994" as="sourcePoint"/>
                        <mxPoint x="100" y="229" as="targetPoint"/>
                    </mxGeometry>
                </mxCell>
                <mxCell id="10" value="" style="ellipse;whiteSpace=wrap;html=1;strokeColor=#FFFFFF;fillColor=#000000;" vertex="1" parent="1">
                    <mxGeometry x="177.38" y="106" width="6" height="6" as="geometry"/>
                </mxCell>
                <mxCell id="13" value="" style="edgeStyle=orthogonalEdgeStyle;rounded=0;orthogonalLoop=1;jettySize=auto;html=1;exitX=1;exitY=0.5;exitDx=0;exitDy=0;entryX=0;entryY=0.5;entryDx=0;entryDy=0;endArrow=none;endFill=0;" edge="1" parent="1" source="hj5V9L2vQso6mufphsfm-466" target="12">
                    <mxGeometry relative="1" as="geometry">
                        <mxPoint x="170.00000000000023" y="219" as="sourcePoint"/>
                        <mxPoint x="190" y="219" as="targetPoint"/>
                    </mxGeometry>
                </mxCell>
                <mxCell id="12" value="" style="ellipse;whiteSpace=wrap;html=1;strokeColor=#FFFFFF;fillColor=#000000;" vertex="1" parent="1">
                    <mxGeometry x="177.38" y="216" width="6" height="6" as="geometry"/>
                </mxCell>
                <mxCell id="19" value="" style="edgeStyle=orthogonalEdgeStyle;rounded=0;orthogonalLoop=1;jettySize=auto;html=1;exitX=1;exitY=0.75;exitDx=0;exitDy=0;entryX=0;entryY=0.25;entryDx=0;entryDy=0;endArrow=none;" edge="1" parent="1" source="hj5V9L2vQso6mufphsfm-459" target="17">
                    <mxGeometry relative="1" as="geometry">
                        <Array as="points">
                            <mxPoint x="34" y="209"/>
                            <mxPoint x="77" y="209"/>
                        </Array>
                        <mxPoint x="34" y="226.49999999999994" as="sourcePoint"/>
                        <mxPoint x="220" y="189" as="targetPoint"/>
                    </mxGeometry>
                </mxCell>
                <mxCell id="17" value="" style="ellipse;whiteSpace=wrap;html=1;strokeColor=#FFFFFF;fillColor=#000000;" vertex="1" parent="1">
                    <mxGeometry x="77" y="206" width="6" height="6" as="geometry"/>
                </mxCell>
                <mxCell id="22" value="" style="edgeStyle=orthogonalEdgeStyle;rounded=0;orthogonalLoop=1;jettySize=auto;html=1;exitX=1;exitY=0.25;exitDx=0;exitDy=0;entryX=0;entryY=0.25;entryDx=0;entryDy=0;endArrow=none;" edge="1" parent="1" source="hj5V9L2vQso6mufphsfm-459" target="20">
                    <mxGeometry relative="1" as="geometry">
                        <Array as="points">
                            <mxPoint x="34" y="99"/>
                            <mxPoint x="78" y="99"/>
                        </Array>
                        <mxPoint x="34" y="101.49999999999997" as="sourcePoint"/>
                        <mxPoint x="220" y="79" as="targetPoint"/>
                    </mxGeometry>
                </mxCell>
                <mxCell id="20" value="" style="ellipse;whiteSpace=wrap;html=1;strokeColor=#FFFFFF;fillColor=#000000;" vertex="1" parent="1">
                    <mxGeometry x="77.5" y="96" width="6" height="6" as="geometry"/>
                </mxCell>
                <mxCell id="23" value="" style="ellipse;whiteSpace=wrap;html=1;strokeColor=#FFFFFF;fillColor=#000000;" vertex="1" parent="1">
                    <mxGeometry x="-312.62" y="186" width="6" height="6" as="geometry"/>
                </mxCell>
                <mxCell id="28" value="" style="ellipse;whiteSpace=wrap;html=1;strokeColor=#FFFFFF;fillColor=#000000;" vertex="1" parent="1">
                    <mxGeometry x="-312.62" y="76" width="6" height="6" as="geometry"/>
                </mxCell>
                <mxCell id="29" value="" style="ellipse;whiteSpace=wrap;html=1;strokeColor=#33FF33;fillColor=#33FF33;" vertex="1" parent="1">
                    <mxGeometry x="-93" y="726" width="6" height="6" as="geometry"/>
                </mxCell>
                <mxCell id="31" value="" style="ellipse;whiteSpace=wrap;html=1;strokeColor=#33FF33;fillColor=#33FF33;" vertex="1" parent="1">
                    <mxGeometry x="-222.99" y="976" width="6" height="6" as="geometry"/>
                </mxCell>
            </root>
        </mxGraphModel>
    </diagram>
</mxfile>